<?xml version="1.0" encoding="utf-8"?>
<!-- Generator: Adobe Illustrator 24.0.0, SVG Export Plug-In . SVG Version: 6.00 Build 0)  -->
<svg version="1.1" id="Layer_1" xmlns="http://www.w3.org/2000/svg" xmlns:xlink="http://www.w3.org/1999/xlink" x="0px" y="0px"
	 viewBox="0 0 500 500" style="enable-background:new 0 0 500 500;" xml:space="preserve">
<style type="text/css">
	.st0{fill:#E3212A;}
</style>
<g>
	<path class="st0" d="M246,501c-6.3-0.7-12.5-1.5-18.8-2c-31.3-2.9-61.3-11.3-89.5-24.9c-34.8-16.7-65.1-39.5-89.5-69.8
		c-2-2.5-3.7-5.3-5.8-8.3c5.6-2.4,10.4-4.9,15.4-6.5c20-6.3,40-12.4,60.1-18.3c11.6-3.4,23.4-6.4,35.2-9.5c3.7-1,4.4-2.9,3.8-6.6
		c-2.4-15.6-4.2-31.3-6.6-46.9c-0.3-2-2.1-4.7-3.9-5.4c-8.8-3.5-12.8-9.7-12.1-19c0.5-6-1.2-11.1-5.6-15.3c-4.2-3.9-4.7-9-4.4-14.3
		c0.3-4.5-0.7-8.1-3.8-11.8c-4.9-5.7-8.1-12.5-7.4-20.6c0.5-5.7,4-11.9,8.5-13.3c4.4-1.4,10.1,1.1,13.8,6c1.1,1.4,2.2,2.7,3.3,4.1
		c0.4-0.2,0.8-0.5,1.3-0.7c-0.8-1.6-1.3-3.5-2.4-4.7c-8.7-9.3-10.3-21.1-11.1-32.8c-0.8-13,0.4-26,5.5-38.2c0.7-1.7,1.2-3.6,1.1-5.4
		c-0.3-17.3,6.9-31.9,16.3-45.7c0.4-0.5,0.6-1.1,1.1-2c-1.7-1.4-3.3-2.7-5.4-4.4c1.4-0.2,2.4-0.4,3.4-0.6c-1.4-4.7-2.8-9.3-4.4-14.7
		c0.3-0.2,1.6-1.5,2.9-1.5c7.7-0.1,12.3-4,17-10.1c4.8-6.3,9.3-13.7,17.4-17.1c0.9-0.4,1.7-1,2.6-1.5c-1-1.4-1.3-2.2-1.9-2.8
		c-8.1-7.2-5.6-10.3-0.7-18.6c0.5-0.8,2.1-1,3.2-1.4c4.2-1.3,9-1.6,9.8-8.3c1.2,1.8,1.6,2.5,2.3,3.6c2.1-2.5,4-4.7,5.9-6.9
		c0.2,0.1,0.5,0.2,0.7,0.4c-1.5,3.9-3.1,7.8-4.6,11.8c0.4,0.4,0.9,0.9,1.3,1.3c4.3-9,9.7-16.4,21.5-15.1c0.7,4.8,1.4,9.5,2.1,14.7
		c3.5-2.7,6.7-5.2,10.6-8.2c1.5,5.9,2.8,10.6,4,15.3c0.7-0.2,1.4-0.4,2.2-0.5c-0.5-2.2-0.9-4.5-1.5-6.7c-1.4-4.9-0.8-9.3,3.5-12.5
		c1.4-1,3.2-1.3,4.9-1.9c0.5,1.7,1.6,3.4,1.4,5c-1,6.5,2.2,10.9,6.7,14.7c3.2,2.7,6.9,4.5,12,2.6c-0.9-1.1-1.4-2.1-2.2-2.7
		c-3.8-2.6-3.3-5.9-1.4-9.2c2.5-4.4,4.8-4.6,8.5-1.1c3.6,3.5,6.7,7.1,12.8,3.3c2.1-1.3,6.3,0.9,9.5,1.4c1.7,0.3,3.5,0.4,5.2,0.6
		c0-1.7,0-3.4,0-6.3c3.9,0,8-0.4,11.9,0.1c5.3,0.7,10.4,2.1,15.6,3.3c1.4,0.3,3.1,0.8,4.1,1.8c7.1,7.4,17.5,7.8,25.8,12.4
		c7,3.9,10.7,10.5,13.4,17.7c0.6,1.6,0.9,3.3,1.8,6.7c1.9-2.8,3-4.3,4.1-5.9c0.4,0.1,0.7,0.2,1.1,0.4c0,4.6-0.1,9.1,0.1,13.7
		c0,1.2,0.9,2.4,1.3,3.5c0.5-0.1,1-0.2,1.5-0.3c-1,2.5-2,5-3,7.5c0.4,0.4,0.8,0.8,1.1,1.2c2.7-1.6,5.3-3.2,9.3-5.6
		c-2.3,3.1-4.2,5.1-5.3,7.4c-0.7,1.6-1.2,4.7-0.3,5.6c12,11.6,16.6,26.6,18.4,42.2c2.2,19.8,3.4,39.7-0.2,59.6
		c-1.4,7.8-1.8,15.8-2.8,24.6c2.7-1.1,4.9-2,7.1-2.9c6.6-2.7,15-0.5,19.3,5.2c3.5,4.7,2.9,11.1-1.7,17c-5.1,6.6-9.9,13.2-10,22.3
		c-0.1,8.7-5.5,15-11,21.2c-2.1,2.4-4,5.8-4.3,8.9c-1,8.6-5.9,15.2-10.7,21.6c-1.2,1.6-5.1,1.1-7.7,1.9c-1.8,0.6-4.5,1.5-4.9,2.8
		c-3.4,13-5.6,26.3-4.6,39.9c0.9,12.4,9.7,18.9,18.7,25c18.5,12.4,39,20.9,59.1,30.1c4.7,2.2,9.1,5.2,13.9,8
		c-8.2,8.5-15,17.2-23.4,23.7c-15.5,12.1-31.2,24.1-48.2,33.9c-27.1,15.7-56.5,26-87.6,30.6c-12.5,1.8-25.2,2.3-37.8,3.5
		c-2.3,0.2-4.6,0.6-6.9,1C253.3,501,249.7,501,246,501z M259,110.9c-0.3-4.7-0.6-9.3-0.9-14c-0.9,0-1.7,0.1-2.6,0.1
		c0,4.8-0.1,9.6,0.1,14.3c0,0.6,1.3,1.2,1.9,1.8C258,112.4,258.5,111.6,259,110.9c0.5,0.9,1,1.8,1.5,2.8c0.3,0,0.7-0.1,1-0.1
		c0-4.7,0-9.4,0-14.1c-0.5,0-0.9-0.1-1.4-0.1C259.8,103.3,259.4,107.1,259,110.9z M232,108c1,1.9,2,3.8,3.4,6.5
		c1.2-2,1.7-2.9,2.1-3.6c0.5,0.8,1.1,1.8,2,3.3c4.3-4.6,2.6-9.4,2.5-15.2c-1.9,1.5-2.9,2.2-3.7,2.9c-0.5-0.7-0.9-1.5-2.1-3.4
		c-0.6,3.3-0.8,5.4-1.5,7.3C234.3,106.7,232.9,107.3,232,108c0.8-7.7,1.7-15.5,2.8-24.6c-1.7,1.9-2.5,2.7-3.4,3.6
		c-0.1-1.4-0.2-2.4-0.2-3.4c-1.6,0.7-2.2,1.7-2.5,2.8c-1.2,5.5-2.5,10.9-3.6,16.4c-0.5,2.6-1,5.3-1,7.9c0,1.1,1.3,3,2.1,3.1
		c1.3,0.1,3.1-0.7,4-1.7C231.3,111.1,231.5,109.3,232,108z M333.9,112.1c1.3,10.7,2.5,21.4,3.8,32.1c1-0.8,1.5-1.7,1.6-2.6
		c0.1-5.6,0.5-11.3,0.1-16.9c-0.4-6.4-1.3-12.8-2.3-19.2c-1.6-11.1-3.2-22.2-5.1-33.3c-0.2-1.3-2-2.4-3-3.6
		c-0.3,0.3-0.5,0.6-0.8,0.9C330.1,83.6,332.1,97.9,333.9,112.1c-2.1-10.5-2.5-21.5-7-31.5c2.1,20.1,4.2,40.2,6.3,60.3
		C336.4,131.3,334.2,121.7,333.9,112.1z M341.9,273.5c0.9,1.6,1.7,3.1,2.6,4.7c0.4-0.2,0.8-0.3,1.3-0.5c-1.3-4.5-2.6-9-4.1-13.4
		c-0.1-0.3-1.6-0.1-2.5-0.1c-0.8-1.7-1.7-3.4-2.5-5.1c7.5,2.3,14.1,0.3,19.3-4.4c3.3-3.1,7.8-6.8,6.4-14.2c-1.3,2-1.9,2.9-2.8,4.3
		c-0.2-2.7-0.4-4.5-0.7-7.4c-1.3,1.9-2,2.8-3.3,4.7c0-3.6,0-6.1,0-9.5c-1.5,1.6-2.4,2.5-2.7,2.9c-1.3-0.6-2.1-1.1-3-1.4
		c-2.1-0.9-4.2-1.6-6.3-2.6c-2-1-4.1-3.3-5.9-3c-5.2,0.8-8.8-2.2-10.5-5.6c-1.8-3.6-4-3.4-6.7-3.2c-9.8,0.7-18.8-1.5-27.4-6.2
		c-1.4-0.8-2.6-1.9-3.9-2.9c8.7,0.5,16.8,1.7,24.8,1.3c11.7-0.5,23.8-0.2,34.3-6.9c1-0.6,2.8-0.3,4.2,0c5,0.9,9.9,2,15.7,3.2
		c-2.1-6.5-4-12.3-5.9-18.1c0.3-0.1,0.7-0.2,1-0.3c1.2,1,2.3,1.9,3.5,2.9c0.5-0.3,1.1-0.6,1.6-0.9c-3.2-7.2-6.4-14.3-9.6-21.5
		c-2.7-6-8.5-8.3-14-9.2c-9-1.6-18.3-1.3-27.5-2.4c-7.5-0.9-14.1,1.8-20.8,4.2c-4,1.4-8.1,2.4-11.9-0.5c-1-0.8-2.3-2.3-2.1-3.3
		c0.2-1.1,1.8-2,2.9-3c0.7-0.6,1.8-1.2,1.9-1.9c0.4-4,0.5-8,0.7-12c-0.4-0.1-0.8-0.1-1.2-0.2c-0.8,2.7-1.6,5.5-2.3,8
		c-0.4-2.1-0.9-4.3-1.3-6.6c-2.1,4-3.2,7.9-4.7,11.6c-0.6,1.5-2.2,2.9-3.6,3.8c-5.6,3.5-12,2.7-18.2,2.7c-2.6,0-5.2-1.3-8.4-2.1
		c0-4.4,0-9.7,0-15c-4.7,0-4.4,2.9-4.5,5.6c-0.1,1.7,0.3,4.4-0.7,5.1c-4.3,2.9-8.8,6.7-13.7,7.6c-12.4,2.1-25.1,2.6-37.7,4.2
		c-4.9,0.6-9.5,2.9-14.4,3.6c-6.3,0.9-8.5,3-7.3,9.2c0.9,4.5,2.4,8.8,3.7,13.3c0.7-1.5,1.6-3.1,2.5-5c1.3,3.7,2.5,7.1,4,11.2
		c1.4-1.5,2.4-2.4,3.2-3.4c8.3-10.3,18.9-14.9,32.1-13.4c11.3,1.3,20.9,8.8,22.1,17.9c0.2,1.4-0.7,3-1,4.5c-1.7-0.4-3.7-0.4-4.9-1.4
		c-2-1.7-3.1-4.6-5.2-6c-4-2.8-8.5-6.9-12.7-6.9c-10.5,0-19.7,4.7-26.6,12.9c-5.4,6.4-5.4,6.6-13.2,3.5c-2.4,2.6-4.9,5.3-7.4,8
		c-4,0-8.1,0-12.7,0c-1.3,5.6-5.3,10.9-3.9,17.3c5.3-4.4,10.3-8.3,15-12.4c1.1-1,1.5-2.8,2.2-4.2c4.4,0.1,8.9-0.6,13.1,0.3
		c12.4,2.6,24.8,2.4,37.2,0.2c5.8-1,11.5-2.2,17.6-3.4c-1.4,5.3-2.6,7.3-7.6,8.4c-7.1,1.5-14.4,1.9-21.5,3.1
		c-2.4,0.4-4.9,1.4-6.9,2.7c-4.5,3-8.6,6.5-13,9.7c-0.5,0.4-1.3,0.8-1.8,0.7c-4.1-0.9-4.3,2.9-6,4.9c-1.1,1.3-1.8,3.5-3.1,3.9
		c-3.8,1.3-5.6,4.4-7.4,7.4c-3.2,5.2,1.5,8.3,4.3,11.4c1,1.1,4.4,1.1,6.1,0.2c3.5-1.8,6.5-4.6,9.8-6.8c2.4-1.6,4.8-3.1,7.3-4.6
		c0.3,0.4,0.7,0.8,1,1.2c-2.3,4.2-5.1,8.3-6.9,12.7c-1.9,4.5-2.3,9.6-4.3,13.9c-2.4,5.1-5.4,10.2-9.1,14.5c-2.9,3.4-6.5,7-12.8,5
		c0.6,9.3,2.3,17.6,7.2,25.7c3.5-7.4,6.6-14.1,9.8-20.9c0.4,0.2,0.8,0.3,1.2,0.5c-0.6,3.7-1.3,7.3-1.8,11
		c-2.3,17,0.3,32.8,11.9,46.3c6.7,7.8,12.9,16.1,19.9,23.7c5.2,5.6,11.4,10.4,19.1,11.9c20.1,4,40.3,4,60.6,0.3
		c9.2-1.7,16.2-6.5,21.3-14.3c6.1-9.1,12.2-18.2,18.4-27.3c8.3-12.2,14-25,10.6-40.3c-0.7-3-1.9-5.8-3-9.2c5.4-0.1,4.7,4,5.8,6.8
		c1.2,3.1,2.5,6,4.1,9.6c7.4-4.4,16.4-5.9,17.5-16.2c0.1-0.8,1.3-1.4,1.9-2.1c1.2-1.2,3-2.2,3.5-3.7c1.4-4.3,2.3-8.8,3.6-14.3
		c0.9,1.9,1.3,2.6,1.7,3.3c3.5,6.2,8.1,6.5,11.5,0.1c2.2-4.1,3.7-8.9,4.6-13.5c0.9-5.2,2.1-9.7,6.2-13.6c3.3-3.1,5.5-7.5,7.7-11.6
		c0.8-1.5,0.7-3.8,0.3-5.6c-1.1-4.5-2.7-8.8-3.9-13.2c-0.6-2.3-1.7-5.1-1-7c2.8-7.1,13.7-13.2,21.6-12.3c-1-4.2-3.2-5-6.8-3.3
		c-8.9,4.3-17.3,9.2-23.5,17.3c-1.6,2.1-4.4,3.4-6.5,5.1c-2.2,1.8-4.8,3.3-6.4,5.5c-3.2,4.4-4.4,9.4-4.2,15
		c0.5,13-3.9,23.9-16.8,28.9c-3.3,1.3-6.7,6-11.2,2.2c-0.2-0.2-1.1,0.5-2.1,1.1C344.2,282.2,343,277.9,341.9,273.5z M208.7,433
		c1,1.7,2.5,3.1,2.4,4.5c-0.2,6.8,3.7,11.3,8.6,14.6c5.6,3.8,12.2,6.2,17.7,10.2c6.2,4.4,12.2,3.3,18.4,1.2c2.7-0.9,5.2-2.2,7.7-3.5
		c17.2-9.6,31.6-22.6,46.1-35.6c1.6-1.4,2.8-3.9,3-6c0.8-6.4,1-12.8,1.5-20c-2,1-4,2-6,3c-2.8,1.4-5.5,3.6-8.5,4
		c-13.1,1.8-26.3,3.4-39.6,4.5c-6.9,0.6-14-0.2-20.9,0c-3.7,0.1-4.3,3-4.4,6c0,0.7,0.8,1.5,0.9,2.3c0.4,2.8-0.5,6.2,3.7,7.1
		c0.5,0.1,1.1,1.7,1,2.4c-0.5,2.7-1.2,5.3-1.9,8c-4.3-7.8-11-14.6-7.4-24.4c1.2-3.3-1.2-4-3.6-4.6c-12.4-3-22.4-9.9-31-19.1
		c-0.8-0.9-1.9-1.6-2.9-2.4c-0.6,0.4-1.2,0.8-1.8,1.2c4.9,11.4,9.8,22.9,14.9,34.7c-4,2.7-0.6,4.8,1.3,6.7
		C210.1,429.6,212,431.1,208.7,433z M337.6,406.3c-0.3-0.2-0.6-0.4-1-0.6c-0.6,0.5-1.3,0.9-1.8,1.4c-6.4,6.6-12.5,13.3-19.1,19.6
		c-3.8,3.6-9,5.8-12.5,9.7c-11.8,13.1-25,24.4-41,32c-4.1,2-4.1,3.9-1.6,7.2c3.9,5.1,7.8,10.3,11.3,15.8c1.8,2.9,3.8,4.5,7.2,3.9
		c16.5-3,33-5.9,49.5-9.1c1.6-0.3,3.6-1.9,4.3-3.5c7.3-16.4,14.4-32.9,21.5-49.4c0.8-1.8,1.1-3.8,1.6-5.7c-0.6-0.2-1.1-0.4-1.7-0.6
		c-1.2,3.1-2.5,6.2-3.7,9.3c-1.9,5-5.1,6.1-9,2.8c-1.5-1.2-2.6-3-3.4-4.8c-1.3-3-1.9-6.4-3.3-9.4c-2.7-5.8-3-11.2,1.7-16.1
		C337.3,408.2,337.3,407.1,337.6,406.3z M170.3,405.7c-0.4,0.3-0.9,0.5-1.3,0.8c0.3,1.9,0.4,3.9,1,5.6c1.9,5,3.9,9.9,6,14.8
		c3.1,7.2,2.5,10.2-2.9,13.8c-8.2,5.5-12.8,5.7-18.1,0.3c-0.2,1.3-0.6,2.5-0.5,3.5c1.1,9.9,2.1,19.9,3.7,29.7c0.3,2.1,2.9,4.5,5,5.4
		c5.7,2.4,11.5,4.4,17.5,5.8c11.8,2.9,23.7,5.3,35.6,7.7c1.4,0.3,3.7-0.8,4.7-2c3.2-4,5.7-8.5,8.9-12.4c2.4-2.9,5.5-5.2,8.9-8.2
		C206.8,457.9,188.4,432,170.3,405.7z M339.7,483.1c38.8-12.6,72.2-32.6,100.9-60.1c-4.4-6.1-9.2-7.2-15.6-5.5
		c-5.4,1.5-7.2-0.2-8-5.8c-0.4-3.3-0.5-6.6-0.3-9.9c0.3-4.7-1-6.1-5.9-5.5c0.6,6.4,1.1,12.9,1.9,19.2c0.8,5.7-1.8,8.7-6.9,10.4
		c-12.4,4.2-24.8,8.5-37.1,12.8c-3.7,1.3-7.3,2.3-10.3-3.4C351.9,451.7,346,466.9,339.7,483.1z M85.4,418.7
		c-4.8,10.1-4,13.3,3.8,19.6c17.5,14.1,36.7,25.2,57,34.7c1.6,0.7,3.3,1.1,4.9,1.7c0.4-0.3,0.9-0.6,1.3-0.9
		c-8.3-15.9-15.8-32.1-14.1-49.6c-5.3,0.6-9.6,1.6-13.9,1.4c-6.4-0.4-12.9-1.4-19.2-2.6C98.5,421.8,91.9,420.1,85.4,418.7z
		 M143.2,244.1c-0.5-3.2-1.1-6.1-1.4-8.9c-0.2-1.7,0.5-3.6,0-5.1c-2-5.9-7-5.9-12.6-6c2.2,3.3,3.8,6.5,6.1,9
		c5.2,5.4,6.5,11.1,4,18.3c-1.8,5.2-0.9,10.2,4.3,13.6c1.5,1,2.9,2.4,3.6,4c0.7,1.6,0.8,3.7,0.6,5.6c0,0.4-2.4,1.3-2.8,0.9
		c-1.4-1.2-2.7-2.7-3.6-4.3c-1.5-2.7-2.3-5.9-4.2-8.3c-3.2-4.1-4.6-8.3-3.2-13.4c0.5-1.9-0.1-4-0.2-6c-7,7.4-6.3,18.9,0.6,26.6
		c3.5,4,7.4,7.7,11,11.6c0.2,0.3,0.1,0.9,0.2,1.4c-1.6-0.3-3-0.5-5.7-1c0.4,4.8,0.2,9.2,1.4,13.1c1.4,4.7,6.1,4.9,10.1,4.5
		c4.4-0.4,2-4.1,2.1-6.4c0.1-4.5,0.2-9-0.2-13.5c-0.8-10.4-1.9-20.8-2.9-31.3C149.9,244.5,148.1,242.2,143.2,244.1z M272.2,495.3
		c-2.9-3.8-4.9-6.4-6.9-9c-2.4-3.1-5.1-6-7.2-9.4c-2.4-3.9-12.9-6.1-15.7-2.5c-4.8,6.4-9,13.2-14.1,20.9
		C243,495.3,256.7,495.3,272.2,495.3z M233.4,37.7c-0.3,0.4-0.5,0.7-0.8,1.1c2.1,1,4.2,2.3,6.4,2.8c4.1,1.1,5.5,3.2,4.2,6.1
		c-4.4,0-8.3-0.2-12.1,0.1c-4.3,0.3-9.4-0.3-12.5,1.8c-3.2,2.3-5.7,3.3-9.4,2c-0.3,0.4-0.6,0.8-0.9,1.3c1.7,2.6,3.3,5.2,5.2,8.2
		c5.8-7.2,8.4,1.5,13.4,0.9c-1-2.1-2-3.9-3.5-6.9c3.5,2.1,5.8,3.5,8.5,5.2c0.1-2.3,0.2-3.9,0.4-6.6c4.2,1.2,8.3,3.7,12.1,3.2
		c7.4-1,5.7,4,6.6,7.7c0.4,1.6,1.2,3.2,2.3,5.8C258.7,55,249,40,233.4,37.7z M276.3,64.6c0.4,0,0.9,0.1,1.3,0.1
		c0.3-2.5,0.5-5,0.9-7.4c0.8-5.8,8.1-9.3,13.3-6.6c2.7,1.3,5.7,1.9,9.4,3.1c0,2.3,0,5.9,0,10.4c6.2-11.1,0.7-25.6-10.9-30.5
		c1,2.5,2.1,4.7,2.6,7.1c0.4,1.8-0.1,3.7-0.1,5.5c-2.1-0.5-4.3-0.9-6.3-1.6c-0.6-0.2-1-1.2-1.5-1.8c-0.5,0.2-0.8,0.3-1.1,0.5
		c-3.1,1.4-6.1,3.4-9.4,3.9c-2.9,0.4-6-1.2-9.1-1.1c-1.5,0-4.3,2.1-4.2,2.8c1,5.2,2.6,10.2,4,15.3c0.4-0.1,0.8-0.1,1.3-0.2
		c0.7-3.5,1.4-7,2.1-10.6c0.4,0,0.9,0.1,1.3,0.1c0.2,3.1,0.3,6.2,0.5,9.3c0.5,0,1,0,1.4,0c0.3-3.8,0.7-7.5,1-11.3c0.6,0,1.1,0,1.7,0
		C275.1,55.8,275.7,60.2,276.3,64.6z M207.3,116.6c0.7,0.1,1.3,0.1,2,0.2c2.5-11.6,5-23.2,7.5-34.8c-0.5-0.2-1.1-0.3-1.6-0.5
		c-1.8,5.7-3.6,11.5-5.4,17.2c-0.2-0.1-0.5-0.1-0.7-0.2c1.3-5.8,2.6-11.7,3.9-17.5c-7.4,7.2-7.2,17.3-10.6,26.7
		c0.7-4.4,1.2-8.2,1.9-11.9c0.7-3.5,1.5-6.9,2.3-10.4c-6.4,8.4-11.7,30.3-9.7,36c3.3-2.1,6.5-4.2,9.6-6.2
		C206.5,114.9,206.9,115.8,207.3,116.6z M324.6,143.5c4.5-6.6-0.7-56.9-5.6-62.4c-1,2.6-2.8,5.1-2.7,7.4c1,13.9,2.5,27.8,3.9,41.7
		c0.1,1.3,0.5,2.6,0.8,4c0.5,0,0.9-0.1,1.4-0.1c0-7.3,0-14.6,0-21.9c0.2,0,0.4,0,0.6,0C323.6,122.5,324.1,133,324.6,143.5z
		 M224.3,81.4c-8.4,8.9-14.4,28.1-10.9,34c0.7-1.7,1.3-3.2,2.1-5.1c0.1,2.1,0.2,3.7,0.3,5.8c1.7-1.2,3.1-2.6,3.5-2.4
		c4,2.5,3.6-0.9,3.9-2.9c1-6.5,1.9-13.1,2.8-19.7c0.1-1.1-0.2-2.2-0.3-3.3c-0.4,0-0.9,0-1.3,0c-0.8,3.2-1.6,6.4-2.5,9.6
		c-0.2-0.1-0.4-0.2-0.6-0.2C222.2,92.3,223.1,87.5,224.3,81.4z M304.1,20.3c5.5,3.3,10.1,7.3,15.4,8.8c5,1.3,6.4,4.3,7.3,8.1
		c1.2,5.2,1.8,10.5,2.6,15.7c0.3,1.8,0.4,3.7,0.7,6.2c5.4-6.7,3.9-19.1-2.7-29.1C322.1,22.2,312.5,18,304.1,20.3z M242.7,113.5
		c2.6,0,4.3,0,6.2,0c0.3-1.3,0.5-2.4,0.5-2.4c0.8,0.9,1.8,2,2.9,3.2c0.7-1.3,1.8-2.4,2.1-3.8c0.5-1.9,0.6-4,0.6-5.9
		c0.1-4.8,0-9.6,0-15.7c-5.1,4.5-3.7,9.6-5,14c0-3.5,0-7.1,0-10.6c-0.4-0.1-0.9-0.1-1.3-0.2c-0.8,4.3-1.6,8.6-2.3,12.2
		c-0.3-1.1-0.9-2.8-1.4-4.6c-0.6,0.1-1.1,0.1-1.7,0.2C243.1,104.3,242.9,108.8,242.7,113.5z M329.5,143.8c3.8-6.5-1.5-60.7-7.3-67.1
		C324.7,99.7,327.1,121.7,329.5,143.8z M297.5,108.8c0.2,1.7,0.1,2.3,0.4,2.8c0.7,1.1,1.6,2.1,2.4,3.2c0.7-1.2,1.9-2.3,2-3.5
		c0.1-2.3-0.4-4.6-0.6-6.9c-0.1-1.2-0.7-2.9-0.1-3.4c3.8-3.1,1-6.6,1.4-10.1c-1.3,0.5-2.2,1.2-2.8,1c-3.9-1.5-6.3-0.2-6.3,3.9
		c0,5.2,0.2,10.3,0.4,15.5c0.1,1.4,0.8,2.7,1.2,4.1c0.5-0.1,0.9-0.2,1.4-0.2C296.9,113.4,297.2,111.6,297.5,108.8z M77.2,428.2
		c5.5-8.5,4.7-10.8-3.3-13.6c-3.6-1.3-6.9-3.2-10.4-4.8c-1.5-0.7-3.1-1.2-4.7-1.8c-0.2,0.4-0.5,0.8-0.7,1.2
		C64.4,415.4,70.6,421.6,77.2,428.2z M305.9,90.3c-0.6,0.1-1.2,0.2-1.8,0.3c0.8,7.7,1.6,15.4,2.4,23.7c1.8-1.1,2.5-2,3.3-1.9
		c0.9,0,1.7,0.9,2.6,1.3c0.4-1.2,1.2-2.5,1-3.6c-0.9-6.9-1.9-13.8-3-20.7c-0.2-1.2-0.7-2.3-1.3-4c-4.5,4.4-0.3,8.8-1.6,12.7
		C307,95.5,306.4,92.9,305.9,90.3z M255.4,78.6c0.7,0.1,1.3,0.2,2,0.3c1.2-5.9,3.1-11.8,3.5-17.7c1.2-17.5-8.1-26.4-25.1-28.8
		c3.4,2.5,6.9,4.7,10.6,6.7c4.2,2.2,8.2,4.4,9.6,9.5c2.3,8.5,3,17-0.2,25.5C255.3,75.5,255.5,77.1,255.4,78.6z M152.9,101.7
		c-8,5.7-17.1,29.5-14.1,37C143.5,126.3,148.2,114,152.9,101.7z M237.2,137.1c2.2,0,4.4,0,6.6,0c0.3-1.7,0.5-3.3,0.8-5
		c0.3,0,0.5,0.1,0.8,0.1c-0.1,1.7-0.2,3.5-0.3,6.2c1.5-0.7,3.4-1.1,3.4-1.6c0.2-4.1,0.1-8.2,0.1-12.3c-0.5-0.1-0.9-0.2-1.4-0.2
		c-2.1,1.9-4.3,3.8-6.4,5.6c0-1.2,0-2.6,0-4.1C236.4,126.7,235.2,130.8,237.2,137.1z M289.2,127c0.2,0.1,0.4,0.1,0.6,0.2
		c0,1.5-0.1,3,0,4.5c0.1,1.5,0.5,3.1,0.9,5.1c3.5-4.1,5.1-11.2,2.5-13.7c-1.7-1.6-5.2-1.3-8.8-2c0.6,6.4,1,11.4,1.4,16.3
		c0.8,0,1.6,0.1,2.4,0.1C288.5,134,288.9,130.5,289.2,127z M300.1,149.6c0.5,0.1,1,0.2,1.5,0.3c0.5-1.1,1.3-2.2,1.3-3.4
		c0.3-7.4,0.5-14.9,0.5-22.3c0-1.4-1.5-2.8-2.3-4.2c-0.7,1.5-1.9,3-1.9,4.5c-0.1,7.1,0.2,14.3,0.4,21.4
		C299.6,147.2,299.9,148.4,300.1,149.6z M291.5,89.4c-0.6-0.1-1.2-0.3-1.8-0.4c-0.3,0.6-0.9,1.1-0.9,1.7c0.1,7.7,0.2,15.4,0.4,23.1
		c0,0.5,1.7,1.6,2.1,1.4c0.8-0.4,1.9-1.5,1.9-2.3C292.7,105.1,292.1,97.2,291.5,89.4z M354.6,342.1c-0.5-0.4-1.1-0.8-1.6-1.2
		c-7.3,9.2-14.5,18.3-21.8,27.5c0.4,0.4,0.9,0.7,1.3,1.1C341.8,361.9,348.5,352.3,354.6,342.1z M310.7,84.4
		c1.6,10.3,3.1,19.9,4.7,29.5c0.5-0.1,0.9-0.2,1.4-0.2C319.3,107.8,315.6,87.1,310.7,84.4z M369.5,103.4c0.4-0.2,0.8-0.3,1.2-0.5
		c-0.5-2.2-1-4.3-1.5-6.4c2-1.6,4.2-3,5.7-4.8c0.6-0.7,0-3.6-0.5-3.7c-1.9-0.5-5.1-1.1-5.9-0.2c-1.9,2.3-3.6,5.6-3.5,8.4
		C365.1,98.7,367.9,101,369.5,103.4z M312.4,117.8c-0.6,0.1-1.1,0.2-1.7,0.2c0.6,8.7,1.2,17.3,1.8,26c0.5,0,1-0.1,1.5-0.1
		C316.5,138,315.5,122.2,312.4,117.8z M269.6,124.4c-0.6,0-1.3,0.1-1.9,0.1c0,4.6,0,9.2,0,14.2c2.5-0.8,4-1.2,6.1-1.8
		c-0.3-4.4-0.6-8.7-1-13c-0.6,0-1.3,0.1-1.9,0.1c0,2.6,0,5.2,0,7.8c-0.1,0-0.2,0-0.4-0.1C270.2,129.4,269.9,126.9,269.6,124.4z
		 M349.2,75.5c3-4.4,5.9-8.7,8.9-13.2c-3.3-0.7-6.5-1.6-8.7,2.1C347,68.1,345,71.8,349.2,75.5z M318.1,115.9
		c-0.8,0.1-1.6,0.1-2.4,0.2c0.5,8.9,1,17.9,1.4,26.8c0.8,0,1.6-0.1,2.4-0.1C318.6,133.8,320.5,124.8,318.1,115.9z M272.1,96.2
		c-0.6,0.1-1.2,0.3-1.8,0.4c0,5.2-0.1,10.3,0.1,15.5c0,0.8,1.3,1.6,2,2.4c0.6-0.6,1.8-1.2,1.8-1.8c0.1-4.8,0.1-9.6-0.1-14.4
		C274,97.7,272.8,97,272.1,96.2z M339.9,32.8c-4.1,3.3-5,6.8-2.3,7.9c2.6,1.1,5.3,2,8.2,3C347.7,38.3,343.7,35.8,339.9,32.8z
		 M285.6,98.2c-0.9,0.1-1.9,0.3-2.8,0.4c0.5,5.1,0.9,10.2,1.5,15.3c0.1,0.6,1.3,1.1,2,1.7c0.5-0.7,1.6-1.5,1.6-2.2
		C287.3,108.3,286.4,103.2,285.6,98.2z M154,146.7c5.2-6.5,7.1-13.9,5-18.1C155.6,133.7,153.6,139.1,154,146.7z M259,124.8
		c-0.4-0.3-0.8-0.7-1.2-1c-0.9,1-2.6,1.9-2.7,2.9c-0.2,3.9-1.5,8.2,1.4,11.7c0.6,0,1.3,0,1.9-0.1C258.6,133.8,258.8,129.3,259,124.8
		z M237.6,141c-0.6,0.3-1.2,0.7-1.7,1c-0.3,2.8-0.8,5.6-0.7,8.3c0.1,1,1.6,2,2.5,3c0.7-1.1,1.8-2.1,2.1-3.3c0.4-1.5,0.5-3.3,0.1-4.8
		C239.5,143.6,238.4,142.4,237.6,141z M309.6,120.1c-0.8,0-1.6,0.1-2.4,0.1c0.3,6.2,0.7,12.4,1,18.6c0.8,0,1.6-0.1,2.3-0.1
		C310.2,132.5,309.9,126.3,309.6,120.1z M250.8,139.4c4.2-3.7,4.1-7.5,0-14.6C250.8,129.8,250.8,134.2,250.8,139.4z M208.3,124.4
		c-0.6,0-1.3-0.1-1.9-0.1c-4,4.5-4.2,7.8,0.6,12.2C207.5,131.8,207.9,128.1,208.3,124.4z M342.5,127.6c-0.3,0-0.6,0-0.9-0.1
		c0,6.3,0,12.6,0,18.9c0.3,0,0.6,0,0.9,0.1C342.5,140.2,342.5,133.9,342.5,127.6z M266.3,97.8c-0.7,0-1.4,0-2.2-0.1
		c-0.5,5.4-0.9,10.8-1.4,16.3c0.8,0.1,1.7,0.1,2.5,0.2C265.6,108.7,265.9,103.3,266.3,97.8z M297.6,136.9c0-5.8,0-10.4,0-15.4
		C294.3,124.6,294.1,131.1,297.6,136.9z M290.9,152.4c0.6,0,1.2-0.1,1.8-0.1c0-4.3,0-8.6,0-12.9c-0.6,0-1.2,0-1.8,0.1
		C290.9,143.7,290.9,148.1,290.9,152.4z M218.8,154.6c0-5.1,0-8.6,0-12.1c-0.6-0.1-1.3-0.3-1.9-0.4c-0.7,2.7-1.7,5.5-1.9,8.2
		C214.9,151.4,216.7,152.5,218.8,154.6z M169.4,84c3.8-1.9,6.9-3.5,10.5-5.4C174.5,75.3,170.9,77.1,169.4,84z M263.5,137.7
		c0.6,0,1.1,0,1.7,0c0-4.6,0-9.2,0-13.7c-0.6,0-1.1,0-1.7,0C263.5,128.6,263.5,133.1,263.5,137.7z M202.6,150.4c0.9,0,1.8,0,2.7,0
		c0.1-2.7,0.3-5.4,0.2-8.1c0-0.6-1.3-1.7-2-1.6c-0.7,0.1-1.7,1.2-1.7,1.9C201.9,145.2,202.3,147.8,202.6,150.4z M216.9,136
		c5-3.7,5.1-7.9,1-11.5C217.6,128.8,217.3,132.4,216.9,136z M170.4,110.1c0.4,0.3,0.8,0.6,1.2,0.9c6.3-3.8,7.8-6,6.2-10.8
		C175,103.9,172.7,107,170.4,110.1z M172.6,153.9c8.7-0.1,9.6-0.9,7.9-7C177.7,149.5,175.1,151.7,172.6,153.9z M224,156.3
		c3.9-2.3,4.8-8.4,1.5-13.5C225,147.2,224.5,151.5,224,156.3z M188.9,33.8c0.7-0.3,1.5-0.6,2.2-0.9c-0.3-3.4-0.6-6.8-4.2-8.5
		c-0.6,0.3-1.2,0.6-1.9,0.9C186.4,28.1,187.7,31,188.9,33.8z M295.2,150.1c0.8,0.1,1.6,0.1,2.4,0.2c0-3.8,0-7.6,0-11.4
		c-0.6,0-1.2,0-1.9-0.1C295.5,142.6,295.4,146.3,295.2,150.1z M150.6,186.5c3.4-2.8,2.9-8.9-1.7-13.9
		C149.6,177.8,150.1,182.1,150.6,186.5z M267.5,113c0.4,0,0.8-0.1,1.3-0.1c0-4.4,0-8.9,0-13.3c-0.4,0-0.8,0-1.3,0.1
		C267.5,104,267.5,108.5,267.5,113z M211,152.3c0.9,0,1.7,0,2.6,0.1c0-3.2,0-6.3,0-9.5c-0.6,0-1.3-0.1-1.9-0.1
		C211.4,146,211.2,149.1,211,152.3z M187.8,103.3c0.6,0.2,1.3,0.4,1.9,0.6c1.3-4.1,2.6-8.3,3.9-12.4c-0.7-0.2-1.3-0.4-2-0.6
		C190.3,95,189.1,99.2,187.8,103.3z M193.2,134.1c1,0.3,1.9,0.5,2.9,0.8c0.8-3,1.5-6,2.3-9c-0.9-0.2-1.7-0.5-2.6-0.7
		C194.9,128.1,194.1,131.1,193.2,134.1z M225.3,125.1c-0.9-0.1-1.7-0.2-2.6-0.3c-0.3,3.6-0.7,7.1-1,10.7c0.8,0.1,1.6,0.1,2.4,0.2
		C224.5,132.2,224.9,128.6,225.3,125.1z M233.2,136.5c0.6,0,1.1,0,1.7,0c0-4.1,0-8.2,0-12.7c-1.1,0.5-2.7,0.9-2.7,1.2
		C232.4,128.8,232.9,132.6,233.2,136.5z M278.6,103.3c-0.7,0.1-1.4,0.2-2.1,0.2c0.5,3.6,0.9,7.1,1.4,10.7c0.8-0.1,1.6-0.2,2.3-0.4
		C279.6,110.3,279.1,106.8,278.6,103.3z M233.5,143.4c-0.4,0-0.8,0-1.2,0c0,3.7,0,7.4,0,11.1c0.4,0,0.8,0,1.2,0
		C233.5,150.8,233.5,147.1,233.5,143.4z M207,151.3c0.8,0.1,1.6,0.1,2.3,0.2c0.2-3.3,0.4-6.6,0.6-10c-0.6,0-1.3-0.1-1.9-0.1
		C207.7,144.7,207.4,148,207,151.3z M191.7,148.6c0.7,0.2,1.4,0.4,2,0.5c0.9-2.4,3.8-4.6-0.6-8.5
		C192.6,143.9,192.2,146.3,191.7,148.6z"/>
	<path class="st0" d="M308.7,295.4c0,1.4,0,2.8,0,3.8c-3.4-3-6.9-6-10.4-9.1c-0.5,0.4-1,0.8-1.5,1.3c2.8,3.6,5.7,7.1,9.7,12.1
		c-2.7-0.3-4.5,0.1-5.4-0.6c-7.3-6.1-15.3-10.3-25-11.1c-1.2-0.1-2.3-0.7-3.4-0.6c-11.8,0.8-23.6,1.1-35.3,2.8
		c-10.4,1.5-17.5,9-23.8,17c-1.8,2.3-3.9,4.5-5.8,6.8c-0.4-0.3-0.8-0.5-1.2-0.8c0-2.1,0-4.3,0-7.7c-1.7,2.3-2.5,3.5-3.4,4.8
		c-0.4-0.1-0.9-0.1-1.3-0.2c0.7-3.9,0.8-7.9,2.1-11.5c3.5-10,7-20.1,11.5-29.8c3.3-7,7.9-13.4,12.2-19.9c2.4-3.7,5.2-7.3,8.1-10.7
		c2.5-2.8,5.1-5.6,8.1-7.8c2.9-2.1,4-4.3,3.9-7.9c-0.1-11.1,0.3-22.2,0.6-33.4c0-1.2,0.5-2.7,1.3-3.6c2.2-2.7,11.4-4.5,15-3.3
		c5.2,1.8,7.8,5.5,7.9,10.9c0.1,9.2,0.2,18.3,0,27.5c-0.1,3.6,0.8,5.8,4.4,7.3c4.7,1.9,8.6,5,10.2,10.2c0.3,1.1,1.1,2.2,1.9,2.9
		c13.2,11.5,20.2,26.4,24.3,43c1.1,4.7,3.1,9.1,4.4,13.8c0.4,1.3-0.6,3-0.9,4.5c-1.3-1-2.9-1.8-3.7-3.1c-1.4-2.5-2.3-5.3-3.4-8
		C309.4,295.1,309,295.3,308.7,295.4z M262.3,274.5c0.2,0,1.5,0.1,2.6-0.2c2.9-0.9,5.8-1.8,8.5-3.1c3.1-1.4,5.9-3.3,9-4.8
		c3.7-1.9,7.6-3.3,11.1-5.4c3-1.9,2.7-4.7,0.4-7.3c-4.1-4.7-16.1-7.4-21.3-3.9c-6.2,4.1-12.5,4-19.1,2.8c-2.9-0.5-5.8-1.6-8.7-2.3
		c-9.5-2.5-12.6-1-17.4,7.7c-1.9,3.4-1,4.8,2.6,5.4c4,0.7,8.5,0.4,10,5.6c0.2,0.7,2,1.1,3.1,1.3c3.8,0.5,7.6,0.6,11.4,1.3
		C257,271.9,259.3,273.3,262.3,274.5z"/>
	<path class="st0" d="M251.9,363.6c-0.1,1.5-0.3,2.9-0.5,5c-3.9-2.9-7.6-3.5-12.1-2.2c-2.8,0.9-6.2,0.1-9.3,0c-0.3,0-0.6-0.1-0.9,0
		c-7.9,3-11.2,0.9-16.2-5.7c-3.4-4.5-3.6-6.7,0.6-10c0.5-0.4-0.2-3-0.8-4.3c-1.4-2.7-3.3-5.2-4.5-8.3c8.1,8.5,18,6.9,27.9,6.3
		c19.4-1.3,38.9-2.1,58.3-3.2c4.8-0.3,9.5-1.3,15.1-0.9c-3.5,3.7-7,7.3-11.8,12.2c5.3,0.3,9.2,0.3,13,0.8c1.5,0.2,3.7,1.6,3.9,2.7
		c0.4,2.2,0.2,4.9-0.8,6.9c-0.5,1-3.4,0.7-5.3,0.4c-1.7,0.5,0.6,8.1-5.1,2.4c-0.2-0.2-1.1,0.4-1.6,0.6c-5.3,1.7-10.6,1.9-16.2,0.6
		c-2.1-0.5-4.8,2.2-7.7,0.7c-3-1.6-6.1-2.9-9.1-4.2c-1.9,1.1-3.9,2.3-5.9,3.5c-0.7-1.1-1.2-2.1-2.1-3.6c-0.8,1.2-1.3,2.1-2,3.2
		c-0.5-1.4-0.9-2.5-1.7-4.6c-0.8,2.5-1.3,3.9-2,5.9c-0.9-1.8-1.6-3.3-2.3-4.7C252.5,363.3,252.2,363.5,251.9,363.6z"/>
	<path class="st0" d="M209.9,321.5c5.9-4.9,11.1-9.3,16.4-13.5c6.1-4.8,13.3-5.7,20.7-6.1c10.4-0.6,20.9-5.1,31.1-1.4
		c9.5,3.4,18.4,8.3,27.3,13.2c4.2,2.4,3.4,8.5-1.5,10.4c-4.6,1.8-9.6,2.7-14.5,3.4c-11.2,1.4-22.5,3.3-33.7,3.4
		c-11.1,0.2-22.2-1-33.2-2.6C218.2,327.5,214.3,323.9,209.9,321.5z M299.3,314.9c-1.4-2.1-1.7-2.8-2.2-3.3c-9-8.2-20.1-7.5-31.1-7
		c-0.2,0-0.3,0.1-0.5,0.1c-2.3,0.2-4.5,0.4-6.8,0.5c-7.3,0.2-15-0.9-21.9,1c-6.3,1.8-11.7,6.9-17.5,10.6c0.2,0.6,0.4,1.2,0.7,1.8
		C245.8,311.7,271.9,311.8,299.3,314.9z M295.8,323.5c-20-3-35.4-2.2-39.5,2.4C270.1,326.8,283,326.2,295.8,323.5z M254.6,325.4
		c0-0.7,0-1.3,0-2c-7.4-2.7-14.6-1.4-21.8,0.7c0,0.4,0,0.9,0,1.3C240,325.4,247.3,325.4,254.6,325.4z"/>
	<path class="st0" d="M292.8,202.2c7.3,0.8,14.5,1.7,21.4,2.4c0-3-0.2-5.1,0.2-7.2c0-0.3,3-0.8,3.5-0.3c1.7,2.1,2.9,4.5,4.8,7.7
		c-8.9,0-16.4-0.3-23.9,0.1c-5.8,0.3-7.9-4.6-11.8-7c-0.4-0.3-0.1-2.2,0.3-3.2c7-19.3,31.1-26.4,47.4-13.7c4.5,3.5,10.3,6.6,9.5,14
		c-0.1,0.7,1.2,1.8,2,2.2c1.6,0.7,3.4,0.9,4.9,1.9c-5.7,2.6-9.3,2.1-11-2.3c-3.4-8.8-10-12.4-18.8-13.2c-9.5-0.8-17.2,3.1-23.7,9.6
		c-2.1,2.1-3.6,4.7-5.4,7C292.4,200.9,292.6,201.5,292.8,202.2z"/>
	<path class="st0" d="M200.8,208.9c-5.5,1.5-10.7,2.9-15.9,4.4c-0.3-0.9-0.6-1.8-0.8-2.6c2.3-0.8,4.7-2.1,7-2.2
		c3.5-0.1,4.4-1.8,5-4.7c1-4.8,4.1-7.9,8.9-9c4.8-1,9.4,0.2,12,4.1c3.2,4.9,6.2,9.2,12.5,9.9c-7.7-0.5-15.4-1-24-1.6
		c0.4-1.6,0.8-3.5,1.2-5.3c1.8,0.5,3.6,0.9,5.3,1.5c1.3,0.4,2.5,1,3.8,1.4c0.1,0,1-1.6,0.8-2c-1-1.4-2-3.3-3.5-3.8
		C207,196.8,200.8,201.7,200.8,208.9z"/>
	<path class="st0" d="M387.6,240.5c9,3.6,10.2,18.3,3.8,24.5c-1.3,1.3-4.4,0.7-6.7,0.9c-0.1-2-0.9-4.3-0.2-5.8
		C387.6,254,391.5,248.2,387.6,240.5z"/>
	<path class="st0" d="M340.7,281.9c-0.5-0.9-1.1-1.9-2.1-3.6c-0.5,1.9-0.7,2.9-1.1,4.3c-1.2-2.7-2.2-5-3.9-9.1c-0.7,2-1,2.9-1.4,4
		c-2-3.4-3.7-6-0.8-9.1c0.5-0.6-0.2-3.4-1.1-4c-3.9-2.4-3.2-4.8-0.6-8c4.3,8.5,8.4,16.6,12.5,24.8
		C341.8,281.5,341.2,281.7,340.7,281.9z"/>
	<path class="st0" d="M326.6,199.6c-0.5-0.9-0.9-2.1-1.6-2.8c-2-1.7-4-4.3-6.3-4.7c-3.5-0.5-6.9,1.2-8.3,5c-0.3,0.8-0.4,1.8-0.9,2.3
		c-0.8,0.8-2,1.2-3,1.8c-0.5-1.1-1.5-2.2-1.4-3.2c0.6-5.5,6.2-10.1,11.5-9.7C322.3,188.6,327,193.5,326.6,199.6z"/>
	<path class="st0" d="M285.8,168.1c-2.8,5-5.7,10-8.9,15.8C273.9,176.6,277.2,170.5,285.8,168.1z"/>
	<path class="st0" d="M203,268c-1.7,4.1-3.5,8.1-5.2,12.2c-0.8-0.3-1.5-0.7-2.3-1c1.9-4,3.8-7.9,5.7-11.9
		C201.8,267.5,202.4,267.8,203,268z"/>
	<path class="st0" d="M203,268c-0.6-0.2-1.2-0.5-1.8-0.7c1.9-4.1,3.7-8.3,5.6-12.4c0.7,0.3,1.4,0.6,2.1,0.9
		C206.9,259.9,205,264,203,268z"/>
	<path class="st0" d="M242.3,215c-2.5,4.1-4.9,8.3-7.4,12.4c-0.5-0.3-1-0.6-1.5-0.8c2.5-4.2,5-8.4,7.5-12.6
		C241.4,214.3,241.9,214.6,242.3,215z"/>
	<path class="st0" d="M193.2,296.5c2.4-5.7,4.8-11.5,7.2-17.2c0.3,0.1,0.5,0.2,0.8,0.3c-2.3,5.8-4.7,11.5-7,17.3
		C193.9,296.8,193.5,296.7,193.2,296.5z"/>
	<path class="st0" d="M300.6,408.6c0.8,8.9,3.3,18.2-5.8,24.9C290.1,423.5,297.8,416.6,300.6,408.6z"/>
	<path class="st0" d="M267.7,261.6c4.4-4.5,8.6-6.6,13.3-7.2c1.5-0.2,3.2,1.8,4.7,2.8c-1.2,1.1-2.3,2.8-3.7,3.2
		C277.8,261.5,273.5,263.4,267.7,261.6z"/>
	<path class="st0" d="M253.3,262c-5.9-0.9-11.9-1.6-17.8-2.7c-1.1-0.2-1.9-1.8-2.9-2.8c1.2-0.8,2.3-2.1,3.5-2.2
		C243,254,248.1,258.2,253.3,262z"/>
</g>
</svg>
