<?xml version="1.0" encoding="utf-8"?>
<!-- Generator: Adobe Illustrator 24.0.0, SVG Export Plug-In . SVG Version: 6.00 Build 0)  -->
<svg version="1.1" id="Layer_1" xmlns="http://www.w3.org/2000/svg" xmlns:xlink="http://www.w3.org/1999/xlink" x="0px" y="0px"
	 viewBox="0 0 500 500" style="enable-background:new 0 0 500 500;" xml:space="preserve">
<style type="text/css">
	.st0{fill:#E3212A;}
</style>
<g>
	<path class="st0" d="M373.2,181.6c-1.9-5-3.4-9.2-5-13.4c-0.2-0.4-0.7-0.9-1.1-0.9c-5.7-0.1-5.9-4.7-6.3-8.4
		c-0.6-4.9-0.4-10,4-13.2c4.5-3.3,5.4-7.3,4.7-12.4c-1.2-7.9-2.3-15.8-3.1-23.8c-0.3-2.5,0.7-5.2,0.8-7.7c0.1-3.3-0.2-6.6-0.4-10.6
		c-3,2.3-5.4,4.2-7.9,6c-2.1,1.5-4.2,3.4-7.2,1.1c-0.6-0.5-2.4-0.2-3.1,0.4c-2,1.7-3.7,3.2-6.5,1.7c-0.4-0.2-1.5,1.3-2.4,1.7
		c-1.9,0.8-4,1.9-6,2c-1.2,0.1-2.5-1.3-2.9-1.6c-7.4-0.8-14.2-1.3-20.8-2.4c-8.9-1.6-17.8-3.1-26.4,1.2c-0.8,0.4-1.8,0.1-2.9,0.2
		c2-6.8,18.2-10.6,24.4-7.7c2.6,1.2,5.7,2.1,8.5,2c8-0.1,16-0.5,23.9-1.1c2.8-0.2,5.6-1.6,8.3-2.4c-0.1-0.7-0.3-1.4-0.4-2.1
		c-6.8,0.8-13.7,1.7-20.5,2.5c-0.1-0.6-0.2-1.2-0.3-1.9c8.5-3.2,17-6.3,25.6-9.5c-0.1-0.4-0.3-0.9-0.4-1.3c-2,0.4-4,0.8-6,1.2
		c-6.7,1.4-13.3,2.8-20,4.1c-2.7,0.5-5.5,1.5-7.6-1.7c-0.3-0.5-2.6,0.3-4,0.4c-1,0.1-2,0.2-3.1-0.4c5.8-5.1,13-5.4,20-6.1
		c6.8-0.7,13.6-1.2,20.4-2.6c-5.3-1.5-10.6-3.1-15.9-4.6c0.2-0.7,0.4-1.4,0.6-2.1c6.5,1,13,1.8,19.4,3.1c5.4,1.1,11.1,2.1,16,4.5
		c3.6,1.7,6.1,5.6,9.1,8.6c1.6,1.6,3.2,3.4,4.8,5c6.4,6.2,11.4,12.7,13.8,21.9c2.3,8.7,7.7,16.6,11.8,24.9c0.6-0.2,1.1-0.4,1.7-0.7
		c-0.8-3.5-1.8-6.9-2.5-10.4c-2.2-11.4-4.3-22.9-6.6-34.3c-1.3-6.5-2.7-13-4.6-19.3c-0.5-1.8-2.9-3.7-4.8-4.3
		c-11.9-3.8-23.9-7.1-35.8-10.8c-1.7-0.5-4.4-2.7-4.3-3.9c0.3-5-3.2-6.2-6.5-7.3c-3.1-1.1-4.7-2.8-3.7-5.9c1.2-3.5,5.2-5.1,8.1-3.3
		c11.7,7.2,23.4,14.4,35.1,21.6c0.7,0.4,1.4,0.9,2.2,1.1c8.2,1.4,13.7,6.5,16.3,13.9c4.6,13,8.4,26.3,12.5,39.4
		c3.1,9.8,6.1,19.7,9,29.6c0.5,1.6,0.8,3.2,0.9,4.9c1.4,28.4,2.5,56.9,4.3,85.3c0.4,6.7,2.1,13.5,4.6,19.7
		c3.4,8.6,4.3,17.1,1.9,25.9c-3.9,14-2.4,28-0.7,42.1c0.8,6.4-0.6,13-1.3,19.5c-0.1,0.6-2.1,1.1-4.5,2.1c0.6,1.4,1.5,3.6,2.7,6.6
		c-1,0.2-2.9,0.6-4.9,1c-0.4-3.8-0.8-7.6-1.2-11.4c0.3-0.1,0.7-0.3,1-0.4c-1.4,1.8-2.8,3.5-4.2,5.3c-0.6-0.1-1.2-0.1-1.9-0.2
		c-0.3-3.2-1.3-6.6-0.7-9.7c1.4-8.1,3.6-16.1,5.4-24.2c0.4-1.9,0.6-4,0.5-5.9c-2-33.1-3.6-66.2-6.4-99.2
		c-1.2-14.9-4.9-29.5-7.1-44.3c-0.8-5.4-0.9-10.8-1.4-17.6c-3,4.7-3.9,7.8-2.6,12.3c2,6.8,2.9,14,3.4,21.1c1,14.3,1.2,28.6,2.2,42.8
		c0.7,9.3,0.5,19.2,3.8,27.6c2.8,7,2.6,13.8,3.7,20.6c1.7,10.2-0.6,19.9-5.9,28.8c-0.2,0.4-0.6,0.8-1,1.1c-0.2,0.2-0.6,0.2-1.6,0.6
		c-0.4-1.7-0.7-3.3-1.1-5c-1-4.3-1.5-8.9-3.3-12.9c-3.2-7.2-7.4-13.9-7.1-22.3c0-1.2-1.4-2.5-2.4-4c0.5-1.7,1.2-4,1.9-6.4
		c-0.7-0.2-1.3-0.4-2-0.6c-4,6.2-6.9,12.7-5.7,20.6c2.1,14.5,4.1,29,6.3,43.5c1.4,9.7,2.8,19.4,4.7,29c0.4,1.9,2.7,3.3,5.1,6.1
		c-0.2,4-7.4,7.8-4.6,14.3c1-3,2.1-6.2,3.3-9.3c0.7,0.2,1.3,0.4,2,0.6c-0.7,4-0.5,8.5-2.4,11.8c-3.3,5.6-2.7,11.5-3.3,17.4
		c-0.9,8.9-1.8,17.8-2.1,26.8c-0.3,6.3,0.5,12.5,0.6,18.8c0,2.1-0.4,4.2-0.7,6.6c-2-0.2-3.7-0.4-6.4-0.7c6.4-8.8,2.5-18.5,2.3-27.8
		c0,4.6,0,9.2,0,13.7c-0.6,0-1.2,0-1.8,0c-5-11.3,0-23.1-0.6-34.6c-0.4,0.2-0.8,0.3-1.2,0.5c-0.9-1.6-2.2-3.1-2.6-4.8
		c-0.7-3.1-0.7-6.3-1.2-9.4c-1.4-8.3,3.1-15.3,4.7-22.9c0.7-3.5,0.5-7.4-0.2-11c-1.1-5.9-3-11.7-4.6-17.4c-0.6-1.9-1.4-3.8-2.4-5.4
		c-2.6-4.1-6-7.8-8-12.1c-1.9-4.1-2.4-8.7-3.4-12.8c-3.1,10.6-1,25.8,5,35c2.4,3.7,0.7,11.3-2.7,14.1c-4.9,4.1-8.7,8.5-10.4,15.6
		c-1.5,6.5-0.4,10.5,3.9,14.7c-11.3-6.3-16.8-19.9-9.9-25.9c0.3,5,0.7,9.7,1,14.4c0.6,0,1.2,0,1.8,0c0.3-1.5,0.5-3,0.8-4.5
		c1-7.7,4.3-14.2,9.8-19.7c2.7-2.7,4.1-5.6,0.8-9.5c-2.6-3-4.2-7-6.3-10.7c-0.5,6.5-0.5,12.8-1.5,18.9c-0.5,2.7-3.1,5-4.6,7.3
		c0.7-5.9,1.3-11.7,2-17.5c-0.7-0.2-1.4-0.4-2.1-0.7c-1.1,1.4-2.2,2.8-3.2,4.1c1.8,1,3.3,1.8,5.3,2.9c-3.3,1.4-5.3,2.3-7.4,3.2
		c0.2,0.6,0.4,1.1,0.6,1.7c1.2-0.3,2.5-0.7,3.7-1c0.4,0.2,0.8,0.4,1.2,0.6c-8.8,8-11.9,17.4-7.3,28.7c-1.9,0-3.2,0-5.2,0
		c-1.2-6.2-2.5-12.6-3.8-19.3c-1.9,7.6-3.8,15.1-5.7,22.6c-0.7-0.1-1.4-0.1-2.1-0.2c-1.8-5.4-3.5-10.8-5.3-16.2
		c-5.2,5.6-4.4,22.9,2.2,31.5c4,5.2,10,8.1,17.7,12.3c0.1,4.8,0.7,12,0.1,19.1c-0.2,2.4-2.8,4.9-4.7,6.9c-3.1,3.1-7,5.5-9.7,8.9
		c-6.2,7.8-12.7,10.2-20.3,6.4c-1.6-0.8-2.8-2.6-4.2-3.9c1.3-1.2,2.6-2.4,3.9-3.5c0.6-0.5,1.5-0.8,2.2-1.1c4.2-2,5.5-5,3.4-9.4
		c-0.5-1-0.7-2.1-1.3-3.6c2.1-0.2,3.8-0.3,6.8-0.5c-0.8-3-0.9-6.1-2.4-8.3c-2.9-4.2-6.4-8-10-11.7c-3.5-3.7-7.4-7.1-11.4-10.9
		c-2.4,4.9-4,10.2-1.8,15.8c2.5,6.5,2.7,12.7-1.5,18.4c-0.7,0.9-2.3,1.2-3.7,1.4c-3,1.1-6.1,2.2-9.1,3.5c-2.4,1-4.1,2.3-5.9,5
		c-2.9,4.4-8.1,7.2-12.4,10.7c-0.5-0.2-1-0.5-1.4-0.7c0.9-2.8,1.7-5.6,2.6-8.4c1.5-4.7,3.3-9.4,4.4-14.2c0.8-3.5,0.9-7.2,0.9-10.8
		c0-3.9,0.2-8.1-1.1-11.6c-1-3-3.7-4.5-8-5c-4.6-0.5-11.9,0.7-13.6-7.7c-0.5-2.5-5.3-4.2-8.1-6.2c-0.7-0.5-1.5-0.7-2-1.3
		c-1.1-1.3-2-2.8-3.5-5c0.9-0.5,2.9-1.7,4.9-2.8c-0.4-0.4-0.8-0.8-1.2-1.2c-2.9,0.7-5.8,1.4-8.7,2.1c-0.1-0.5-0.3-1-0.4-1.5
		c2-1,4-1.9,6.5-3.1c-1.8-0.8-3.6-1.1-3.7-1.7c-0.3-1.5,0.3-3.1,0.5-4.6c6.4,1.1,12.2,2.2,18.1,3c2.4,0.3,5,0.2,7.4-0.4
		c10.5-2.8,20.5-6,29.7-13c25-18.9,44.7-42.1,59.2-69.6c5.1-9.7,9.5-19.9,8.5-31.7c-0.5-5.5,0.9-10.6,6.3-14.8
		c4-3.1,6.6-8.5,5.5-14.7c-1.5-7.9-4.6-14.9-9.6-21.2c-2.6-3.2-6.2-3.5-9.5-1.2c-1.7,1.2-3.6,2-5.6,3.1c1.3,0.7,2.8,1.4,4.3,2.1
		c0,0.4,0,0.8,0,1.2c-2,0.5-4.3,1.9-5.8,1.3c-6.2-2.5-7.1,1.6-8.1,5.8c-0.1,0.5-0.4,0.9-0.7,1.3c-0.5,0.1-1,0.1-1.4,0.2
		c-0.1-1.8-0.8-4-0.1-5.4c1.4-2.6,3.7-4.6,5.5-7c3-4.2,5.8-8.7,9-12.8c0.9-1.2,3.7-2.4,4.5-1.8C364,174.5,368.1,177.8,373.2,181.6z
		 M336.7,382.9c-1.4-2.9-2.3-5.6-3.9-7.7c-5.3-7-10.3-13.9-7.2-23.5c0.4-1.2,0.5-2.7,0.2-3.9c-0.3-1.1-1.9-2.9-2.2-2.7
		c-2.2,1-4.8,2-6.1,3.9c-1.1,1.5-3.5,4.4,0.4,6.2c0.6,0.3,1.1,1.2,1.3,2c2.3,6.6,4.5,13.2,6.8,19.8c0.3,0.8,1.1,1.5,1.4,2.4
		c0.5,1.4,0.9,2.8,1.3,4.2c-0.4,0.1-0.8,0.2-1.3,0.3c-2-1.4-4-2.8-5.9-4.2c-0.4,0.5-0.7,1-1.1,1.5c8.7,8,17.7,15.6,29.5,22
		c-0.2-3.1,0.2-5.1-0.6-6.1c-3.7-4.9-7.7-9.6-11.6-14.2C337.5,382.5,336.2,383,336.7,382.9z M379.7,98.1c-0.7,0.4-1.5,0.8-2.2,1.2
		c1.7,3.3,3.1,6.9,5.3,9.9c2.7,3.8,4.9,7,3.7,12.3c-0.8,3.7,1,8,1.6,12.1c0.5-0.4,1-0.8,1.5-1.3c2.4,0.8,5.4,0.9,6.9,2.4
		c1.4,1.4,1.1,4.4,1.5,6.7c-0.7,0.3-1.5,0.7-2.2,1c-0.8-1.7-1.6-3.3-2.5-5c0.3,8.9,6.2,12,12.3,7.2c0.4,1.5,0.7,2.9,1,4.2
		c-0.3-3-1-5.8-2.5-8.2c-4.2-6.6-8.9-12.8-13-19.4c-3.2-5.3-5.6-11.1-8.3-16.7C381.8,102.5,380.8,100.3,379.7,98.1z M386.4,228
		c-1.9,9.9-3.7,19.8-5.6,29.7C387.5,248.7,387.3,238.4,386.4,228z M318.4,378.7c0.6-0.3,1.3-0.7,1.9-1c-3.2-5.4-6.4-10.7-9.6-16.1
		C309.2,369.5,314.3,373.8,318.4,378.7z M434.1,260.4c-0.7,0.1-1.3,0.1-2,0.2c0.4,4.5,0.8,9.1,1.2,13.6
		C433.8,269.6,436.6,264.8,434.1,260.4z M349.3,405.8c-7.5,1.1-7.5,1.1-5.4,4.1C345.7,408.5,347.5,407.2,349.3,405.8z"/>
	<path class="st0" d="M83.5,344.5c1.7-12.4,12.5-17.9,17.1-27.2c-0.4-0.3-0.7-0.6-1.1-0.9c-4,4.5-8,9-12.5,14.1
		c-0.2-6.4-2.5-12.5,1.9-18.3c0.7-0.9,0.8-3.5,0.6-3.6c-4.2-1.6-1.4-4.4-0.7-6c3.6-8.4,7.7-16.6,11.4-24.9c1.6-3.6,2.8-7.5,4.3-11.2
		c2-5.2,3.2-10.5,0.9-16c-0.3-0.8,0-1.8,0-3.9c1.4,2.1,2.3,3.3,2.5,3.7c1.1-4.4,2.2-9.1,3.4-13.8c0.5,0,0.9,0.1,1.4,0.1
		c0.3,1,0.7,1.9,1,2.9c0.4,0,0.9,0,1.3,0c0-3.1,0.1-6.3,0-9.4c-0.1-2-0.4-4-0.6-6c-0.5-6.3-0.4-12.7-1.7-18.8
		c-3.1-14.7-1.7-28.7,5-42.2c0.2-0.4,0.2-1,0.4-1.6c-0.9,0.1-1.6,0.1-3.3,0.2c1.3-2.6,2-4.8,3.3-6.6c3.9-5.5,7.6-11.3,12.2-16.3
		c6.9-7.5,11.8-15.8,14.8-25.4c2.2-6.8,5.8-12.6,10.8-17.7c5.1-5.1,9.8-10.8,14.3-16.6c-10.8,8.4-22.4,16-28.9,28.7
		c-2.3,4.4-4.5,8.9-7.2,13.2c-3.3,5.3-7.2,10.1-10.6,15.4c-4.3,6.6-8.2,13.4-12.3,20.2c-4.4,7.1-4.3,15.2-5,23.1
		c-0.3,3.8-0.8,7.5-1.2,11.3c-5.5-0.2-6.2-1-4.9-5.1c-3.8,4.5-6.4,9.5-6.8,15.5c-0.2,2.3-0.4,4.6-0.3,6.9c0.2,4.7-0.3,9.7,1.2,14
		c2.1,6,1.4,14.2-2.8,19.1c-1.6,1.9-2.8,4.5-3.6,6.9c-4.3,13-8.2,26.2-8.4,40.1c-0.1,8.3,0,16.5,0,25.2c-0.8-1.2-1.6-2.3-2.3-3.3
		c-0.7,0.8-1.6,1.8-3.1,3.5c-0.2,3.9-0.6,9.2-1,15.9c-1.2-2.5-1.8-3.8-2.4-5c-0.2,0-0.5,0-0.7,0c0.4,4.5,0.8,9.1,1.2,13.6
		c-0.8,0.1-1.6,0.2-2.4,0.4c-1-4.7-3.9-9.9-2.8-14c6-22.2,9.8-44.8,13.4-67.5c1.8-11.3,4.8-22.6,4.9-34c0.1-8.6,1.1-16.8,3.5-24.9
		c0.9-3.1,2.6-6,3.3-9.3c0.6-2.3,1.3-4.5,1.8-6.8c1.8-7.9,3.6-15.9,5.3-23.9c1.6-7.7,6.1-13.5,11.3-19c2.1-2.3,4.5-4.6,1.9-8.2
		c-0.7-0.9-0.1-2.9,0.3-4.3c2.3-8.8,7-16.3,12.6-23.3c8.6-10.8,17.4-21.4,26.3-32c7.4-8.7,13.5-18.9,24.6-23.9
		c5-2.2,10-4.5,14.8-7.1c6.4-3.4,13-6.7,18.9-10.9c8.8-6.4,17.9-9.8,28.9-7.9c8.5,1.5,17.1,2.8,25.7,3.7c5.4,0.5,10.9,0,16.4-0.1
		c4.6-0.1,9.3-0.7,13.9-0.6c2.3,0.1,5.7-0.4,5.5,4c0,0.7,2.5,1.5,3.8,3.6c-6.5-0.6-13.1-1.2-19.9-1.9c-0.4,4.1-2.7,5.5-6.3,7
		c-8.7,3.6-16.7,9.4-25.6,12.2c-8.9,2.8-18.5,2.9-27.9,4.1c-0.9,0.1-2-0.9-4.2-1.9c9.5-8.2,21.6-5.7,31.4-9.8
		c-0.1-0.4-0.2-0.8-0.2-1.3c-3.5,0.3-7.1,0.6-10.7,1c-3-4.1-10.4-4.6-15-0.8c-3.9,3.2-3.9,3.2-6.5-1.6c-2.5,1.2-5,2.3-7.4,3.6
		c-0.9,0.5-2.3,2-2.1,2.5c1.8,4.9-2.9,6.4-4.6,9.4c-2.6,4.4-5.4,8.7-7.6,13.3c-1.9,4-5.2,6-8.8,8.1c-3.3,1.9-5.8,5.3-8.8,7.9
		c-2.6,2.2-5.1,5.4-8.1,5.9c-5.4,0.8-7.5,3.8-8.7,8.4c-0.3,1-1,1.9-1.5,2.6c1.9-0.6,3.8-1.8,5.6-1.7c0.8,0.1,1.5,2.7,2.1,4.1
		c17.2-6.6,33.1-17.8,52.2-20.9c0.3,0.6,0.7,1.3,1,1.9c-3.1,1.9-5.9,4.1-9.2,5.6c-11.5,5.1-23.6,9.2-34.7,15.2
		c-4.4,2.4-6.7,8.9-9.9,13.5c0.6,0.5,1.2,1,1.7,1.5c1.2-1.1,2.4-2.2,3.6-3.3c5-4.6,9.9-9.3,15.1-13.8c1.9-1.6,4.2-2.9,6.5-3.6
		c1.6-0.5,3.6,0.2,5.4,0.4c-0.9,1.7-1.5,3.7-2.8,5.1c-2.1,2.3-4.6,4.2-6.7,6.9c7.5-2.2,14.6-5.8,23,0.7c-6.6,1.5-13.5-3.6-17.7,3.5
		c2.9-0.2,5.6-0.4,9.3-0.7c-3.6,5.5-6.4,9.7-9.5,14.5c4-1.7,7.6-3.2,11.2-4.8c0.3,0.5,0.5,1,0.8,1.4c-2.1,1.9-4.4,3.6-6.4,5.6
		c-0.9,0.9-1.4,2.1-2.1,3.2c1.3-0.1,2.6-0.2,3.9-0.3c0.9-0.1,1.9-0.3,3.5-0.7c-6.3,6.8-12.1,13.1-18.2,19.7
		c-0.5-1.1-0.9-2.1-1.5-3.4c-3.8,4.4-7.5,8.6-11.2,12.8c6.8-1.2,13.3-2.5,16.4-9.8c1.5-3.6,4-6.9,6.4-10.1c1.1-1.4,2.9-2.3,4.4-3.4
		c0.4,0.3,0.8,0.7,1.2,1c-2.1,3.1-4.8,6-6.3,9.4c-3.5,8.3-6.8,16.8-9.3,25.4c-1.2,4.4-1.1,9,1.5,14c1.8,3.3-0.1,9.8-2.3,13.8
		c-3.5,6.3-8.6,11.7-13,17.5c0.2-1.2,0.1-3,0.7-4.6c1.4-3.7,3.2-7.3,4.6-11.1c1.9-5.1,2.7-10-0.2-15.3c-1.6-3-1.1-7.2-2-10.7
		c-0.4-1.6-1.8-3-2.7-4.5c-1.5,1.2-3.1,2.3-4.5,3.6c-0.5,0.5-0.8,1.3-1.8,3.1c-0.8-2.5-1.3-3.9-1.7-5.3c-6.3,4.3-5.6,10.2,2.3,19.5
		c-5,0.5-11.3-2.4-12.3-7.2c-1.1-4.9-0.2-10.3-0.2-16.2c-2,1.8-3.8,3.5-5.9,5.6c-0.3-1.2-0.6-2.3-1-3.6c-5.5,3.8-7.9,12.4-5.1,20.3
		c1.3,3.9,3.6,7.5,5.9,10.9c3,4.5,6.7,8.6,9.8,13.2c2.3,3.4,4.6,5.7,8.9,3.1c0.6-0.4,1.7,0.1,2.8,0.2c-2.6,5.3-6,6.2-13.8,3.5
		c-0.3,6-0.1,12-0.9,17.8c-1.7,13-4.7,25.9-5.7,39c-1.2,16.2-1.2,32.6-1.2,48.9c0,16.3,1.2,32.7-3.2,48.6c-2.5,8.8-7.4,16.7-17.7,19
		c-1.5,0.3-2.7,1.9-4.2,2.4c-2.7,1-5.5,2.4-8.3,2.4c-2.6,0-4.3-1.7-3.8-5.1c1-6.6-0.6-8.4-6.8-9c-1-0.1-2.4,0.1-2.9,0.8
		c-3.1,3.8-5.9,7.8-8.9,11.7c-1.4,1.8-3,3.3-4.5,5c-0.4-0.2-0.7-0.4-1.1-0.6c1-3.2,2-6.3,3.1-9.5c-5.2,6.9-6.6,14.1-2.4,22.5
		c-0.9,0.2-1.8,0.3-2.7,0.5c1.8,4.4,3.6,8.8,5.3,13.2c2.1,5.4-0.3,12.9-5.5,15.4c-6.1,2.9-11.1,6.2-9.8,14.5
		c-4.6-3.4-4.6-5.2-0.6-10.5c-1.1-0.2-2-0.4-4.1-0.8c2.7-1.6,4.2-2.9,6-3.5c7.2-2.5,9.6-8.5,10.7-15c0.3-2-1.1-4.7-2.4-6.6
		c-2.5-3.8-5.4-7.5-8.4-11c-1-1.2-2.8-1.8-5-3.2c1.2,5.1,2.1,9,3.1,12.9c-8.1-7.7-11.2-17-10.4-27.7c1-13.3,7.5-22.8,19.1-29
		c3.7-2,7.3-3.9,11-5.9c6.5-3.5,11.4-8.5,14.9-15c2.3-4.2,5-8.1,7.8-12.8c-4.3,3.2-7.1,6.2-9.2,11c-3.5,8.1-10.8,13.6-19.5,16
		c-9.3,2.6-18.6,4.9-26.5,11c-2.9,2.3-5.5,0.5-5.4-3.2c0-0.8,0.1-1.7,0.5-2.4c4.1-9.6,11.1-16.3,20.7-20.2c2.5-1,5-0.9,5.4,2.8
		c-6.4,0.7-9.1,5.7-12.6,9.7c0.2,0.5,0.4,1,0.6,1.5c7.2-2.6,14.7-4.6,21.6-8c4.1-2.1,7.3-6.1,10.6-9.5c0.9-0.9,0.6-2.9,0.8-4.4
		c-0.5,0-1-0.1-1.4-0.1c-0.1,0.8,0,1.8-0.4,2.5c-1.4,2.4-0.9,6.1-6.1,5.7c-2.9-0.2-6.1,3.5-9.2,5.5c-1.9-5.7,1.6-8.4,5.6-10.1
		c5-2,8.5-5.3,11.3-9.7c1.2-1.9,3-3.6,4.8-5c2.8-2.2,4-1,3.9,1.3c2.6-1.9,5.7-4,8.7-6.3c0.7-0.5,1.2-1.7,1.2-2.5
		c0.2-4.2,2.5-5.4,6.2-4.8c5.7-7.8,3.6-16.2,1.3-24.6c-0.3,4.8-0.7,9.6-0.9,14.4c-0.1,2.1-5.8,6.6-7.4,5.6c-0.7-0.5-1.1-1.9-1-2.9
		c0.4-3.8,1-7.6,1.5-11.4c-0.6-0.1-1.2-0.1-1.7-0.2c-0.4,3-1,5.9-1.1,8.9c-0.1,4.1-0.9,7.6-6,9.2c-0.8-5.1-1.6-10.1-2.1-13.9
		c-2.6-1.2-4.3-2-5.8-2.6c-1,5.8-2.1,11.8-3.2,18c1.2-0.6,2.7-1.3,5-2.5c-0.5,1.8-0.8,2.8-1.2,4.2c5.1,2.1,8.7-1.3,12.7-4.1
		c0.3,4.5-2.6,6.2-5.5,7.8c-4.1,2.2-7.8,4.1-10.7,8.6C100.1,337.2,92.3,341,83.5,344.5z M127.9,233.9c2.2-1.3,4.3-2.5,6.7-3.9
		c0.7,0.9,1.4,1.7,2.1,2.6c0.5-0.1,1-0.2,1.5-0.3c-0.2-4.3-0.1-8.7-0.7-13c-0.5-3.3-2.2-6.4-2.9-9.7c-0.9-4-1.4-8.1-1.8-12.2
		c-0.3-3.3-0.9-6.8,0-9.8c2.1-6.5,5-12.6,7.6-18.9c0.4-0.9,0.5-1.9,0.8-3c-1,0.2-1.7,0.4-3,0.7c1.6-2.9,1.1-6.9,5.8-6.6
		c0.8-6.3,8.1-11,14.3-9.1c0.7,0.2,1.7,0.6,1.9,1.2c1.3,3.1,2.3,6.3,3.7,10.1c-5.8,2.5-14.5,0.6-19.4,8.6c5.7-1,10.4-2.3,15-2.6
		c7.3-0.4,13.8-1.5,16.4-9.8c0.5-1.7,1.8-3.1,2.8-4.7c-1-0.3-1.9-0.6-3.2-1c3.4-6.1,6.6-11.7,9.8-17.3c-0.4-0.2-0.8-0.4-1.2-0.6
		c-1.3,1.9-2.5,3.7-3.9,5.8c-1.6-0.7-3.1-1.3-4.9-2c2.4-6.7,7.9-12.7,3.2-20.6c-1.1,1.1-2,2-2.8,3c-5.7,6.9-13.1,11.2-21.6,13.6
		c-10.3,2.8-19.3,7.1-24.4,17.2c-0.4,0.9-1.2,1.6-1.7,2.4c-2,3-3.9,6.1-6.3,9.9c2.6,0,3.5,0,4.8,0c-0.9,2-1.5,3.5-2.2,5
		c1,0.4,1.7,0.7,3.7,1.4c-9,5.8-7.2,14-7,21.9c0,1.7,0,3.4,0.2,5c1.1,7.2,0.7,14.6,5.4,21.2c1.9,2.7,1.3,7.3,1.6,11
		C128.4,230.7,128.1,232.3,127.9,233.9c-3.7,4.6-8.3,8.7-11,13.8c-4.4,8.3-7.6,17.3-11.3,26c8.3-4.7,7-15.5,13.9-21.1
		c1.7,1,3.4,2.1,5.1,2.9c0.5,0.2,1.5-0.2,2.1-0.6c0.3-0.2,0.2-1,0.2-1.6c-4-0.4-0.5-2.1-0.5-3.2c-0.1-1.6,0-3.3,0-4.6
		c0.6-2.4,1.2-4.5,1.5-6.6C128.3,237.3,128,235.6,127.9,233.9z M74.6,404.5c3.7-6.6,6.1-14.5,11.4-19.1c8.8-7.7,19.5-13.3,29.5-19.5
		c3.1-1.9,6.2-3.5,6.7-7.7c-1.3,0.8-2.6,1.5-3.8,2.3c-0.4-0.3-0.9-0.7-1.3-1c2-3.1,3.9-6.2,6-9.6c-1.6-2.3-3.5-1.5-4.7,1
		c-1.9,3.9-3.4,8.1-5.3,12c-0.4,0.7-3.1,1.1-3.3,0.8c-1.7-3-3.7-1.6-5.5-0.5c-4.8,3-9.5,6.1-14.1,9.3c-1.3,0.9-2.2,2.3-3.3,3.5
		c-1.6,1.7-3.1,3.5-4.7,5.1c-1.8,1.9-4.6,3.3-5.5,5.6c-1.2,3.1-1.1,6.8-1.5,10.4c-0.6-0.5-1.6-1.3-3.6-2.9
		C72.9,398.7,73.8,401.9,74.6,404.5z M127.5,295.5c0.3,0,0.6,0,0.9,0c0.5-5.7,1.1-11.4,1.6-17.2c0.6,0,1.2,0.1,1.8,0.1
		c0.2,1.8,0.4,3.6,0.6,5.4c-0.3-0.2-0.5-0.3-0.8-0.5c5.5-11.9,11.1-23.8,16.6-35.7c-0.3-0.1-0.6-0.2-0.9-0.4
		c-2.8,3.5-5.5,7.1-8.3,10.6c-0.5-0.3-0.9-0.5-1.4-0.8c0.5-1.7,0.9-3.4,1.4-5.1c-1,0.4-1.9,0.7-3.3,1.2c1-2.4,1.7-4,2.4-5.6
		c-0.3-0.2-0.6-0.3-0.9-0.5c-3.2,5.4-6.4,10.8-9.6,16.2c0.4,0,0.8,0,1.2,0c0.3,2,0.6,4.1,0.8,5.5c1.3-1.3,3-2.9,4.6-4.5
		c0.6,0.5,1.2,1.1,1.8,1.6c-2,3.1-4,6.3-6,9.4c-1,1.6-2.5,3.2-2.6,4.9C127.3,285.3,127.5,290.5,127.5,295.5z M202.1,41.7
		c-0.3-0.6-0.6-1.1-0.9-1.7c-9,5.6-18,11.3-27.4,17.2C187.1,57.9,191.3,44.2,202.1,41.7z M100,300.6c-3.3,6.7-6.5,13.4-9.8,20.1
		c0.5,0.2,1,0.4,1.5,0.6c1.3-3.5,2.6-7,4-10.5c0.3-0.7,0.6-2,1.1-2C102,308,100.2,304,100,300.6z M189,126.8
		c0.2,4.8,0.4,8.6,0.6,12.3c0.5,0,1.1,0.1,1.6,0.1c1.6-1.4,3.1-2.8,4.6-4.2c-1.8-0.7-3.5-1.3-5.6-2c1.2-2,2-3.2,3-4.8
		C191.9,127.8,190.9,127.5,189,126.8z M278.4,33.6c-0.3-0.5-0.5-1.1-0.8-1.6c-4,1.7-8,3.3-12,5c0.2,0.6,0.5,1.1,0.7,1.7
		C270.3,36.9,274.4,35.2,278.4,33.6z M103.6,380.6c0.2,0.4,0.5,0.8,0.7,1.2c3.5-2.2,7-4.4,10.6-6.6c-0.3-0.4-0.5-0.8-0.8-1.3
		C110.6,376.1,107.1,378.4,103.6,380.6z"/>
	<path class="st0" d="M298.1,186.8c-0.7-3.6-1.3-7.3-2-10.9c-0.4-2.3-0.6-4.6-1.3-6.8c-1.5-4.3-3.2-8.7-9.8-6.2
		c0.5-0.6,0.9-1.3,1.4-1.9c-2.4-1.8-4.8-3.7-7.8-6c1.6-0.8,2.9-1.6,4.3-2.2c2-0.8,4.5-0.6,4.6-4c0.1-1,3-2.9,4.2-2.7
		c8.1,1.9,16.3,3.8,24,6.7c2.6,1,4.1,5,6.1,7.6c-0.4,0.4-0.8,0.7-1.2,1.1c-1.3-0.7-2.5-1.5-2.9-1.7c-4.9,1.7-9.1,3-13.1,4.6
		c-1,0.4-2,1.6-2.4,2.6c-1.1,2.7-1.8,5.6-2.7,8.4c-0.2,0.6-0.4,1.3-0.3,1.9c1.4,4.9,1.5,4.9,0.2,9.3
		C299,186.7,298.6,186.7,298.1,186.8z"/>
	<path class="st0" d="M357,381.3c0.9-0.2,2.1-0.5,3.5-0.9c-0.3-0.9-0.5-1.9-1-3.7c8.1,2.6,7.7,9.3,8.8,15.1c3.5-3.5,3.5-8,0.4-11.2
		c-2.8-3-5.3-6.2-8.2-9.5c2.3-0.1,4.2-0.3,6.1-0.4c0.6,1.4,1.3,3.2,2.1,5c0.4-0.1,0.7-0.2,1.1-0.3c-0.3-1.1-0.6-2.2-1-3.7
		c3.8,1.4,8.2,7.9,7.9,16c-0.3,10.2-0.3,21-7.4,31.1c0.8-7.4,1.5-13.5,2.1-19.6c-0.4,0-0.8-0.1-1.3-0.1c0,0.8,0.3,1.7-0.1,2.3
		c-1.1,1.6-2.4,3.1-3.6,4.6c-0.6-1.5-1.6-3-1.9-4.6c-0.8-5.1-0.9-10.3-2.2-15.2C362,384.3,359,383,357,381.3z"/>
	<path class="st0" d="M288.2,185.2c-5.6,0.1-12.1,3.4-15.6-2.9c-3.3-6,3.5-7,7.3-10.4c-8.1,0-15.4,0-22.7,0
		c-0.1-0.3-0.2-0.6-0.3-0.9c1-0.6,2-1.4,3.1-1.9c7.7-3.7,15.6-2.9,23.4-0.7c6.5,1.8,11.9,11.3,11,18c-0.1,0.8-0.9,2-1.5,2.1
		c-0.9,0.3-2.3,0.1-3.1-0.5C288.9,187.5,288.7,186.2,288.2,185.2z"/>
	<path class="st0" d="M300.6,280.2c2.6,2.5,5.3,5,7.5,7.2c-0.5,3.2-1,6.3-1.6,9.4c-0.1,0.5-0.4,0.9-0.8,1.2
		c-5.1,4.5-10.3,8.9-16.1,14c-1.6-9.7-6.3-15.9-16.1-17.4c0.3-0.7,0.6-1.3,0.8-2c1.9,0.3,4,0.2,5.7,1c4.4,2,8.4,4.7,12.9,6.3
		c2,0.7,4.7-0.8,7.1-1.4c-0.7-1.9-0.8-4.3-2.1-5.5c-3.3-3-7-5.5-10.7-8c-2.6-1.7-5.3-3.2-8.3-5c6.9-3.3,14.4-0.1,22.6,8.8
		c-0.7-2.6-1.4-5.3-2-7.9C299.9,280.7,300.3,280.4,300.6,280.2z"/>
	<path class="st0" d="M342,202.9c-0.5,5.5-2.5,11.2,1.6,14.5c-0.4,4.1-0.7,7.2-1,10.3c-0.1,1,0.1,2.1-0.3,2.9
		c-3.5,6.7-3.1,13.8-2.9,21c0.1,6.1-1.8,11-8.5,12.8c-1.4,0.4-2.4,2.4-3.9,4c-0.8-0.6-2.1-1.3-3.1-2.3c-3.3-3.3-2.9-5.6,1.5-7.4
		c1.7-0.7,3.7-0.6,5.2-1.6c2.7-1.7,4.5-3.9,4.7-7.5c1-15.7,2.5-31.5,3.8-47.2c0.1-0.6,0.4-1.2,0.9-2.4
		C340.8,201.4,341.4,202.2,342,202.9C342,203,342,202.9,342,202.9z"/>
	<path class="st0" d="M195,208.2c0.8-6.3,0.8-12.9,3-18.7c0.8-2,1.3-3.5,1.1-5.6c-0.8-6.6-1.9-13.1-2.1-19.7
		c-0.1-2.6,1.6-5.2,2.5-7.9c0.7,0.1,1.5,0.3,2.2,0.4c-0.2,3.8-0.4,7.6-0.5,11.4c-0.1,3.6,0,7.3,0,10.9c0.5,0,1,0,1.4,0
		c-0.3-4.3-0.6-8.5-0.9-12.9c0.9,0.1,1.5,0.1,1.5,0.2c2.3,7,4.8,14,6.5,21.1c0.5,2.3-1.3,5.1-2.1,7.7c-0.5-0.1-1.1-0.3-1.6-0.4
		c0-2.5,0-5.1,0-7.2c-3,6.8-6.1,14-9.2,21.1C196.2,208.5,195.6,208.3,195,208.2z"/>
	<path class="st0" d="M353.9,206.9c0.6-4-0.6-6.4-5.1-6.4c-1.3,0-2.6-0.9-3.7-1.9c5.2-2.5,10-1.6,14.4,1.3c2,1.4,3.8,3.3,5.3,5.2
		c4.6,5.7,4.2,7.4-2.3,11.5c1.5,0.6,2.8,1.1,5.3,2.1c-2.9,1.4-5.1,2.4-7.8,3.7c-0.3-6-0.6-11.2-0.9-17.2c-1.9,1.8-3,2.8-4.1,3.9
		C354.7,208.4,354.3,207.7,353.9,206.9z"/>
	<path class="st0" d="M61.4,402.8c-1.7-1.2-2.8-1.9-4.3-3c-0.4,1.9-0.7,3.4-1.1,5c-4.6-5.1,2.4-26.1,9.6-28.9
		C64.3,384.7,62.9,393.3,61.4,402.8z"/>
	<path class="st0" d="M60,456c-0.3-2-1.3-4.5-0.7-6.4c0.8-2.4,2.6-5.5,4.7-6.4c6.8-2.7,9.8-7.9,11-14.8c3.9,0.8,4.8,3.3,3.8,5.9
		c-1,2.7-2.6,5.3-4.6,7.4C69.9,446.5,65.1,450.9,60,456z"/>
	<path class="st0" d="M235.7,132.1c-10.9,2.7-12.8,12.3-17.3,19.8c-0.6-0.2-1.3-0.5-1.9-0.7c0.7-3.1,1.3-6.1,2.3-10.6
		c-1.7-2,0.7-4.5,3.2-6.7C225.7,130.5,231.6,129.4,235.7,132.1z"/>
	<path class="st0" d="M298.1,193c-1.7,2-3.2,3.6-4.8,5.5c-5-3.4-12.3,1.2-16.9-5.1C283.6,189.1,290.6,189.3,298.1,193z"/>
	<path class="st0" d="M378.9,369.3c0.9,2,1.9,4,2.7,6.1c0.6,1.5,0.5,3.9,1.6,4.6c4.5,3,3.2,6.2,0.8,9.5c-1,1.3-2.2,2.5-3.7,4.1
		c-1.4-8.8-2.6-16.4-3.8-23.9C377.4,369.6,378.2,369.4,378.9,369.3z"/>
	<path class="st0" d="M353.9,206.9c0.4,0.8,0.8,1.5,1.2,2.3c0.3,2.3,0.7,4.6,1.2,8.1c-7.4-3.3-10.4-9.3-14.3-14.3
		c0,0,0.1,0.1,0.1,0.1c0.1-0.7,0.3-1.5,0.4-2.2c2.3,0.5,4.9,0.5,6.9,1.6C351.2,203.3,352.4,205.3,353.9,206.9z"/>
	<path class="st0" d="M244.1,96c-0.9,1.5-1.5,2.4-2.8,4.6c3.4-2.5,5.7-4.2,8.6-6.4c-1.2,8.8-9.6,9.6-13.5,14.7c-0.5,0-1-0.1-1.6-0.1
		c-0.2-2.3-1.1-4.9-0.4-6.9C235.8,97.8,239.5,96.7,244.1,96z"/>
	<path class="st0" d="M333.2,48.1c-0.9,0.9-1.9,2.7-2.7,2.6c-5.1-0.5-10.1-1.3-15.5-2.1c2.9-5.4,6-5.9,10.4-3.1
		c1.8,1.1,4.4,1,6.6,1.4C332.3,47.3,332.7,47.7,333.2,48.1z"/>
	<path class="st0" d="M349.4,364.9c5.7-3.3,6.5,3.2,11.1,4.3c-5.7,2.6-11.8,0.4-16.3-4.9C346.7,361.5,346.7,361.5,349.4,364.9z"/>
	<path class="st0" d="M364,195.3c7.2,4.3,9.7,10.4,7.1,16.6C368.7,206.2,366.6,201.3,364,195.3z"/>
	<path class="st0" d="M333.2,48.1c-0.4-0.4-0.8-0.8-1.2-1.2c-1-1.3-2-2.7-3-4c0.3-0.3,0.6-0.6,0.8-0.9c4.9,3,9.8,6,14.7,9.1
		c-0.2,0.4-0.4,0.9-0.5,1.3C340.8,49.4,335.6,53.3,333.2,48.1z"/>
	<path class="st0" d="M60.1,428.5c-5.3-5-6.5-13.5-3.3-18.2c3.1,2.3,3,2.3,1.3,5.2c-0.5,0.9-0.5,2.4-0.3,3.5
		C58.3,421.9,59.1,424.6,60.1,428.5z"/>
	<path class="st0" d="M310.7,260.1c3.5-0.4,6-0.6,8.5-0.9c-1,1.9-2.1,3.8-3.1,5.6c-0.5,1-1,2-2,3.9
		C313,265.8,312.1,263.6,310.7,260.1z"/>
	<path class="st0" d="M194.2,232.9c3.7,2.3,5.2,5.4,3,8.9c-1.3,2.2-4,3.4-7.6,0.5C195.1,240.8,196.8,237.8,194.2,232.9z"/>
	<path class="st0" d="M370.5,408c-2.4,3.1-4.8,6.2-7.2,9.4c-0.4-0.3-0.9-0.6-1.3-1c0.8-4.2,1.7-8.4,7.2-9.4
		C369.6,407.3,370,407.7,370.5,408z"/>
	<path class="st0" d="M213,94.2c3.1-3.2,6.9-3.7,11-2.7c0.2,0.6,0.3,1.3,0.5,1.9c-3.7,0.9-7.3,1.8-11,2.7
		C213.4,95.5,213.2,94.9,213,94.2z"/>
	<path class="st0" d="M337.2,431.5c1.2,3.7,2.5,7.4,3.8,11.4C336.4,440.6,334.8,436.7,337.2,431.5z"/>
	<path class="st0" d="M181,223.3c2.6-3.5,4.5-6.2,6.6-9.1C188.9,220.1,187.3,222.8,181,223.3z"/>
	<path class="st0" d="M289.6,164.4c1.5,1.3,3,2.6,5.6,4.9c-2.1,0.6-3.8,1.6-4.6,1.2C288.1,169.1,287.3,166.9,289.6,164.4z"/>
	<path class="st0" d="M262.7,177.2c2.9,3.1,5.8,6.1,8.7,9.2c-0.3,0.3-0.6,0.7-0.9,1c-3-3-6-6-9.1-8.9
		C261.8,178,262.3,177.6,262.7,177.2z"/>
	<path class="st0" d="M237.4,80.7c2.9-0.7,5.8-1.3,8.7-2c0.2,0.8,0.4,1.6,0.6,2.4c-2.9,0.6-5.7,1.3-8.6,1.9
		C237.8,82.2,237.6,81.5,237.4,80.7z"/>
</g>
</svg>
