<?xml version="1.0" encoding="utf-8"?>
<!-- Generator: Adobe Illustrator 24.0.0, SVG Export Plug-In . SVG Version: 6.00 Build 0)  -->
<svg version="1.1"
	 id="svg2" xmlns:cc="http://creativecommons.org/ns#" xmlns:dc="http://purl.org/dc/elements/1.1/" xmlns:rdf="http://www.w3.org/1999/02/22-rdf-syntax-ns#" xmlns:svg="http://www.w3.org/2000/svg"
	 xmlns="http://www.w3.org/2000/svg" xmlns:xlink="http://www.w3.org/1999/xlink" x="0px" y="0px" viewBox="0 0 181.4 318.9"
	 style="enable-background:new 0 0 181.4 318.9;" xml:space="preserve">
<style type="text/css">
	.st0{fill:#E3212A;}
</style>
<g id="layer1" transform="translate(-23.647 -6.9448)">
	<path id="path2830" class="st0" d="M138.6,325c-1.9-0.4-8.4-1-14.5-1.3c-14.8-0.7-31.1-2.5-36-3.9c-4.9-1.5-11.2-4.9-14.4-7.9
		c-3-2.8-8.3-14.3-8.6-18.9c-0.1-1.9,0.1-4.5,0.6-5.7c1.7-4.7-1.1-2.9-11.4,7.1c-10.4,10.1-13,13.8-14.2,20.6
		c-0.7,3.9-1.4,5.2-2.4,4.5c-1.2-0.7,1.1-10.4,3.6-15c1.2-2.2,5.2-6.8,9-10.3c15-13.8,19.4-18.3,19.4-19.9c0-0.4-3.7,3-8.2,7.5
		s-9.8,9.3-11.8,10.8c-5.1,4-12.9,13.2-15.3,18.1c-2.2,4.4-3.7,5.5-3.7,2.6c0-5.1,10.8-17.9,23.5-27.9c8.6-6.8,17.4-15.5,19.9-19.8
		c8.9-15.1,10.5-20,8.2-24.4c-1.9-3.7-6.2-5.2-15.4-5.2c-8,0-13.2-2.1-13.3-5.2c-0.1-2.4-0.8-9.1-1.2-11.9c-0.4-2.2-2.6-4.9-4.1-4.9
		c-1.9,0-11.7-7.7-13.7-10.7c-1.7-2.5-2.7-4.1-5.1-8.3c-4.3-7.4-5.2-10.9-5.6-20.5c-0.3-8.4-0.1-10.9,1.7-15.2
		c2.6-6.5,7.5-11.5,14.6-14.9c4.4-2.1,5.5-3.1,5.5-4.9c0-4.4-1-5.5-5-5.5c-6.3,0-8.9-4.7-5.4-9.8c1.2-1.7,2.6-2.2,5.6-2.2h4.1
		l-0.7-4.2c-0.4-2.3-0.8-5-0.9-5.8c-0.1-0.9-1.7-3.1-3.5-5C36,103.1,33.8,98.6,31,89c-1.5-5.1-1.9-9.5-1.8-20.5
		c0.1-13.3,0.3-14.5,3.6-24.1c2.6-7.5,4.7-11.6,8.3-16c5.6-6.9,14.5-14.4,19.5-16.3c1.9-0.8,4.1-1.9,4.9-2.4c6-4.6,37.7-3,49.8,2.6
		c1.4,0.7,2.8,0.6,4.2-0.1c1.2-0.6,6.1-1.2,10.9-1.2c8.3-0.1,9.2,0.1,18.3,4.4c12.2,5.7,23.2,15.6,27.8,25
		c4.7,9.6,5.9,12.8,6.7,18.3c0.4,2.8,1,5.9,1.2,7c0.2,1.1,0.5,7.4,0.6,14c0.1,8.3,0.5,12.3,1.4,13c0.7,0.6,1.5,2.4,1.9,4.2
		c0.5,2.6,0.2,3.4-1.5,4.3c-1.9,1-2.1,2-2.1,11.2c0,9.4,0.1,10.1,2.1,10.6c1.8,0.5,2,1.1,1.5,4.2c-0.3,2-0.6,4.4-0.7,5.4
		c0,1-0.7,1.8-1.5,1.8c-1.1,0-1.4,1.4-1.4,5.6c0,5.1,0.1,5.4,1.6,4c1.9-1.9,5.4-2.9,8.6-2.4c1.7,0.2,2.7,1.3,3.5,3.8
		c1.4,4.3,0.2,8.6-3.4,11.9c-2.9,2.7-6.9,2.3-9.1-0.9c-2.1-3-3.2-2.3-2.8,1.8c0.3,3.4,0.7,3.8,3.8,4.1c4.7,0.4,11,5,13.7,10
		c1.3,2.3,2.7,7.3,3.2,11c0.5,3.7,1.1,8.1,1.3,9.8c1,7.3-4.4,26-10.9,37.6c-3.1,5.6-8.5,10.5-12.3,11.4c-5.1,1.1-5.2,1.3-5.2,5.7
		c0,5.8-1.5,7.5-8.5,9.9c-9.7,3.3-17.9,1.9-41-6.7c-8-3-17.6-3.5-22.2-1.1c-4.4,2.3-12.3,11.9-12.3,14.9c0,1,6-0.2,9.5-2
		c2.3-1.2,6-1.5,16.5-1.4c7.4,0.1,14-0.2,14.7-0.6c1.5-1,33.2,1.1,39.6,2.7c2.6,0.6,7.7,2.5,11.3,4.2c9.4,4.5,12.8,10.1,10.9,18.1
		c-0.5,2.1-0.3,2.8,0.8,2.8c0.8,0,2.9,1.3,4.6,2.9c2.9,2.7,3.1,3.3,3.1,10c0,7.3-0.7,9.4-4.9,14.3c-2.9,3.3-6.9,5.5-11.9,6.4
		c-2,0.4-4.1,1-4.6,1.4s-3.2,0.8-6,0.9c-2.8,0.1-10.4,0.6-17,1.1C145.4,326.1,143.4,326.1,138.6,325L138.6,325z M143.8,317.8
		c-0.8-0.8-6.6-1.5-15.6-1.9c-15.5-0.8-26.3-2.8-33.6-6.4c-2.5-1.2-6.2-3-8.3-4c-2.1-1-4.2-2.6-4.8-3.6c-1.2-2.2-2.9-2.5-2.9-0.4
		c0,5.2,14.4,13,27.3,14.7c16.5,2.2,20.3,2.5,29.6,2.7C142.9,319,144.7,318.8,143.8,317.8L143.8,317.8z M175.6,317.1
		c2.1-0.9,1.9-1-1.5-0.6c-8.7,0.9-15,1.8-15.5,2.3C157.7,319.7,173,318.2,175.6,317.1L175.6,317.1z M179.6,312
		c1.9-0.5,4.4-1.6,5.5-2.5c1.9-1.5,1.9-1.6-0.6-1c-11.6,2.4-61.5,3.8-68.4,1.9c-1.1-0.3-1.6-0.2-1.2,0.3
		C117.5,313.4,170,314.5,179.6,312L179.6,312z M80.1,310c-1-1.1-2.2-2-2.8-2c-0.5,0,0.1,0.9,1.4,2C81.8,312.5,82.3,312.6,80.1,310
		L80.1,310L80.1,310z M112.7,310.4c-0.7-0.3-1.6-0.3-1.9,0.1c-0.3,0.3,0.3,0.6,1.3,0.5C113.3,310.9,113.5,310.7,112.7,310.4
		L112.7,310.4L112.7,310.4z M145.4,308.6c-0.9-0.9-20.5-2-24.9-1.5c-1.4,0.2,1.8,0.6,7,0.9C141.8,309,145.9,309.1,145.4,308.6z
		 M113.6,306c-2.5-0.4-4.9-0.4-5.4,0.1c-0.6,0.5,1.3,0.8,4.5,0.8l5.4-0.1L113.6,306z M163.3,306.3c-1-0.3-2.5-0.3-3.5,0
		s-0.2,0.5,1.8,0.5S164.3,306.6,163.3,306.3z M170.8,306.4c-0.7-0.3-1.8-0.3-2.5,0s-0.1,0.5,1.2,0.5S171.5,306.7,170.8,306.4z
		 M103.1,304.5c-2.2-0.8-4.9-1.4-6-1.4c-2.8,0.1,4.3,2.7,7.5,2.8C106.5,305.9,106.2,305.6,103.1,304.5z M75.2,302.3
		c-1.6-5.4-1.6-7,0.4-10.7c1.1-2.2,2-4.7,2-5.5c0-2.4-5.9,4.6-6.1,7.2c-0.3,4.5,0.2,8.1,1.3,9.4C74.3,304.6,75.8,304.3,75.2,302.3
		L75.2,302.3z M151.6,302.5c0.7-0.9,2.9-1.5,5.3-1.5c4.5,0,10.7-1.9,10.7-3.3c0-0.5-1-0.6-2.3-0.3c-9.9,2.5-56.3,3.9-61.7,1.9
		c-1.4-0.5-4.6-1.2-7.2-1.6c-2.6-0.4-5.2-1.3-5.9-2.1c-0.7-0.8-1.8-1.5-2.5-1.5c-0.7,0-2.2-1.2-3.4-2.7c-1.1-1.5-2.4-2.3-2.8-1.9
		c-1,1.1,6.5,7.5,11.3,9.5c4.8,2,9.2,3.1,15.9,3.6c2.7,0.2,5.1,0.6,5.4,0.9c0.3,0.3,8.5,0.5,18.2,0.5
		C147.1,304,150.5,303.8,151.6,302.5L151.6,302.5z M93.6,302.6c0-0.2-0.7-0.7-1.6-1c-0.9-0.3-1.3-0.2-0.9,0.4
		C91.7,303,93.6,303.5,93.6,302.6L93.6,302.6z M89.6,300.6c0-0.2-0.7-0.7-1.6-1c-0.9-0.3-1.3-0.2-0.9,0.4
		C87.7,301,89.6,301.5,89.6,300.6L89.6,300.6z M181.5,299.9c2.8-0.6,5.1-1.5,5.1-2c0-1.2-10,0.2-13,1.8l-2.5,1.3l2.7,0
		C175.2,301,178.7,300.5,181.5,299.9L181.5,299.9L181.5,299.9z M137.6,296.9c6.9,0,14.3-0.3,16.5-0.7c2.6-0.5-5.6-1-23-1.4
		c-29.7-0.6-34.6-1.5-41.7-6.9c-4.2-3.2-4.8-3.4-4.8-1.5c0,1.6,3.4,4.9,7,6.7c4.9,2.6,19.2,4.9,26.5,4.3
		C121.9,297.1,130.7,296.9,137.6,296.9L137.6,296.9z M83.1,296c-0.3-0.5-0.8-1-1.1-1c-0.2,0-0.4,0.5-0.4,1s0.5,1,1.1,1
		C83.2,297,83.4,296.6,83.1,296z M105.1,290.1c-0.3-0.5-1.9-1.2-3.5-1.6c-4-0.9-8-4.2-8-6.6c0-2.5-1.2-2.5-2.7,0
		c-1.9,3.1,1.2,5.1,14.5,9C105.5,291,105.4,290.6,105.1,290.1L105.1,290.1L105.1,290.1z M181.6,289.5c1-1.2,1-2.1,0-4.6
		c-1.5-3.6-2.9-2.3-3,2.8C178.6,291.3,179.6,291.9,181.6,289.5L181.6,289.5L181.6,289.5z M125.6,289c0-0.5-0.9-1-1.9-1
		c-2.9,0-15.8-6.7-16.5-8.5c-0.3-0.9-0.1-2.5,0.5-3.6c1.3-2.5,0.2-3.9-1.4-1.8c-0.6,0.9-2,1.9-2.9,2.2c-1,0.4-1.8,1.6-1.8,2.7
		c0,2.6,8,6.9,17,9.2c3.6,0.9,6.6,1.7,6.8,1.8S125.6,289.6,125.6,289L125.6,289z M153.6,288.6c-0.7-0.8-2.6-1.9-4.4-2.4
		c-4.8-1.5-20.6-3.3-25.2-3l-4,0.3l5,1.9c4.5,1.7,19.8,4.2,26.9,4.5C154.3,290,154.6,289.8,153.6,288.6L153.6,288.6z M159.9,287.2
		c-1.7-1.5-5-3.3-7.2-4c-5.5-1.7-7.6-1.5-2.7,0.2c2.2,0.8,5.1,2.5,6.5,4s3.5,2.5,4.6,2.5C162.8,289.9,162.6,289.6,159.9,287.2
		L159.9,287.2z M104.1,285.9c-1.1-0.6-3.2-2.5-4.8-4.2c-1.9-2.2-2.8-2.6-2.8-1.5c0,1.9,5.8,6.8,8,6.7
		C105.6,287,105.4,286.6,104.1,285.9z M76.5,281.3c0.2-0.2-0.3-0.3-1.1-0.3c-0.9,0-1.8,0.7-2.2,1.6c-0.5,1.4-0.4,1.5,1.1,0.3
		C75.3,282.2,76.2,281.5,76.5,281.3z M83.1,282c-0.3-0.5-0.8-1-1.1-1c-0.2,0-0.4,0.5-0.4,1s0.5,1,1.1,1
		C83.2,283,83.4,282.6,83.1,282z M143.6,281.6c0-0.2-0.7-0.7-1.5-1s-1.5-0.1-1.5,0.4c0,0.5,0.7,1,1.5,1S143.6,281.8,143.6,281.6z
		 M161.1,280.5c-2-1.5-3.6-1.9-3.6-0.9c0,0.5,3.8,2.3,5,2.4C162.8,281.9,162.2,281.3,161.1,280.5z M137.8,280.4
		c-0.7-0.3-1.8-0.3-2.5,0s-0.1,0.5,1.2,0.5S138.5,280.6,137.8,280.4z M79.4,274.5c0.3-2.6,0.3-2.7-1.5-0.8c-1,1-2.7,2.9-3.8,4.1
		l-1.9,2.3l3.4-1.4C78.1,277.6,79.1,276.5,79.4,274.5L79.4,274.5z M113.6,277.5c0-0.2-0.4-0.4-1-0.4s-1,0.5-1,1.1
		c0,0.6,0.4,0.8,1,0.4S113.6,277.7,113.6,277.5z M154.6,277.6c-1.4-0.7-7.1-2.1-12.7-3c-8.1-1.3-11.7-1.4-17.5-0.6
		c-4,0.6-7.8,1.5-8.3,2.2c-0.7,0.8-0.5,0.9,0.7,0.5c1.6-0.6,13.8-2.2,14.8-2c0.3,0.1,4.7,0.6,9.9,1.2c5.2,0.6,10.1,1.6,11,2.1
		c0.9,0.5,2.3,0.9,3.1,0.9C156.4,278.9,156,278.4,154.6,277.6L154.6,277.6z M184.6,278.2c0-1.2-4.1-4.7-7.5-6.5
		c-4.2-2.1-13.7-4.4-21.5-5.3c-9.1-0.9-6.7,0.7,5,3.5c9.8,2.4,20,6.5,20,8.1c0,0.5,0.9,0.9,2,0.9S184.6,278.7,184.6,278.2
		L184.6,278.2z M157.6,273.1c-0.8-0.5-3.1-1.1-5-1.5l-3.5-0.6l3,1.4C155.4,274.1,160.2,274.6,157.6,273.1L157.6,273.1z M117,269.2
		c-1.5-0.2-4.3,0-6.3,0.3c-3.2,0.6-3.4,0.8-1.8,2c1.4,1.1,2.6,1,6.3-0.3C119.3,269.7,119.5,269.5,117,269.2z M136.3,270
		c5.3,0,9.3-0.3,8.9-0.6c-1.1-1.1-20-0.4-21.1,0.8c-0.8,0.9-0.6,1,0.8,0.5C125.9,270.3,131,270,136.3,270L136.3,270z M89.5,264.6
		c0-0.6-0.7-0.2-1.5,0.9c-0.8,1.1-1.5,2.4-1.4,3c0,0.6,0.7,0.2,1.5-0.9C88.9,266.5,89.5,265.2,89.5,264.6z M86.6,260.5
		c1.4-1.9,1.3-1.9-0.3-0.6c-1,0.8-1.8,1.8-1.8,2.4c0,0.6,0.1,0.9,0.3,0.6C85,262.7,85.8,261.6,86.6,260.5z M157.4,255.1
		c0.9-0.6-0.9-1-5-1.3c-3.5-0.3-7.3-0.8-8.4-1.2c-2-0.7-2-0.7,0,0.6c1.7,1.1,6.3,2.2,11,2.7C155.6,255.9,156.7,255.6,157.4,255.1
		L157.4,255.1z M170.6,247.4c0-4.7-0.2-5.4-2-5.4c-1.5,0-2,0.7-2,2.9c0,1.6-0.3,4.2-0.6,5.9c-0.6,2.8-0.4,3,2,2.5
		C170.4,252.8,170.6,252.4,170.6,247.4L170.6,247.4z M163.5,246.1c0-5.8-0.6-4.9-1.3,1.9c-0.4,3.6-0.2,5,0.4,4
		C163.1,251.2,163.5,248.5,163.5,246.1L163.5,246.1z M140.6,251.6c0-0.2-2.1-1.6-4.8-3.1c-5.2-2.9-15.9-5.8-16.7-4.5
		c-0.3,0.4,1.5,1.1,3.8,1.4c2.4,0.4,6.1,1.6,8.2,2.8s5,2.5,6.4,2.9c1.4,0.4,2.6,0.8,2.8,0.9C140.4,252,140.6,251.8,140.6,251.6
		L140.6,251.6z M159.1,247.6c1.3-5.1,0.2-6.9-4-7.3c-9.3-0.8-13.5-3.7-19-13.7c-2.3-4-2.5-5.6-2.5-15.4c0-12.9,1.3-18.1,7.7-31.1
		c4.7-9.4,9-14.2,15.6-17c3.7-1.6,8.6-1.5,11.7,0.1c2.2,1.1,2.9,1.1,5.2-0.6c3-2.1,4.1-7.5,1.3-6.4c-0.8,0.3-1.4,0.2-1.2-0.3
		s-1.3-2.2-3.1-3.7c-3.2-2.7-3.4-3.1-3.9-11.8c-0.3-4.9-1.1-9.7-1.8-10.5c-0.7-0.8-1.8-4.4-2.5-8c-0.7-3.6-2.3-9.7-3.5-13.5
		s-3.3-10.4-4.5-14.5c-2-6.6-8.8-24.5-11-28.9c-0.4-0.9-2.5-5-4.5-9.1s-5.1-9.2-6.9-11.4c-4.7-5.9-14.7-15.9-18.9-19l-3.8-2.8
		l-5.2,3.6c-2.9,2-6.4,4.6-7.8,5.8C93,35.3,83.5,48.1,79.7,55c-3.5,6.3-9.6,18.3-9.7,19c0,0.3-0.9,3.2-1.9,6.5s-2.2,7.6-2.6,9.5
		c-0.4,1.9-1.1,4.6-1.4,6c-0.4,1.4-1,8.3-1.4,15.3c-0.8,14.2-1.9,16.9-7.9,19.7c-3.1,1.4-3.2,1.7-2.9,7l0.3,5.5l3.5,0.1
		c7.2,0.2,17.6,1.5,21.1,2.7c8.4,2.9,15.1,10.3,18.4,20.6c2.9,9,0.9,26.3-4.5,37.7c-2.6,5.5-6.4,8.5-13.9,10.9l-6.2,2l0.6,4.5
		c0.4,2.5,0.8,4.6,0.9,4.8c0.1,0.2,3.1,0.7,6.6,1.3c9.8,1.5,14.7,6.1,15,13.9c0.1,2.5,0.4,4.8,0.6,5.3s2.1-0.6,4.1-2.2
		c2-1.7,4.2-3,4.8-3c0.6,0,2.4-0.6,4-1.4c3.8-1.9,15.4-2.6,22.7-1.4c3.5,0.6,7.8,2.2,11,4.2c5.2,3.3,12.8,6.4,16,6.6
		C157.8,250,158.8,249.1,159.1,247.6L159.1,247.6L159.1,247.6z M90.4,243.4l-0.3-3.9l-0.5,4.7c-0.3,2.6-0.1,4.3,0.3,3.9
		C90.3,247.7,90.5,245.5,90.4,243.4z M102.5,245.2c-0.6-0.2-2.1,0.6-3.3,1.9l-2.1,2.3l3.3-1.9C102.2,246.4,103.1,245.4,102.5,245.2z
		 M109.1,242.9c0.8-1.4-1-1-3.1,0.6c-1.9,1.4-1.9,1.4,0.3,0.9C107.6,244,108.8,243.4,109.1,242.9L109.1,242.9z M88,235.2
		c-1-0.9-1.5-1.2-1.3-0.7c0.3,0.6,0.8,1.9,1.3,3c0.5,1.4,0.9,1.6,1.3,0.7C89.6,237.4,89,236.1,88,235.2z M178,235.9
		c2-0.9,2.4-1.6,1.9-4c-0.3-1.5-0.1-4.2,0.5-5.9c1.8-5.2,0.3-3.3-2.8,3.5C173.7,238,173.7,237.8,178,235.9z M174.3,230.8
		c1.1-2.9,2.8-6.9,3.7-9s1.4-3.8,1.1-3.8c-0.6,0-5.5,10.4-5.5,11.7c0,0.5-0.9,1.8-2,2.8c-1.9,1.7-2,1.7-2,0c0-1,1.6-5.2,3.6-9.4
		c2-4.2,4.5-9.8,5.6-12.6s2.5-5.6,3-6.3c0.6-0.7,0.8-1.5,0.5-1.8c-0.5-0.5-12.1,22.3-13.2,25.8c-0.3,1-1,1.8-1.6,1.8
		c-0.6,0-0.8-0.8-0.5-2c0.4-1.1,0.2-2-0.4-2c-0.6,0-1.1,0.4-1.1,0.9s-0.2,1.6-0.5,2.3c-0.6,1.5,4.1,6.8,6,6.8
		C171.7,236,173.2,233.7,174.3,230.8L174.3,230.8L174.3,230.8z M160.6,231c0-0.6-1.5-1-3.2-0.9c-2.7,0.1-2.9,0.2-1.2,0.9
		C158.8,232.2,160.6,232.2,160.6,231z M185.5,227.4c0-0.6,1.4-4.1,3.1-7.9c1.7-3.7,2.9-6.9,2.6-7.2c-0.6-0.6-7.4,13.6-8.2,17.2
		c-0.7,2.8-0.6,2.9,0.9,1C184.8,229.4,185.5,228,185.5,227.4L185.5,227.4z M57.1,218.3c-0.3-0.8-0.9-1.2-1.4-0.9
		c-0.9,0.6-0.4,9,0.7,11.6C57.2,230.8,57.9,220.4,57.1,218.3L57.1,218.3z M65.6,226.6c0-5.2-1.2-8.6-3.1-8.6c-2,0-2.4,2.2-1.2,7.9
		C62,229.8,65.6,230.4,65.6,226.6z M159,227.1c0.5-0.9-0.7-1.4-5.5-2.2c-0.8-0.1-1.7,0.2-1.9,0.7c-0.4,0.8,1.7,1.6,6.1,2.4
		C158.1,228,158.7,227.6,159,227.1L159,227.1z M146.6,224.8c0-0.7-2-1.7-4.5-2.3c-5-1.2-5.7,0.1-1.4,2.3
		C143.8,226.4,146.6,226.4,146.6,224.8L146.6,224.8L146.6,224.8z M158.6,219.5c0-4-1.1-4.4-2.9-1.1c-0.9,1.6-1.9,2.2-3.2,1.9
		c-1-0.3-1.9,0-1.9,0.6c0,1.1,6,3.1,7.2,2.4C158.2,223.1,158.6,221.4,158.6,219.5L158.6,219.5z M170.1,212.3c1.3-3.4,1.3-3.6,0-1.8
		c-0.8,1.1-1.5,2.3-1.5,2.8c0,0.5-0.9,2.1-1.9,3.6c-1.1,1.5-2.2,3.8-2.6,5.2C163.2,225.3,168.1,217.5,170.1,212.3L170.1,212.3z
		 M146.2,220.3c-1.5-1.5-8.2-3.2-9.1-2.3c-0.6,0.6-0.4,1.1,0.5,1.4c0.8,0.2,2.1,0.7,2.9,1C142.9,221.1,147,221.1,146.2,220.3
		L146.2,220.3L146.2,220.3z M146.6,217.3c0-0.4-0.9-2.1-2-3.8c-2.6-4-2.5-6.3,0.6-13.2c1.4-3.2,2.7-6.5,2.9-7.3
		c0.2-0.8,0.6-2.7,1-4.2c0.6-2.3,0.4-2.8-1.3-2.8c-1.1,0-2.4-0.5-2.7-1.1c-0.4-0.7,0.5-1,2.9-0.8c4.4,0.4,5.9-0.8,2-1.7
		c-1.6-0.3-3.4-0.8-4-1c-1.4-0.4-6.5,9.2-8.2,15.5c-0.7,2.5-1.1,7.6-0.9,11.4c0.3,6.9,0.3,6.9,3.8,8.2
		C144.7,218.1,146.6,218.3,146.6,217.3L146.6,217.3z M180.9,215.5c0.3-0.9,0.2-1.3-0.4-0.9c-0.5,0.3-1,1-1,1.6
		C179.6,217.5,180.3,217.2,180.9,215.5L180.9,215.5z M155,213.3c0.9-2.2,0.1-2.6-2.3-1.1c-1.7,1.1-2.4,1-4.3-0.7
		c-1.5-1.3-1.3-0.8,0.6,1.2C151.8,215.9,153.9,216.1,155,213.3L155,213.3z M61.5,212c0-0.6-0.8-1-1.8-1c-1.5,0-1.5,0.2-0.2,1
		C61.4,213.2,61.5,213.2,61.5,212z M81.9,209.2c10.5-9.3,14.7-33.7,7.7-44.2c-0.9-1.4-2.3-3.7-3.1-5.2c-1.6-3.2-4.8-6.8-6-6.8
		c-0.5,0-1.1,0.6-1.4,1.4c-0.6,1.5,1.1,3.6,2.8,3.6c0.6,0,1.1,1,1.1,2.2c-0.1,1.5,0.7,2.4,2.2,2.8c2.1,0.5,1.9,1-3.6,6.4
		c-5.5,5.5-5.9,6.1-5.1,8.9c1.8,6.3-2.1,10.9-7.2,8.4c-2-1-2.5-2.1-2.9-6.7c-0.4-3.9-0.8-5.1-1.4-4c-0.5,0.8-0.9,2.7-0.7,4.2
		c0.3,3.6-1.4,3.6-2.3,0c-0.7-2.5-0.8-2.6-1.5-0.8c-0.4,1.1-0.6,3-0.3,4.2c0.4,1.6,0.1,2.2-1.1,2.2c-1.1,0-1.6-0.9-1.6-3.1
		c0-2.9-0.1-3-1.7-1.4c-1.4,1.4-1.5,2.2-0.6,4.6c0.9,2.3,0.8,2.9-0.3,2.9c-1.6,0-2,5.5-0.5,6.4c0.5,0.3,2.3,3,4,6
		c3.5,6.1,6.9,8.9,12.6,10.3C75.4,212.8,78.8,212,81.9,209.2L81.9,209.2z M82.1,180.9c0.9-1.4,7.5-4.2,8.2-3.5
		c0.3,0.3,0.4,0.7,0.1,0.8C84.9,181.6,80.9,182.9,82.1,180.9L82.1,180.9z M77.8,176.8c0.6-1.7,9.7-7.2,10.6-6.3
		c0.4,0.4-0.1,1.2-1.2,1.9s-3.4,2.1-5.3,3.4C78,178.3,77.2,178.5,77.8,176.8L77.8,176.8z M167.1,206.5c0.8-1.9,1.3-3.5,1-3.5
		c-0.6,0-4.6,8.4-4.6,9.6C163.6,213.8,165.2,211,167.1,206.5L167.1,206.5z M194.5,206.6c0-0.5-0.6-0.1-1.4,1
		c-0.8,1.1-1.5,2.4-1.5,2.9c0,0.5,0.6,0.1,1.4-1C193.8,208.4,194.5,207.1,194.5,206.6z M149.4,206.4c-1.3-1.4-2.5-2-2.7-1.3
		c-0.5,1.5,2.8,5.1,4,4.4C151.3,209.1,150.7,207.7,149.4,206.4z M156.5,208.4c0-0.3-1.8-2.4-4-4.6c-2.6-2.6-4-3.5-4-2.4
		c0,0.9,1.5,2.9,3.2,4.6C154.9,208.9,156.5,209.7,156.5,208.4L156.5,208.4z M54.5,206.9c-1.9-0.5-4.6-1.1-6-1.4
		c-2.4-0.5-2.4-0.4-0.6,1c1.1,0.8,3.8,1.4,6,1.4l4.1-0.1L54.5,206.9L54.5,206.9z M161.4,198.2c1.7-4.3,3.1-8.2,3.1-8.6
		c0-1,8.2-13.2,11.9-17.5c2.8-3.4,2.9-3.5,1-4.8c-1.7-1.2-2.3-1.1-4.4,0.2c-4.3,2.8-13.2,13.4-19.1,22.7l-2.6,4.2l3.8,3.9
		c2.1,2.1,3.3,3.9,2.8,3.9c-0.6,0-2.3-1.4-3.9-3c-1.9-2-3.2-2.7-3.9-2c-0.7,0.7,0.3,2.3,2.9,5c2.1,2.2,4.2,4,4.6,4
		C158,206,159.7,202.5,161.4,198.2L161.4,198.2z M54.5,204.1c0-1.4-1.3-1.9-6.1-2.5c-4.6-0.6-4.5,1.1,0,2c1.3,0.2,2.6,0.7,2.8,1
		C52.2,205.4,54.5,205.1,54.5,204.1L54.5,204.1L54.5,204.1z M51,197.7c-0.4-1.1-1.8-1.6-4.6-1.6c-5.2,0-4.6,2.3,0.8,3
		C51.8,199.7,51.8,199.7,51,197.7L51,197.7z M37.5,196c0-0.6-0.4-1-0.9-1s-1.2,0.4-1.6,1c-0.3,0.6,0.1,1,0.9,1
		C36.8,197,37.5,196.6,37.5,196z M49.9,192.3c-0.5-1-0.8-6.2-0.9-11.7l0-10l-3.2-0.7c-1.8-0.4-3.5-0.4-3.8-0.1
		c-0.3,0.3-0.5,4.2-0.5,8.8c0,7.6,0.2,8.3,2.2,9l2.2,0.7l-2.2,0.4c-1.6,0.3-2.2,1.2-2.2,2.9c0,2.2,0.4,2.4,4.6,2.4
		C50.2,194,50.7,193.8,49.9,192.3L49.9,192.3z M35.9,191.5c1.6-1.6,1.5-3.2-0.3-13.2c-0.9-5.1-0.1-17,1.4-20.5
		c0.6-1.4,0.2-1.8-1.9-1.8c-1.4,0-2.6-0.5-2.6-1.1c0-0.7,1.1-0.9,3-0.5c1.6,0.3,3.2,0.2,3.6-0.4c0.3-0.5,0-1-0.7-1.1
		c-5-0.4-8.8,2-8.8,5.6c0,1.2-0.8,3.7-1.7,5.6c-2.8,5.5-2.4,16.2,0.9,23.2C31.5,193.2,33.2,194.2,35.9,191.5L35.9,191.5z M31,188.9
		c-1.1-1.7,2.3-4.6,3.7-3.2c0.6,0.6,0.9,1.8,0.5,2.7C34.5,190.3,32,190.5,31,188.9L31,188.9z M153.9,179.5c0.5-1.2-0.4-1.5-4.1-1.5
		c-4.6,0-5,1.3-0.8,2.3C152.6,181.2,153.3,181.1,153.9,179.5L153.9,179.5z M156,175c-0.3-0.6-2.3-1-4.3-1c-2.8,0-3.3,0.3-2.2,1
		C151.5,176.3,156.8,176.3,156,175z M158.5,172c0-0.6-0.8-1-1.8-1c-1.5,0-1.5,0.2-0.2,1C158.4,173.2,158.5,173.2,158.5,172z
		 M163,168c1-1.7-5.2-1.6-6.9,0.1c-0.6,0.6,0.5,0.9,2.7,0.9C160.8,169,162.7,168.6,163,168L163,168z M50.5,166.5
		c0-1.6-6.4-2.2-7.4-0.6c-0.9,1.4,0.5,2.1,4.1,2.1C49.5,168,50.5,167.6,50.5,166.5L50.5,166.5z M80.5,167c0-0.6-0.4-1-1-1
		s-1,0.4-1,1s0.4,1,1,1S80.5,167.6,80.5,167z M185.1,165.9c0.9-1.5-2.2-1-3.5,0.5c-1,1.2-0.8,1.3,0.9,0.9
		C183.6,167,184.8,166.4,185.1,165.9L185.1,165.9z M51.9,162c-1.4-1.3-6.6-1.6-7.1-0.3c-0.2,0.7,0.9,1.3,2.9,1.5
		C51.5,163.6,53.1,163.2,51.9,162L51.9,162z M55.3,158.3c0.4-1.3-6-2.7-8.4-1.8c-2.1,0.8-1.3,1.6,2.8,2.6
		C53.7,160,54.8,159.8,55.3,158.3z M194,153.8c2.1-3.3,2.6-7.3,1.1-9.3c-1.2-1.6-1.4-1.6-3.7,0.8c-5.6,6-5.7,6.3-3.2,8.9
		C190.4,156.6,192.2,156.5,194,153.8L194,153.8z M57,154c-0.3-0.6-2.5-1-4.8-1c-3.1,0-3.8,0.3-2.7,1C51.6,155.3,57.9,155.3,57,154z
		 M78.5,152c0-0.6-0.7-1-1.5-1s-1.5,0.4-1.5,1s0.7,1,1.5,1S78.5,152.6,78.5,152z M176.8,151.7c-1.2-0.7-2.9-2.2-3.7-3.3
		c-1.9-2.7-2.8-11-1.5-13.4c0.7-1.3,0.7-2,0-2c-3.1,0-2-11.6,3.9-43.3c1.8-9.6,0.4-26.4-3-35.2c-2-5.3-6.1-13.2-7.7-15
		c-1-1.1-3-3.7-4.6-5.7c-4.7-6.3-18.6-13.4-27.9-14.3l-5-0.5l6.1,6.2c3.3,3.4,7.9,8.7,10.1,11.7c4.2,5.7,14,24.4,14,26.6
		c0,0.7,1.5,4.5,3.4,8.6c8,17.4,10.5,25.2,8.7,26.3c-1.2,0.8-3.9-4.2-6.7-12.5c-3.9-11.6-17.5-39.9-23.3-48.4
		c-10.7-15.5-26.4-24.7-46.6-27c-10.1-1.2-22.9,0-25.9,2.2c-0.6,0.5-2.3,1.2-3.8,1.5c-2.9,0.7-12.2,6.7-15.5,10.1
		c-4,4.1-11.1,15.2-13.5,21c-4.2,10.7-2.9,40.5,2.2,51.1c0.5,1.1,2.7,3.9,4.9,6.3c3.5,3.9,4.1,4.2,6.2,3.1c1.3-0.7,2.5-1.4,2.7-1.5
		c0.2-0.2-1.8-3.6-4.4-7.5C43.4,93,40,86,38.3,81.2c-2.6-7.5-2.9-9.9-2.9-19.7c0-11.8,0.1-12.1,5-22.7C45.4,28,56.5,18.2,69,13.7
		c6.1-2.2,17.9-3.4,19.7-2c0.7,0.6,3.7,1.3,6.6,1.7c2.9,0.4,6.1,1.1,7,1.6c0.9,0.5,3.7,1.8,6.2,2.8s5.4,2.9,6.4,4.1
		c1,1.2,2.7,2.1,3.8,2.1s1.8,0.4,1.8,0.9c0,0.5,2.4,3.3,5.3,6.2c9.6,9.7,19.4,25.9,23.8,39.2c1.1,3.4,2.7,7.6,3.5,9.3
		c0.8,1.7,1.4,3.5,1.4,3.8c0,0.4,0.6,2.1,1.4,3.8c3,6.8,9.7,29,10.5,35.2c0.5,3.5,1.2,7,1.7,7.6c0.4,0.7,1,4.7,1.4,8.9
		c0.8,8.7,3.5,14,7.3,13.9l2.2,0L176.8,151.7L176.8,151.7L176.8,151.7z M62,151.1c0.5-0.1,0.1-0.6-1-1c-2.7-1.2-8.3-1.2-9-0.1
		C51.2,151.4,56.9,152,62,151.1L62,151.1L62,151.1z M42.5,150c0-0.6-1.2-1-2.8-0.9c-2.4,0.1-2.5,0.2-0.8,0.9
		C41.8,151.2,42.5,151.2,42.5,150z M180.9,148.5c-0.3-0.8-0.8-1.5-1-1.5s-0.4,0.7-0.4,1.5s0.4,1.5,1,1.5S181.2,149.4,180.9,148.5z
		 M49,146c-0.3-0.6-1.7-1-3-1s-2.7,0.4-3,1c-0.4,0.6,0.8,1,3,1S49.4,146.6,49,146z M176.9,141.8c0.7-6.1,0.7-10.8,0-9
		c-0.3,0.7-1.1,1.2-1.9,1.2c-1.5,0-1.9,4.4-0.8,9.9C175.1,148.5,176.2,147.7,176.9,141.8L176.9,141.8z M48.7,137.5
		c-0.2-1.9-0.6-3.5-0.8-3.5c-0.2,0-0.4,1.6-0.4,3.5s0.4,3.5,0.8,3.5S49,139.5,48.7,137.5z M181.3,133.3c-0.2-1.5-0.4-0.5-0.4,2.2
		c0,2.8,0.2,4,0.4,2.8S181.5,134.8,181.3,133.3L181.3,133.3z M57.8,124.3c0.8-1.6,1.2-5.6,1.1-9.7c-0.2-9.2,2.8-28,5.4-34
		c1.2-2.6,2.1-5.5,2.1-6.5c0-2.1,10.8-24,11.9-24c0.4,0,1.6-1.4,2.7-3.1c1.1-1.7,2.7-4.3,3.7-5.8c1-1.4,2.2-3.6,2.7-4.8
		c0.5-1.2,1.8-2.4,2.8-2.8s2.5-2,3.3-3.7c0.8-1.7,2.9-3.9,4.7-4.9c1.8-0.9,4-2.3,4.8-3c1.5-1.2,1.5-1.4-0.1-2.6
		c-1.5-1.1-2.4-0.8-6.1,1.7c-2.4,1.7-4.4,3.5-4.4,4c0,0.6-2.5,3.3-5.6,6.1c-6.5,6-11.3,13.1-17.1,25.3c-0.8,1.7-2.3,4.7-3.4,6.7
		c-1.1,2-2,4.4-2,5.2c0,0.8-0.9,3.1-2,5.1c-1.1,2-1.7,4-1.4,4.6c0.3,0.5,0.2,1.5-0.3,2.2c-2,2.5-5.5,18.8-5,23.3
		c0.5,4,0.3,4.6-2.1,5.7c-1.7,0.8-2.5,2-2.4,3.2c0.1,1.1,0.5,5.2,0.9,9.2c0.6,6.6,0.8,7.1,2.5,6.2C55.7,127.4,57.1,125.7,57.8,124.3
		L57.8,124.3z M44.5,126c0-2.6-3.3-2.3-3.8,0.3c-0.2,1.2,0.3,1.7,1.7,1.7S44.5,127.4,44.5,126z M49.5,124.8c0-5.6-1.2-13.8-2.1-13.8
		c-0.7,0-0.7,2.2-0.1,14.2C47.6,129.2,49.5,128.7,49.5,124.8L49.5,124.8L49.5,124.8z M185.5,126.8c0-0.8-1.9-1.3-5.5-1.5
		c-5.1-0.2-6.5,0.4-4.8,2.1C176.5,128.6,185.5,128.1,185.5,126.8L185.5,126.8z M181.2,114.3c-0.3-1-0.4,0.1-0.4,2.3s0.2,3,0.5,1.7
		S181.5,115.2,181.2,114.3L181.2,114.3L181.2,114.3z M182.5,103.8c0-1.5-0.4-2.8-1-2.8s-1,1.9-1,4.2c0,3.1,0.3,3.8,1,2.8
		C182.1,107.2,182.5,105.3,182.5,103.8z M54.5,91.6C54.6,86.9,62.8,61.7,67,53c5.3-10.8,9.9-17.1,19.8-26.6l9.5-9.1l-5.8-1.6
		c-7.1-2-12.5-2-15.8-0.1c-1.4,0.8-3.2,1.4-4.2,1.5C67.7,17,56,24.1,51.6,28.3c-3.8,3.6-7.9,11-11.4,20.4C37.8,55,37.7,69.2,40,76.6
		c1.8,6,1.9,6.1,5.4,6l3.6-0.1l0.8,7c1.2,9.7,1.6,10.6,3.2,7C53.8,94.9,54.5,92.7,54.5,91.6L54.5,91.6z M185.3,96.2
		c-0.4-2.2-5.1-2.6-6.7-0.7c-1.3,1.6-1.3,1.6,2.9,2.8C183.9,99,185.7,97.9,185.3,96.2L185.3,96.2z M47.2,88.3
		c-0.2-1.5-0.7-2.6-1-2.5c-0.4,0.1-0.7,0.5-0.7,0.8V89c0,1.1,0.5,2,1,2C47.1,91,47.4,89.8,47.2,88.3z"/>
</g>
</svg>
