<svg id="Layer_1" data-name="Layer 1" xmlns="http://www.w3.org/2000/svg" viewBox="0 0 500 500"><defs><style>.cls-1{fill:#e31f28;}</style></defs><title>pigeon</title><path class="cls-1" d="M430.14,71c6.67,2.38,13.47,4.47,20,7.23,4.49,1.89,8.65,4.64,9.41,10.27a3.22,3.22,0,0,0,.87,1.72c10.6,10.62,11.67,25.81,18.22,38.38,1.94,3.74,2.56,8.37,2.95,12.67.36,4-1.67,5-5.06,2.89a58.56,58.56,0,0,1-6.91-5.36,25.65,25.65,0,0,0-19.33-6.37c-5.64.38-6.83,1.69-7.59,7.37-2.15,16.1,1.81,31.28,6.62,46.38,5.66,17.78,12.55,35.41,12.34,54.4-.17,15.55-.69,31.21-2.73,46.6-3.1,23.29-17.51,39.66-35.95,52.81-6.59,4.71-13.54,8.92-20.3,13.4-1.67,1.1-3.23,2.37-5.82,4.29,4.17.52,7.44.14,9.75,1.45,2.13,1.21,3.24,4.24,4.85,6.54,7.64-3.9,12.1-3.55,15.89,2-12.2,6.51-24.75,0-38,.85,1.35,2.28,2.45,3.61,3,5.13a65.23,65.23,0,0,1,2.78,10c.16.91-1.49,2.12-2.32,3.2-.92-.77-1.87-1.51-2.77-2.3-1.36-1.17-2.59-2.52-4.05-3.54-2.37-1.68-5.2-2.82-7.29-4.77-6.1-5.7-13.39-7.44-21.41-7.81-17.82-.82-35.67-1.33-53.41-3-19.09-1.82-37.76-5.93-55.29-14.31-2.7-1.29-6.1-1.11-9.17-1.61-.22,3.23-.49,6.47-.62,9.71a15.92,15.92,0,0,1,.09,3.21c-2.94-9.11-10.23-11.22-20-12.38,13.89,8.81,15.19,23.8,23.07,35.55-6.15,1.57-12.16-2.73-18.53,2.43,3.17.76,5.3,1.45,7.48,1.75a53.77,53.77,0,0,0,5.83.16c7.59.2,8.62,1,11.25,8.15a37.1,37.1,0,0,0,2,4L265.81,397l.42-1.29a68.06,68.06,0,0,0-6.64-3.85,88.43,88.43,0,0,0-8.51-2.7l10.14-3.47c-9.06-2-16.21-5.93-20.32-14l1.19-1.68c1.59,1.27,3.52,2.29,4.71,3.87,3.3,4.41,7.77,5.92,13,6.6,7.69,1,15.4,2.12,22.94,3.88,4.56,1.07,8.46,3.5,9.91,8.94.62,2.34,3.31,4.28,5.35,6.06,4.75,4.14,6.46,9.06,4.92,15.09-.61.1-1.08.28-1.16.17-4.7-6.09-11.46-7.16-18.49-8.05-6.42-.81-12.75-2.32-19.12-3.51a16,16,0,0,0-2.88-.45c-3.38,0-7.67-1.5-8.46,3.81-.61,4.08,4.06,8.14,8.73,7.5,2.74-.38,4.23.31,4.28,3,0,1.83-.06,4.15-1.11,5.35-.66.75-3.69.43-4.83-.46-3.62-2.85-7.66-5.69-10.05-9.47-3.95-6.23-8.95-9.11-16.14-8.56a5.4,5.4,0,0,1-2.4,0,11.43,11.43,0,0,1-2.36-1.92c.77-.66,1.57-1.9,2.32-1.88,3.51.11,7,.58,11.09-.21-1.78-1-3.46-2.41-5.38-2.93a46.22,46.22,0,0,0-25.44.05c-1.58.46-3.36.25-5,.36,0-1.87-.38-3.91.22-5.58,2-5.53,8.31-11.43,15.83-10.22,8.71,1.41,11.85-2.92,7.12-10.4-9.53-15.05-19.93-29.56-30.33-44-5.1-7.11-12.14-13-16.33-20.55-10.64-19.13-27.63-31.57-44.18-44.54-4-3.12-9.13-4.71-13.54-7.33-2.28-1.35-4-3.56-6.2-5.14-8-5.86-16.1-11.53-24-17.41-24.25-17.95-48.56-35.83-72.61-54C15,172.32,8.68,165.5,6.66,155.83v-2c4-7.91,7.28-16.25,12.08-23.61,4.44-6.82,11.81-9.61,20-8.32,18.56,2.9,37.16,5.62,55.59,9.21,21.14,4.12,42.12,9,63.13,13.73,20.59,4.62,41.55,4.31,62.43,5.17,28.35,1.18,56.72,2.22,85,4,10.36.67,21.16,1.4,29.86,8.68a3.8,3.8,0,0,0,3.47-.06c12.31-7.6,23.44-15.84,26.72-31.6,2-9.73,6-19.13,9.83-28.38,5.4-13,15.65-21.3,28.59-26.25,5.55-2.11,11.31-3.68,17-5.5ZM261.72,319.09l-1.32,2.42a76.69,76.69,0,0,0-7.82-4.1c-1.81-.72-3.92-.67-5.9-1,.82,1.81,1.56,3.66,2.49,5.41.26.49,1.06.71,1.64,1,8,3.95,16.26,6.13,25.32,5.6,3.5-.2,7.66.4,10.57,2.19,12.19,7.54,25.18,4.4,37.92,4.68l1.73-2.59c-2.17-1.4-4.64-2.5-6.45-4.27a105.15,105.15,0,0,1-9.73-10.84,146.36,146.36,0,0,1-10.73-15.49c-6.63-11.43-12.85-23.09-19.18-34.7a6.85,6.85,0,0,1-.81-3.29c.51-17.67.95-35.34,1.74-53a12,12,0,0,1,6.34-9.79c-.83,9.28-1.61,18.77-2.6,28.24-.3,2.84-.31,6.5-2,8.23-4,4-2.71,8-.38,11.32a11.63,11.63,0,0,1,2,10,13.88,13.88,0,0,0,3.31,13.12c1.16,1.31,2.73,2.95,2.75,4.45.07,6.28,4.78,8.72,9,11.49,1.1.72,3,.28,4.47.38-.11-1.51.18-3.2-.4-4.51-2.41-5.49-5.27-10.8-7.62-16.31-2.68-6.29-3.8-12.71-.9-19.39.6-1.39.25-3.35-.09-5-.53-2.44-2-4.78-2.07-7.19-.45-15.25,1.37-30,10.93-42.68.7-.93,2.36-1.14,3.58-1.69.4,1.2,1.5,2.79,1.09,3.55a46.81,46.81,0,0,1-5.23,7.52c-4.18,5-6.15,10.31-2.92,16.56,1.71,3.31.89,5.95-2,8.09s-3.51,4.62-1.46,7.56c3.49,5,2.88,10.19,1.82,15.85-.88,4.63-.45,9.62.09,14.36.4,3.51,2.57,6.07,7.56,5-4.94,9.92,6.14,10.7,8.95,17.87l-19.14,5.4c4,4.56,8,8.78,13.94,8.34.53,2.42.49,6.3,1.64,6.69a19.65,19.65,0,0,0,10.51.74c1.44-.36,3-4.47,2.76-6.72-.65-7.26-2-14.47-3.29-21.66-.3-1.67-1.46-3.2-2.26-4.77-1.74-3.42-4-6.68-5.14-10.28-2.42-7.36-4.32-14.9-6.34-22.4a7.94,7.94,0,0,1,.21-2.62c1,.34,2.24.41,2.8,1.08a11.69,11.69,0,0,1,2,3.87c1.48,4.54,1.61,9.76,6.53,12.53.39.22.42,1.15.54,1.77,1,5,1.7,10,3,14.91.93,3.53,8.45,13.34,12,16.07-2.13,1.69-4.44,3-6,5a5.34,5.34,0,0,0-.57,4.83c.63,1.09,2.89,1.48,4.5,1.69a16.15,16.15,0,0,0,4.31-.53l.6,1.27c-1.94,1.83-4,3.58-5.81,5.5-3.26,3.36-2.43,6.91,2.08,8,2.28.53,4.79,0,7.19.09,2.74.08,5.92-.71,7.64,4.27-5.2.27-10.35,1.77-14.48.33-3-1.05-8.25-1.13-9.1-7-.42-2.87-4.29-2.9-7-1.33-3,1.7-2.53,4.13-.56,6a154.36,154.36,0,0,0,11.68,10.15c3.1,2.44,6.72,2.36,10.1.51,16.36-9,28.63-21,31.45-40.68,1.27-8.9,3.66-17.65,5.42-26.49a6.21,6.21,0,0,0-3.95-7.49c-1.18-.5-2.62-.48-3.73-1.08-2.47-1.33-3-3.67-.26-4.65,6-2.15,3.16-5.07,1.26-8.1-2.07-3.29-4.33-6.46-6.18-9.86-2.38-4.4-1.68-11-8.93-11.79-.63-.06-1.16-1.07-1.73-1.65-5.8-5.88-5.36-12.41-1.32-19.43-2.69,0-4.91.55-6.69-.1-5.58-2-11.89-3.48-16.28-7.13-6.47-5.38-13.69-8.6-21.22-11.61-3.12-1.24-6.11-3.22-9.33-3.68-7.05-1-14.21-1.16-21.31-1.86a60,60,0,0,1-7.31-1.61l.26-2.41c6.26,0,12.52.09,18.77,0,9.88-.18,19.77-.36,29.64-.85,3-.15,5.88-1.33,8.81-2-.08-.49-.17-1-.26-1.47-7.88-3.32-16.3-.13-24.92-.95l3.83-5.17c-4.72,1-8.21,1.6-11.62,2.51s-6.47,2.06-10.39,3.33l4.39-7.56-.93-1c-2.42,1.1-4.86,2.18-7.27,3.31-3.81,1.77-7.57,3.68-11.45,5.28-1,.4-2.38-.16-3.58-.28a26.08,26.08,0,0,1,1.12-3.84c1-2,2.13-4,3.21-6a49,49,0,0,0-10,5.18c-2.4,1.6-4.58,3.53-6.86,5.31,3,1,6.1,2,9.11,3.08,1.54.56,3,1.36,4.51,2.05-1.41,1-3,3.11-4.19,2.91-3.72-.64-8.07-1.25-10.68-3.57-2.43-2.15-2.93-6.47-4.45-10.26L236.86,164c-.79-2.46-1.16-6.06-2.16-6.25-2.6-.48-6.69-.44-8,1.17-2.52,3.14-4.82,2.35-7.68,1.78-7.29-1.45-14.57-3-21.91-4.1-11.22-1.6-22.62-2.14-33.71-4.33-19.82-3.91-39.38-9.19-59.21-13-15.43-3-31.1-4.62-46.68-6.75a50.48,50.48,0,0,0-6.85,0l-.42,2.36c3.68,1.13,7.3,2.67,11.06,3.32,16,2.75,32.16,4.46,47.91,8.08,12,2.75,25,2.27,35.61,10.07,1.32,1,3.41,1,5.17,1.22,5.76.81,11.54,2.12,17.32,2.17,24.94.2,49,7.25,73.66,9.43a5.56,5.56,0,0,1,1.5.64,36.88,36.88,0,0,1-12.89,2.09c-5-.11-10-1.35-15-1.23-5.68.13-11.34,1.22-17,1.89.31,5.41,5.68,9,12.37,8.61,1.33-.07,2.7.74,4.06,1.15-1,1.1-1.7,2.76-2.9,3.22-7.23,2.75-8.42,6.94-3.54,13.12,1.32,1.68,2.44,3.53,3.65,5.31l-1.12,1.45c-2.54-1.38-5.2-2.6-7.6-4.2s-4.68-3.67-6.42-5.05l-5.47,8.36-1.37-.66c.2-1.56.35-3.12.62-4.66,1.07-6,.52-6.62-5.29-8.85-2.73-1-5-3.2-7.64-4.63-1.06-.58-3-1.22-3.61-.71-2.71,2.29-6.39,4.67-7.11,7.64-.48,2,3.37,5.12,5.5,7.53.8.91,2.35,1.12,3.38,1.88,1.67,1.24,3.2,2.67,5.87,5-2.92.33-4.29.88-5.34.52-2.55-.89-4.86-2.7-7.44-3.2-2.39-.46-5,.31-7.54.54.39,2.17.18,4.76,1.32,6.41,1.61,2.33,4.11,4.1,6.43,5.85,2.53,1.91,5.28,3.52,8.75,5.78l-16-1.88-.64,1.78c1.62,1.39,3,3.17,4.9,4.09,4.78,2.37,9.73,4.42,14.65,6.5,3.8,1.6,5.45.05,5.46-3.89,0-4.55,0-9.12.33-13.64a6.14,6.14,0,0,1,2.4-4.31c3.32-1.89,15.83,2.56,18.95,7.28a96.17,96.17,0,0,0-10-.39c-1.91.12-4.64.59-5.4,1.87s-.26,4.29.81,5.65c1.84,2.34,4.51,4.05,6.91,5.92,1.54,1.21,3.23,2.23,4.85,3.34-.29.66-.57,1.32-.85,2-2.62-.89-5.21-1.9-7.87-2.6a34.08,34.08,0,0,0-5.18-.59c0,1.93-.54,4.18.26,5.7,1.18,2.22,3.26,4,5.11,5.8,2.18,2.12,4.52,4.07,7.62,6.84L189.71,250c1.53,9.09,9.71,10,14.88,14-2.74,2.38-7.38,1.9-7.15,5.27l13.93,7.16-8.55,4.74c3.19,3.17,6.33,5.13,9.94,3.1,3.43-1.92,3.48-5.58,2.52-9.12a11.32,11.32,0,0,0-1.06-3.21c-2.42-3.81-2-7.35.7-10.77,1.71-2.14,1.47-3.75-1.15-5-4.13-1.9-6-5.66-4.87-9.64,3.35-12.21,7.42-24.16,18.09-32.38.9-.7,1.75-2.83,1.34-3.64-3.19-6.26-6.89-12.34-14.08-14.53-3.92-1.19-4.37-3.37-3.92-6.78l14.24,3.21c-.26,1.53-1,3-.56,4,1.11,2.59,2.26,5.54,4.32,7.16.95.75,4.48-.75,6.12-2.11,4.69-3.88,8.33-8.52,8.92-15.07.15-1.61,1.63-3.94,3-4.46,4.91-1.8,10.06-2.95,15-4.32-1.16,4.8-2.14,8.82-3.26,13.41-2.07.13-3.47-1.43-4.28-4.32-.36-1.31-1.78-2.32-2.73-3.46-.69,1.48-2.23,3.21-1.89,4.39.78,2.65,2.48,5,3.92,7.74a7.27,7.27,0,0,1-1.85,1.16c-5,1.39-9.94,2.79-9.07,9.79.08.66-1.21,1.86-2.08,2.14-.55.18-1.74-.72-2.22-1.42a15.62,15.62,0,0,1-1.31-3.32l-1.64-.35c-.9,2.44-3,5.28-2.42,7.22,1.12,3.51,4.75,3.25,7.89,2.14,1.52-.53,2.94-1.36,4.46-1.92,1.8-.66,3.65-1.17,5.48-1.74-.73,1.86-2.29,2.47-2.9,3.6a62.12,62.12,0,0,0-4.13,9.47c-.24.72,1,2.59,1.81,2.83a3.87,3.87,0,0,0,3.3-1.24c.83-1,.72-2.78,1.4-4,1.18-2.12,2.66-4.06,4-6.07l2.15.83c0,4.59.17,9.18-.11,13.75a4.33,4.33,0,0,1-2.43,3.22c-3.62.8-3.36,2.93-2.41,5.47,1.72,4.57,2.25,8.74-.65,13.42-1,1.57.74,6.51,2.62,7.72,2.63,1.7,6.58,1.35,10,1.87.14-2.39.38-4.77.4-7.16,0-3.79-1.58-8.6.17-11.17a33.79,33.79,0,0,0,5.7-17.77,8,8,0,0,1,.86-2.28l1.33,0c.74,3.89,1.64,7.77,2.12,11.69a5.26,5.26,0,0,1-1.3,3.92c-5.85,5.59-6.44,11.64-1.51,18,1.11,1.44,2.2,2.88,3.64,4.77a12.85,12.85,0,0,0-2.77.49c-1.77.84-4.53,1.45-5,2.78-.49,1.52.75,4,1.9,5.55s3.16,2.73,4.84,4,3.49,2.51,5.44,3.91c-2.62,1.26-5.25,1.7-6.38,3.25-2,2.68-4.06,2.67-6.78,2.11a17.12,17.12,0,0,0-5.29-.33,3.49,3.49,0,0,0-2.56,1.74c-.27.8.28,2.61.94,2.89,5.84,2.54,5.48,7.36,4.82,12.34-.49,3.72,1.49,5,4.82,4.95,3.51,0,5.88-1.21,6.23-5.23.29-3.29.66-6.79,5.19-8.19.1,1.52.24,2.58.22,3.64-.11,8-.08,7.85,7.59,10.13,1.1.33,2,2.3,2.41,3.69.32,1.21-.27,2.66-.49,4.29,3.9-.13,8.12-3.2,9.9,2.4,1.07,3.33,2.85,5.36,6.8,4.48.78-.18,1.84.88,2.76,1.36-.54.93-.87,2.21-1.68,2.69a29.53,29.53,0,0,1-5,1.91l9.29,5.09c-.22.5-.45,1-.68,1.49-4.32.3-8.48.51-11.69-3.94a13.88,13.88,0,0,0-5.28-3.78c-5.65-2.74-10.07-6.73-11.85-12.78-.63-2.18-.49-4.48-3.32-4s-5.27,1.62-7.89,2.47a49.41,49.41,0,0,0,2.83,5.69c.68,1,2,1.64,3,2.48,4.15,3.48,3.93,5.26-.47,7.82-1.74-2.4-3-6.12-5.2-6.73-4.39-1.21-4.95-3.29-4.08-7s-.66-5.51-4.56-5.52c-9.53,0-18.45-1.68-24.79-9.84-.28-.37-.83-.85-1.17-.8-2.17.36-4.32.86-6.47,1.31.68,1.57,1,3.62,2.12,4.63,3.69,3.2,7.49,6,8.53,11.38.49,2.52,2.63,2.95,4.92,1.2,1.15-.87,3.07-2.16,3.91-1.75C253.7,314.18,257.67,316.72,261.72,319.09Zm-83.37-46.44,1.66-1.47c-3.57-5.4-6.79-11.08-10.82-16.1a43.54,43.54,0,0,0-9.9-8.4c-4.55-3-9.77-5.11-14.19-8.3-2.91-2.1-4.92-5.45-7.33-8.24l1.21-1.27L160.31,243c2.37-4.79.43-9.19-4.84-11.4a66.73,66.73,0,0,1-19.78-12.91l.77-1.29,19.27,9.78,1.26-1.26c-.6-2-1.11-4.14-1.83-6.16-.65-1.81-2.22-3.56-2.19-5.31.12-6.58-4-10.08-8.87-12.95-7.94-4.72-16.08-9.09-24.1-13.69-5.14-2.95-10.21-6-15.31-9.06l.59-1.17c4.37,1.85,8.77,3.64,13.12,5.57,10.66,4.73,21.25,9.61,32,14.24,2.21,1,4.77,1.11,6.27,1.44,1.57-4.55,2.24-8.49,4.19-11.62,2.47-4,1.82-6.38-2.12-8.07-9.07-3.9-18.22-7.59-27.3-11.44-6.81-2.89-14.19-5-20.08-9.19a21.83,21.83,0,0,0-9.31-3.83c-13.51-2.61-27.16-4.74-40.43-8.29a65.64,65.64,0,0,0-30.72-1c-5.3,1.09-6.28,4.74-2.2,8.31,5.7,5,11.43,10.15,19.42,11.38A8.38,8.38,0,0,1,52,166.83c15.8,13.19,31.53,26.47,47.3,39.69Q138.81,239.61,178.35,272.65Zm180.89-94.06c0,5.64-1.16,10.39.34,14s5.63,6,9.13,9.44c.6-2.91,1-4.74,1.57-7.56,7.37,9.23-3,15.9-2,23.9h3.94c-.45,2.21-.81,4-1.21,6h4c-.28,1.59-1,3.09-.62,4.09,1.58,3.72,2.75,8.22,5.6,10.61s7.72,2.95,12,4.4c-3.66-10.23-3.24-22.92-16.46-28-.85-.33-1.9-2.5-1.58-3,.65-1,2.35-2.21,3.27-2,2.12.54,4.55,1.43,5.91,3a137.8,137.8,0,0,1,11.9,15.27c3.24,5,6.5,10.47,2.32,15,1.07,2.74,1.63,4.39,2.36,5.95.37.79,1.17,1.37,1.58,2.15.89,1.68,2.12,3.37,2.37,5.16.52,3.84.33,7.77.79,11.62.33,2.77,1.94,3.82,4.85,2.62,7.08-2.9,12.08-12.68,10.06-21.34l-12.74,11c.81-4.18,1.23-7,1.94-9.78,2-7.94,3.75-15.82.41-23.9-.4-1,.63-2.54,1.31-4.92L395.79,211.6c1.94-2,5-4.38,6.91-7.43,2.14-3.32,1.81-7.27.51-11.09-6.51,2.21-8.89,4.36-9.79,8.86l7.36-3.69c-.27,6.06-3.59,7.9-8.44,5.63a71.37,71.37,0,0,0-7.25-2.53c-1.44-1-3.1-1.66-4.58-2.58a16.83,16.83,0,0,1-3.81-3c-1.92-2.19-3.61-4.57-5.4-6.88l-1.06.51c.45-2.6.9-5.21,1.61-9.34l-7.56,8.62C362.5,185.08,361.18,182.43,359.24,178.59ZM256,304.06c2.55-5.5,1.51-10-.19-14.44-1.89-4.89-4.35-9.58-5.88-14.56-1-3.34-.45-7.15-1.34-10.56-.52-2-2.2-4.64-3.91-5.15s-5.59.54-6.16,1.9c-.77,1.85.17,4.93,1.31,6.95s3.48,3.53,4.85,4.83c-2.56.86-6.55,1.38-6.68,2.4-.31,2.36.89,5.18,2.2,7.38.91,1.53,3,2.38,4.6,3.46,1.07.72,2.24,1.3,4,2.28-6.66,1.12-10.93-.73-14.86-5.37-2.27-2.68-6.28-4.34-9.82-5.36s-5.22,1.71-3.22,4.53a28,28,0,0,0,8.56,7.91c5.41,3.1,11.38,5.2,17,8C249.54,299.8,252.42,301.87,256,304.06ZM201.36,189.68c-1.59-2.34-2.39-4.32-3.84-5.51-5.12-4.26-11.13-8.08-2.18-16l-58.11-5.76a5.65,5.65,0,0,0,3.06,3.55c8,3.39,16,6.89,24.22,9.8,1.92.68,4.74-.41,6.88-1.31,2.92-1.23,5.59-3.07,9.47-5.27-.21,6.94-1.07,12.51,4.74,15.79C190.16,187.53,194.36,191,201.36,189.68ZM228,262.94c-2.89-.32-4.29-.77-5.59-.55-1.63.27-4.21.76-4.51,1.73a5.85,5.85,0,0,0,1.34,5,25.45,25.45,0,0,0,7.32,4.58c4.14,1.78,6.33.58,6.53-3.94a147.81,147.81,0,0,0-.59-16c-.28-4.17-2.32-6.81-6.71-7.69-2.49-.5-4.75-2-7.19-2.83-1.24-.42-3.53-.89-3.82-.41-.8,1.35-1.57,3.54-1,4.73a28.31,28.31,0,0,0,5.12,6.95C221.44,257.17,224.28,259.49,228,262.94Zm-38.42,12.65c1.76,3.9,2.4,8.4,5,10.53,8.68,7.14,18.05,13.42,27.13,20.07,1.57,1.16,2.94,2.59,4.48,3.79,1.93,1.49,3.95,2.86,5.92,4.29l1.47-1.64c-2.2-3.09-4.36-6.21-6.61-9.27-2.09-2.84-5.15-5.33-6.18-8.49-1.37-4.19-3.2-5.47-7.54-5.34-8.67.25-13.53-3.34-16.56-11C195.43,275.25,193.15,274.22,189.62,275.59ZM427.17,132.51l1.45.25a56.93,56.93,0,0,0,2.19-7.52c1-6.46-.95-9.19-6.9-11.88-2.26-1-4-3.2-6.05-4.71s-3.83-3.23-6-3.69c-3.2-.68-5.19.89-4.17,4.89l5.07-.78c-1.77,9.16.7,17,5,25.24,1.33-3.65,2.27-6.68,3.55-9.57,1.2-2.72,2.76-5.29,4.16-7.93l1.7.59Zm37.32-4.79c-1.46-2.08-2-3-2.75-3.89-2-2.34-1.76-4.08.84-6,5.3-3.85,5.25-5.74.22-11-2.72,3.78-2.73,3.83-10.19,2.56-3.06-.52-5,0-5.31,3.62s1.43,4.68,4.55,4.54c1.72-.07,3.43-.25,5.41-.4C454.69,122.18,455.05,122.74,464.49,127.72ZM168.37,239.66c3.35,5,8.48,8.34,12.33,7.64a6.28,6.28,0,0,0,4.2-3.07c.44-1.08-.7-3.43-1.83-4.41C179.89,237.07,172.54,237.1,168.37,239.66Zm99.46,36.54c-2.28-3.68-4-7.22-6.42-10.07-1.55-1.8-4.81-4.51-5,1.39,0,.53-.86,1.31-1.46,1.49-4,1.19-2.2,3.22-.56,4.8C257.79,277.08,261.9,277.79,267.83,276.2ZM236.4,240.39l.17-2.56c-4.18-1.8-8.32-3.67-12.55-5.33-.9-.36-2.78-.27-3,.23-.61,1.16-1.15,3.44-.57,4,2.41,2.14,5.05,4.58,8,5.36C230.77,242.66,233.72,241,236.4,240.39Zm-1.91-9.48,4.67-11.19c-5.61-2-11.54-1.07-12.8,1.81S228.52,228.51,234.49,230.91Zm183.43-7.72c-2.22-5.88-3.79-10.56-5.83-15-.38-.82-2.81-1.34-4-1-1.93.58-3.61,2-5.89,3.35ZM247.28,234.57l-4.69-5.51c-1.34,1.37-4,3.14-3.76,4.05.74,2.53,2.69,4.72,4.16,7Zm.13,14.78-5.91-5.07c-1.1,1.33-3.38,3.22-3.07,3.89,1,2.24,3,4,4.64,6Zm-59.68,11.77c-.9-5.3-2.25-8.56-6.73-9a5,5,0,0,0-3.57,1.75c-.34.41.55,2.63,1.41,3.13A94.57,94.57,0,0,0,187.73,261.12Zm115.12,90.19-1-2a46.16,46.16,0,0,0-7.32,2.42c-.73.36-1.22,2.77-.73,3.58a3.64,3.64,0,0,0,3.55.85A41.17,41.17,0,0,0,302.85,351.31Zm59.22-7.8H348.21C353,347.68,356.73,347.79,362.07,343.51Zm26.34-156.39-1.08.41c.39,2.56.79,5.13,1.22,8,6-3.77,7.41-7.05,4.91-10.66-.42,1.93-.83,3.84-1.39,6.39Zm-98,217.45.77-2.76-11.57-2.91-.58,2.14Zm-54.77-70.09,1.08-1.11c-.86-5.19-2.5-6.6-7.77-5.5Zm161.42-70.92c-2.46-1.59-3.84-3.07-4.49-2.79-1.6.67-2.86,2.14-4.25,3.29.88.69,1.84,2,2.61,1.94C392.58,265.79,394.1,264.82,397.08,263.56Zm26.72,7.55-1.41-1.65-8.86,7,1.45,1.82Zm-99.28,82.53a35.68,35.68,0,0,0-4.2-3.62c-.17-.11-2.3,2-2.13,2.33a32.91,32.91,0,0,0,3.52,4.45ZM271.93,336.1l-3.11,1.3q1.21,3.06,2.42,6.1a23,23,0,0,0,3-1.31C273.62,340.12,272.74,338.12,271.93,336.1Zm88.26-.11h8.56C365.08,331.56,362.57,331.93,360.19,336ZM109.28,223.57l-1.17,1.69,7.44,5.53,1.41-2ZM34.73,128.23l-.63,2.28L44.84,134l.64-1.88ZM279.05,344.47l1.21,1.12c1.44-1.18,3.21-2.14,4.15-3.64.35-.55-1.23-2.34-2.58-4.68Zm97.19-171.72.92,1.84,9.09-4.59-.91-1.81Z"/><path class="cls-1" d="M133.27,411l8.26,4.28c-5.7.71-10,1.09-14.16,1.8-3.18.54-6.26,1.61-9.42,2.22a15.59,15.59,0,0,1-3.83-.23c.28-1.5.23-3.19.95-4.44s2.14-1.77,4.13-3.28c-7.37-.35-13.9-.39-20.37-1-6.11-.61-12.71-.55-16.88-6,2.7-1.69,4.66-3,6.74-4.15a4.24,4.24,0,0,1,2.32,0c11.82,1.45,23.62,3.06,35.45,4.33,8.19.87,16.44,1.22,24.65,1.93a37.58,37.58,0,0,1,5.47,1.25v1.62Z"/><path class="cls-1" d="M357.75,413.65H389l0-1.95L351.77,409l0-.68a31.85,31.85,0,0,1,3.5-.43c9.57-.11,19.14-.3,28.71-.19,4.72.05,9.58-.35,13,4.64,1,1.52,4.42,1.85,6.77,2,13.76.8,27.53,1.36,41.3,2.08,3.11.17,6.21.65,10.4,1.1-6.94,3.64-89.65,1.18-97.62-2.24Z"/><path class="cls-1" d="M242.61,411.43l-5.51,3,4.93,2.41c-2.63,3.72-5.69,3.91-11.58.78l3.69-4.8-50-3.69-.21-.89,13.62-2.54v-.85c-3.53-.27-7.05-.58-10.57-.78-3.73-.22-7.47-.21-11.17-.55-3.5-.33-7-1-10.43-1.52l-.17-2.28c1.92-.73,3.9-2.2,5.75-2.05,8.84.69,17.65,1.81,26.47,2.81a3.25,3.25,0,0,1,1.83.6c7.49,7.29,17.13,5.6,26.18,6.36,3.88.33,7.76.55,11.62,1a27.68,27.68,0,0,1,4.86,1.55Z"/><path class="cls-1" d="M365.11,398.11a58.49,58.49,0,0,1,7.21-.56c12.79.5,25.61,2,38.35,1.44A91.58,91.58,0,0,1,434,400.94c5.38,1.14,11.23.19,16.86.05,4.45-.12,9.17-1.63,12.58,3-32.87.77-65.64.46-98.26-3.18Z"/><path class="cls-1" d="M278.22,419.86c21.24,1.44,42.5,2.65,63.62,5.84-21.43,1.13-42.72-.07-63.94-2.5C278,422.09,278.11,421,278.22,419.86Z"/><path class="cls-1" d="M358.84,401.38c-13.24,1.95-26.49-3.4-39.73.31v-2.92c13.24-2.86,26.49-.34,39.73.12Z"/><path class="cls-1" d="M209.3,418.51H174.72l0-1.81c11.48-3.76,23.06-.85,34.61-.14Z"/><path class="cls-1" d="M445.09,382.34h30.23c-10.08,2-20.08,6.71-30.38,1.5Z"/><path class="cls-1" d="M462.29,370l-15.17-2.54a4.84,4.84,0,0,1-2.31-.58,30.53,30.53,0,0,1-3-3.33c1.27-.74,2.74-2.3,3.77-2.05a54.91,54.91,0,0,1,10.79,3.74C458.49,366.23,460.13,368.2,462.29,370Z"/><path class="cls-1" d="M316.72,416.6c9.66-3.5,18.93-3.5,28.87-3.21C341.3,416.92,323.2,418.9,316.72,416.6Z"/><path class="cls-1" d="M390.49,424.42c7.64-2.6,15.29-2.09,22.92.4C405.79,427.08,398.17,427.52,390.49,424.42Z"/><path class="cls-1" d="M472.52,395.57a36.38,36.38,0,0,1-20.78-.53c0-.41,0-.81.05-1.22h20.78Z"/><path class="cls-1" d="M420.68,389.7c6.15-.86,12.29-1.74,17.78,2C432.08,394.81,426.28,392.93,420.68,389.7Z"/><path class="cls-1" d="M493.41,384.1c-4.23,3.85-7.42,3.85-11.36.25C485.17,380.27,488.94,380.11,493.41,384.1Z"/><path class="cls-1" d="M182.25,391.48h15.5v2c-5.15,1.8-10.3.95-15.46-.4Z"/><path class="cls-1" d="M477.58,364.73c2.22-.12,4.5-.59,6.63-.21,1.16.21,2.06,1.87,3.08,2.88-1.3.74-2.7,2.21-3.88,2.06-2.15-.29-4.17-1.55-6.25-2.41Z"/><path class="cls-1" d="M386,425.61H372v-1.77h14.22Z"/><path class="cls-1" d="M301.05,377.4,314,378.89c-.07.76-.13,1.52-.2,2.28l-13-1Z"/><path class="cls-1" d="M427.11,425.13h13.5C437.32,429.08,432,429,427.11,425.13Z"/><path class="cls-1" d="M317.31,386l-5.47,3.76a13.17,13.17,0,0,1-1.26-2c1.61-1.43,3.36-2.7,5.07-4Z"/><path class="cls-1" d="M350.89,265.3c6.25-6,8.29-5.65,11.2,1.69,1.07,2.68,1.85,5.48,2.74,8.17-6.87,3.69-6.77,5.36,0,12.61-2,3-3.73,5.92-5.81,8.57-.88,1.12-3.35,2.59-3.65,2.32-4.35-4-8.44-3.21-12.81,1.1-1-2-1.94-3.29-2.25-4.73-2.07-9.76-6.82-18.16-12.75-26-.78-1-1.83-2-2.13-3.23a22.54,22.54,0,0,1-.24-4.88,34.8,34.8,0,0,1,4.35,3.09c.78.72.84,2.19,1.6,2.94a42.93,42.93,0,0,1,12.65,24.37c4.82-5.1,5.16-10.27,1.39-15.34-3.08-4.16-3.27-6.36-.55-11.16.94,1.29,1.77,2.32,2.49,3.42,1.34,2,2.29,4.45,4,6,1.43,1.29,3.76,1.59,5.7,2.33-.12-2.36.42-5-.55-7S352.94,266.83,350.89,265.3ZM353.57,280l-1.11.17c.56,2.62.63,5.52,1.89,7.75.64,1.13,3.42,1,5.24,1.49l.33-1.1Z"/><path class="cls-1" d="M322.72,203.89c.57,5.91-.09,11.26-4.94,15.41-4,3.39-3.4,7,.87,9.94,1,.72,1.52,2.26,2.26,3.43l-1,1.08-6.09-3.43-7.59,6.49-1.44-1.3C310.57,224.89,312.8,212.37,322.72,203.89Z"/><path class="cls-1" d="M341.28,236.94a5.31,5.31,0,0,1-.62-1.67c0-6.49-1.91-11.3-9.39-12.24-1.16-.14-2.93-2.87-2.78-4.22.24-2.2,1.83-4.25,2.85-6.37,1.18.82,2.79,1.39,3.44,2.51a66.85,66.85,0,0,1,3.28,7.65l7.93-4.22c-1.05,7.15-1.91,12.94-2.77,18.72Z"/><path class="cls-1" d="M325,255.37c-2.56-7.75-4.56-15.33-1.08-23.13.56-1.25,2.14-2.05,3.25-3.06,1,1.19,2.5,2.25,2.8,3.59a13.55,13.55,0,0,1-.13,6.14C328.42,244.32,326.69,249.64,325,255.37Z"/><path class="cls-1" d="M329.61,246.63c3.83,4.73,6.92,8.18,9.58,11.95,2.29,3.24.91,6.33-1.55,9.85C333.09,261.92,329.78,255.62,329.61,246.63Z"/><path class="cls-1" d="M277,187.23c-4.23,3.66-4.2,7.45-.37,11.37-.21.38-.41.76-.61,1.15l-12-1.1-.57-1.75,12.48-10.34Z"/><path class="cls-1" d="M355.72,235.45c.72,2,1.3,3.39,1.67,4.79.95,3.68,1,7.77,5.37,9.68.62.27.4,2.5.57,3.83-1,.05-2.2.51-2.94.11C355.62,251.26,352.79,241.34,355.72,235.45Z"/><path class="cls-1" d="M261.43,203.72c3,3.43,5.38,6,7.55,8.73.48.61.62,2.27.21,2.62a4,4,0,0,1-3,.73C261.85,215,259.93,210.86,261.43,203.72Z"/><path class="cls-1" d="M293.2,187.05c.47,1,1.27,1.93,1.06,2.36a55.42,55.42,0,0,1-4.2,7.08c-.19.28-1.84-.47-2.81-.75,1-2.26,1.85-4.59,3.06-6.73C290.79,188.17,292.06,187.79,293.2,187.05Z"/><path class="cls-1" d="M345.82,303.17l9.72,5.71-1.4,2.38-9.65-5.82Z"/><path class="cls-1" d="M221,178.26l-2.89,3.11a34.35,34.35,0,0,1-3.6-4.43c-.16-.27,2-2.48,2.22-2.35A33.6,33.6,0,0,1,221,178.26Z"/><path class="cls-1" d="M123.44,195.55c10.79,2.55,18.54,9.83,26.25,17.2l-1.17,1.85L122,198Z"/><path class="cls-1" d="M122.25,209.24c6.37.35,7.91,2,7.53,8.3Z"/></svg>