<?xml version="1.0" encoding="utf-8"?>
<!-- Generator: Adobe Illustrator 24.0.0, SVG Export Plug-In . SVG Version: 6.00 Build 0)  -->
<svg version="1.1" id="Layer_1" xmlns="http://www.w3.org/2000/svg" xmlns:xlink="http://www.w3.org/1999/xlink" x="0px" y="0px"
	 viewBox="0 0 500 500" style="enable-background:new 0 0 500 500;" xml:space="preserve">
<style type="text/css">
	.st0{fill:#E3212A;}
</style>
<g>
	<path class="st0" d="M243,501c-7.3-1.5-14.5-3-23-4.8c10.9-2.9,20.4-5.5,30.6-8.2c-10-7.1-19-13.4-27.7-19.6
		c10-9,19.3-17.4,28.1-25.4c8.7,7.9,17.9,16.2,28,25.3c-8.5,6-17.4,12.4-27.4,19.6c9.8,2.7,19.4,5.4,30.1,8.3
		c-8,1.7-15.3,3.2-22.7,4.8C253.7,501,248.3,501,243,501z"/>
	<path class="st0" d="M1,243c1.5-7.3,3.1-14.7,4.8-22.9c2.9,10.7,5.5,20.3,8.2,30.4c7.1-10,13.4-19,19.6-27.7
		c9.1,10,17.4,19.3,25.4,28.1c-7.9,8.7-16.2,17.9-25.3,28c-6.1-8.5-12.4-17.4-19.6-27.4c-2.7,9.8-5.4,19.4-8.3,30.1
		c-1.7-8-3.2-15.4-4.8-22.7C1,253.7,1,248.3,1,243z"/>
	<path class="st0" d="M501,259c-1.5,7.3-3,14.5-4.8,23c-2.9-10.9-5.5-20.5-8.2-30.6c-7.1,10-13.4,19-19.6,27.7
		c-9.1-10-17.4-19.3-25.4-28.1c7.9-8.7,16.2-17.9,25.3-28c6.1,8.5,12.4,17.4,19.6,27.4c2.7-9.8,5.4-19.4,8.3-30.1
		c1.7,8,3.2,15.4,4.8,22.7C501,248.3,501,253.7,501,259z"/>
	<path class="st0" d="M259,1c7.3,1.5,14.5,3,23,4.8c-10.9,2.9-20.4,5.5-30.6,8.2c10,7.1,19,13.4,27.7,19.6
		c-10,9-19.3,17.4-28.1,25.4c-8.7-7.9-17.9-16.2-28-25.3c8.4-6,17.4-12.4,27.4-19.6c-9.8-2.7-19.4-5.4-30.1-8.3
		c8-1.7,15.4-3.2,22.7-4.8C248.3,1,253.7,1,259,1z"/>
	<path class="st0" d="M319.2,367.8c7.9,2.3,15.8,4.7,23.7,7c1.6,0.5,3.1,1.1,4.6,1.6c0,0-0.1-0.1-0.1-0.1
		c-0.2,8.8-0.4,17.6-0.6,26.3c-0.1,4.1-0.4,8.2-0.6,13.6c-12.1-6.9-23.1-13.2-34.9-19.8c-3.5,12.7-7,25.1-10.6,37.9
		c-9.2-10.1-18-19.7-27.6-30.1c3.2-5.6,7.9-13.7,12.9-22.4c8.3,4.8,16.4,9.4,24.9,14.3c2.9-9.8,5.7-19.1,8.4-28.5L319.2,367.8z"/>
	<path class="st0" d="M376.4,347.5c-2.2-7.6-4.4-15.2-6.6-22.8c-0.5-1.9-1.4-3.6-2.1-5.4c0,0-0.1,0.1-0.1,0.1
		c9.4-2.8,18.7-5.5,28.5-8.4c-4.8-8.4-9.4-16.4-14.3-24.9c8.3-4.8,16.4-9.5,23.6-13.7c9.8,9.2,19.4,18.1,30.1,28
		c-13.7,3.8-26.1,7.3-39.1,10.9c6.5,11.5,12.9,22.7,20.1,35.5c-6,0-10.5-0.1-14.9,0C393.3,347,384.8,347.2,376.4,347.5
		C376.4,347.4,376.4,347.5,376.4,347.5z"/>
	<path class="st0" d="M125.7,347.4c-8.8-0.2-17.6-0.4-26.4-0.6c-4.1-0.1-8.2-0.4-13.6-0.6c6.8-12.1,13.1-23.2,19.8-34.9
		c-12.7-3.5-25.1-7-38.5-10.7c10.4-9.3,20.1-18.1,30.6-27.5c5.7,3.3,13.9,8,22.5,13c-4.8,8.3-9.5,16.5-14.3,24.9
		c9.8,2.9,19.1,5.7,28.5,8.4l-0.1-0.1c-2.3,7.9-4.7,15.8-7,23.6c-0.5,1.6-1.1,3.1-1.6,4.6L125.7,347.4z"/>
	<path class="st0" d="M154.7,125.7c0.2-8.8,0.4-17.6,0.6-26.4c0.1-4.1,0.3-8.2,0.6-13.6c12.2,6.9,23.4,13.3,34.9,19.8
		c3.6-12.8,7-25.1,10.5-37.8c9.2,10,18,19.5,27.7,30c-3.3,5.7-8.1,13.9-12.9,22.4c-8.5-4.9-16.5-9.5-24.9-14.3
		c-2.9,9.8-5.7,19.1-8.4,28.5l0.1-0.1c-7.9-2.3-15.8-4.7-23.6-7c-1.6-0.5-3.1-1.1-4.6-1.6C154.5,125.6,154.7,125.7,154.7,125.7z"/>
	<path class="st0" d="M376.3,154.6c8.8,0.2,17.6,0.4,26.4,0.6c4.1,0.1,8.2,0.4,13.6,0.6c-6.9,12.1-13.2,23.2-19.8,34.9
		c12.7,3.5,25.1,7,38.5,10.7c-10.4,9.4-20.2,18.1-30.7,27.5c-5.7-3.3-13.9-8-22.5-13c4.8-8.3,9.5-16.5,14.3-24.9
		c-9.8-2.9-19.1-5.7-28.5-8.4l0.1,0.1c2.3-7.9,4.7-15.8,7-23.6c0.5-1.6,1.1-3.1,1.6-4.6L376.3,154.6z"/>
	<path class="st0" d="M347.5,125.5c-7.6,2.2-15.3,4.4-22.9,6.6c-1.9,0.5-3.6,1.4-5.4,2.1l0.1,0.1c-2.8-9.4-5.5-18.7-8.4-28.5
		c-8.4,4.8-16.4,9.4-24.9,14.3c-4.8-8.3-9.6-16.5-13.5-23.3c9.3-10,18.2-19.5,28-30c3.7,13.4,7.1,25.8,10.7,38.7
		c11.5-6.5,22.7-12.9,35.5-20.2c0,6-0.1,10.5,0,14.9C347,108.7,347.2,117.2,347.5,125.5C347.4,125.6,347.5,125.5,347.5,125.5z"/>
	<path class="st0" d="M125.6,154.5c2.2,7.6,4.4,15.2,6.6,22.9c0.5,1.9,1.4,3.6,2.1,5.4l0.1-0.1c-9.4,2.8-18.7,5.5-28.5,8.4
		c4.8,8.4,9.4,16.4,14.3,24.9c-8.3,4.8-16.4,9.5-23.6,13.7c-9.8-9.2-19.4-18.1-30.1-28c13.7-3.8,26.1-7.3,39.1-10.9
		C99,179.2,92.7,168,85.4,155.2c6,0,10.5,0.1,14.9,0C108.7,155,117.2,154.8,125.6,154.5C125.6,154.6,125.6,154.5,125.6,154.5z"/>
	<path class="st0" d="M154.5,376.5c7.6-2.2,15.2-4.4,22.9-6.6c1.9-0.5,3.6-1.4,5.4-2.1l-0.1-0.1c2.8,9.4,5.5,18.7,8.4,28.5
		c8.4-4.8,16.4-9.4,24.9-14.3c4.8,8.3,9.6,16.5,13.6,23.5c-9.2,9.9-18.1,19.5-28,30.2c-3.8-13.7-7.2-26.1-10.8-39
		c-11.5,6.5-22.7,12.9-35.5,20.1c0-6,0.1-10.5,0-14.9C155,393.3,154.8,384.8,154.5,376.5C154.6,376.4,154.5,376.5,154.5,376.5z"/>
	<path class="st0" d="M436.5,300.7c9.7-6.2,20.1-13,31-20c5.5,8.6,8.8,19.1,11.2,30c0.5,0.2,1,0.4,1.4,0.6c5-8.4,9.9-16.8,14.6-24.7
		c3.8,11.5-4.8,45.3-15.4,56.4c0-9.8,0-19.7,0-29.9c-8.9,7.4-17.3,14.4-25.7,21.4C447.6,322.5,441.9,311.3,436.5,300.7z"/>
	<path class="st0" d="M6.5,285.3c5.3,9.2,10.2,17.6,15.5,26.6c4.2-11.4,8-21.7,11.7-31.7c11.4,7.4,21.9,14.2,31.8,20.6
		c-5.3,10.4-11,21.6-17.2,33.7c-8-6.6-16.4-13.6-25.3-20.9c-1.7,9.6-1.3,19.5-0.5,29.6C10.7,325.9,5.8,306.8,6.5,285.3z"/>
	<path class="st0" d="M21.7,190.7c-4.9,8.4-9.8,16.8-14.5,24.8c-3.8-11.3,4.7-45.3,15-56.1c0,7.7,0,15.8,0,23.9
		c0,1.8,0.5,3.6,0.8,5.2c8.6-7.1,17.1-14.1,25.2-20.9c6.1,12,11.8,23.2,17.2,33.7c-9.7,6.2-20.1,13-31,20c-5.4-8.7-8.9-19.1-11.1-30
		C22.8,191.1,22.3,190.9,21.7,190.7z"/>
	<path class="st0" d="M436.5,201.3c5.3-10.4,11-21.5,17.2-33.6c8,6.5,16.5,13.5,25.5,20.9c0-9.8,0-19.7,0-31
		c12.1,18.6,17.1,37.6,16.3,59.1c-5.3-9.2-10.3-17.6-15.5-26.6c-4.2,11.4-8.1,21.7-11.8,31.7C456.8,214.4,446.3,207.6,436.5,201.3z"
		/>
	<path class="st0" d="M334.3,453.7c-6.6,8-13.6,16.5-21,25.6c9.9,0,19.7,0,30.9,0c-18.4,12.1-37.5,16.9-59,16.3
		c9.2-5.4,17.7-10.3,26.7-15.5c-11.4-4.3-21.8-8.1-31.7-11.8c7.4-11.4,14.1-21.8,20.6-31.7C311.1,441.8,322.2,447.5,334.3,453.7z"/>
	<path class="st0" d="M216.6,495.5c-21.3,0.9-40.3-4.2-58.7-16c10.9,0,20.7,0,31,0c-7.5-9.1-14.6-17.7-21.3-25.8
		c12-6.1,23.1-11.8,33.7-17.2c6.3,9.7,13.1,20.2,20.5,31.7c-9.8,3.7-20.1,7.5-31.6,11.8C199.1,485.2,207.5,490.1,216.6,495.5z"/>
	<path class="st0" d="M334.4,48.3c-12.2,6.2-23.2,11.9-33.7,17.2c-6.2-9.7-13-20.1-20-31c8.7-5.6,19.4-8.8,30.3-11.3
		c0.1-0.5,0.3-0.9,0.4-1.4c-8.5-5-16.9-9.9-26.1-15.3c21.4-0.8,40.4,4.2,58.7,16c-10.9,0-20.8,0-31,0
		C320.6,31.6,327.6,40.1,334.4,48.3z"/>
	<path class="st0" d="M188.8,22.6c-10.1,0-19.9,0-30.9,0c18.3-11.9,37.4-16.9,58.8-16.1c-9.2,5.3-17.6,10.3-26.6,15.5
		c11.4,4.2,21.7,8,31.7,11.7c-7.4,11.4-14.2,21.9-21,32.3c-4.7-2.8-9.9-6.4-15.5-9.3c-5.4-2.8-11.3-4.9-18.3-7.9
		C174.2,40.3,181.2,31.9,188.8,22.6z"/>
	<path class="st0" d="M153.4,24c-6.9,6.6-13.9,13.3-20.9,20.1c0.5,0.5,1.1,1,1.6,1.5c10.9,1,21.8,2.1,32.5,3.1
		c-4.2,12.9-8,24.8-11.7,36c-11.3-2.4-23.4-5.1-36-7.8c2.3-10.2,7.4-20,13.4-29.3c-0.2-0.5-0.4-0.9-0.6-1.4
		c-9.5,2.4-18.9,4.9-29,7.5C116.9,38,134,28.4,153.4,24z"/>
	<path class="st0" d="M53.5,103.5c-2.4,9.2-4.9,18.6-7.5,28.7C57,127,67,122.5,76.7,118c2.9,13.3,5.5,25.6,8,37
		c-11.1,3.6-22.9,7.4-35.9,11.6c-1-10.5-2.1-21.4-3.3-33.5c-7.2,7.1-14.2,14-20.9,20.6C24.3,140.7,40.8,111.8,53.5,103.5z"/>
	<path class="st0" d="M369,456.5c-12.2-1.2-23-2.2-33.6-3.3c4.2-12.9,8-24.6,11.7-36c11.3,2.5,23.5,5.1,36.9,8.1
		c-4.4,9.6-8.9,19.6-13.9,30.6c9.7-2.5,19.1-4.9,28.1-7.3c-5.5,11-34.4,27.8-50.2,29.1C354.7,470.9,361.7,463.9,369,456.5z"/>
	<path class="st0" d="M424.5,117.6c10.6,4.9,20.5,9.4,31.4,14.5c-2.6-9.9-5-19.4-7.6-29.4c15.7,14.3,25.4,31.4,29.7,50.6
		c-6.4-6.5-13.3-13.5-20.2-20.6c-0.4,0.5-0.9,1-1.3,1.4c-1,10.9-2.1,21.8-3.1,32.5c-13-4.2-24.8-8-36.7-11.9
		c1.5-5.2,3.7-11.2,5-17.3C423,131.4,423.4,125.3,424.5,117.6z"/>
	<path class="st0" d="M155,417.3c3.6,11,7.4,22.8,11.3,35.2c-9.9,3-20.9,3.7-32,3.1c-0.3,0.4-0.7,0.8-1,1.2
		c7,7.1,13.9,14.2,21.1,21.5c-20.4-4.5-37.5-14.2-51.8-29.9c10.1,2.6,19.6,5.1,29.3,7.6c-5-11-9.5-21-13.9-30.6
		C131.4,422.4,143.6,419.8,155,417.3z"/>
	<path class="st0" d="M425.3,384c-2.9-13.3-5.5-25.4-8-37c11-3.5,22.8-7.3,35.1-11.3c3,9.8,3.7,20.7,3.1,31.9c0.4,0.3,0.8,0.7,1.2,1
		c7.1-6.9,14.2-13.9,21.5-21.1c-4.4,20.4-14.2,37.4-29.9,51.8c2.6-10.1,5.1-19.6,7.7-29.5C444.9,375,434.9,379.6,425.3,384z"/>
	<path class="st0" d="M24,348.5c6.7,6.9,13.5,13.8,20.3,20.8c0.4-0.5,0.9-1,1.3-1.5c1-10.9,2.1-21.8,3.1-32.5
		c12.9,4.2,24.8,8,36,11.6c-2.5,11.4-5.1,23.5-8,36.9c-9.6-4.4-19.6-8.9-30.6-13.9c2.5,9.8,5,19.3,7.6,29.3
		C38,385.1,28.3,368,24,348.5z"/>
	<path class="st0" d="M335.4,48.7c10.6-1,21.4-2.1,33.5-3.2c-7.1-7.2-14-14.2-20.5-20.9c12.1-0.8,41.1,15.7,50.3,28.9
		c-9.3-2.4-18.8-4.9-28.7-7.4c5,10.9,9.6,20.8,14.1,30.6c-13.3,2.9-25.5,5.5-37,8C343.5,73.6,339.7,61.9,335.4,48.7z"/>
	<path class="st0" d="M83.9,417.8c-3.2-11-6.1-22-5.6-32.9c12.7,0.7,25,1.3,36.9,1.9c0.6,11.8,1.3,24.1,1.9,36.8
		c-10.9,0.5-21.9-2.4-32.9-5.6L83.9,417.8z"/>
	<path class="st0" d="M418.1,84.2c3.2,11,6,22,5.6,32.9c-12.7-0.7-25-1.3-36.9-1.9c-0.6-11.8-1.3-24.2-1.9-36.8
		c10.9-0.5,21.9,2.4,32.9,5.6L418.1,84.2z"/>
	<path class="st0" d="M84.2,83.9c11-3.2,22-6,32.9-5.6c-0.7,12.6-1.3,24.8-2,36.9c-11.6,0.6-24.1,1.2-36.8,1.9
		c-0.5-10.9,2.4-21.9,5.6-32.9L84.2,83.9z"/>
	<path class="st0" d="M417.8,418.1c-11,3.2-22,6.1-32.9,5.6c0.7-12.6,1.3-24.8,2-36.9c11.6-0.6,24.1-1.2,36.9-1.9
		c0.5,10.9-2.4,21.9-5.6,32.9L417.8,418.1z"/>
	<path class="st0" d="M387.5,250.7c6.3-6.3,13-13,19.9-20c10.9,6.4,22,12.9,34.5,20.2c-12.3,7.2-23.4,13.8-34.4,20.3
		C400.8,264.2,394.2,257.5,387.5,250.7z"/>
	<path class="st0" d="M114.6,251.8c-6.1,6.1-12.7,12.7-19.7,19.7C83.8,265,72.5,258.4,60,251c12.4-7.3,23.6-13.9,33.9-19.9
		C101.1,238.3,107.8,245.1,114.6,251.8z"/>
	<path class="st0" d="M251.3,387.2c6.4,6.5,13,13,20.1,20.1c-6.4,10.9-13,22.1-20.3,34.7c-7.3-12.3-13.9-23.5-20.2-34.4
		C237.8,400.6,244.4,394,251.3,387.2z"/>
	<path class="st0" d="M250.8,114.3c-6.2-6.2-12.9-12.9-20-19.9c6.3-10.7,12.8-21.9,20.2-34.4c7.3,12.4,13.8,23.5,20,34.1
		C264,101,257.3,107.8,250.8,114.3z"/>
	<path class="st0" d="M155,154.9c-9.8-0.1-19.6-0.3-29.5-0.4c0,0,0.1,0.1,0.1,0.1c-2.3-9.3-4.7-18.6-7-27.9c-0.7-3-1.3-6.1-2.2-10.4
		c13.4,3.3,25.8,6.4,38.3,9.5c0,0-0.1-0.1-0.1-0.1c0.1,9.8,0.2,19.6,0.4,29.4C154.9,155,155,154.9,155,154.9z"/>
	<path class="st0" d="M376.4,154.5c-9.8,0.1-19.6,0.3-29.4,0.4c0,0,0.1,0.1,0.1,0.1c0.1-9.8,0.2-19.7,0.4-29.5c0,0-0.1,0.1-0.1,0.1
		c9.3-2.3,18.6-4.7,27.9-7c3-0.7,6.1-1.3,10.4-2.2c-3.3,13.4-6.4,25.8-9.4,38.2C376.3,154.6,376.4,154.5,376.4,154.5z"/>
	<path class="st0" d="M347.5,376.4c-0.2-9.8-0.3-19.6-0.5-29.4c0,0-0.1,0.1-0.1,0.1c9.8,0.1,19.7,0.2,29.5,0.4c0,0-0.1-0.1-0.1-0.1
		c2.3,9.3,4.7,18.6,7,27.9c0.7,3,1.3,6.1,2.2,10.4c-13.4-3.3-25.8-6.4-38.2-9.4C347.4,376.3,347.5,376.4,347.5,376.4z"/>
	<path class="st0" d="M125.6,347.5c9.8-0.1,19.6-0.3,29.4-0.4c0,0-0.1-0.1-0.1-0.1c-0.1,9.8-0.2,19.7-0.4,29.5c0,0,0.1-0.1,0.1-0.1
		c-9.3,2.3-18.6,4.7-27.9,7c-3,0.7-6.1,1.3-10.4,2.3c3.3-13.4,6.4-25.8,9.4-38.2C125.7,347.4,125.6,347.5,125.6,347.5z"/>
	<path class="st0" d="M357.9,221.5c1.5-5.4,3-10.8,4.7-16.6c6.6,3.8,12.7,7.3,19.2,11.1c-3.8,6.6-7.4,12.8-11.6,20.2
		c-4.2-4.8-7.9-9-12.2-13.8c-1.5,5.2-2.7,9.4-4.2,14.8c-2.3-3.7-4-6.7-6.6-10.9c-0.2,3.6-0.3,6-0.5,8.3c-0.3,0.1-0.5,0.1-0.8,0.2
		c-1.6-5.8-3.2-11.6-4.7-17.3c0.2-0.1,0.5-0.3,0.7-0.4c1.3,2.1,2.6,4.2,4.8,7.7c0-4.9,0-8.4,0-11.9c0.5-0.4,1.1-0.7,1.6-1.1
		c2.7,3.7,5.4,7.4,8.1,11.1C356.8,222.4,357.3,222,357.9,221.5z"/>
	<path class="st0" d="M155.2,234.6c0-2.3,0-4.6,0-6.9c-0.3-0.1-0.6-0.3-0.8-0.4c-1.8,3-3.7,6-6,9.8c-1.5-5.1-2.7-9.5-4.2-14.6
		c-4.3,4.7-8.1,8.8-12.4,13.4c-4.1-7.2-7.7-13.3-11.5-19.9c6.4-3.7,12.6-7.3,19.2-11.1c1.7,5.9,3.2,11.2,5.1,18.1
		c3.3-4.3,6-7.8,8.7-11.3c0.6,0.3,1.2,0.7,1.7,1c0,3.5,0,7,0,10.4c0.4,0.1,0.8,0.2,1.2,0.4c1.4-2.1,2.7-4.2,4.1-6.3
		c0.2,0.1,0.4,0.2,0.7,0.2c-1.5,5.7-3,11.4-4.5,17.1C155.9,234.6,155.6,234.6,155.2,234.6z"/>
	<path class="st0" d="M155.1,278.9c0,3.4,0,6.8,0,11.5c-3.6-4.2-6.5-7.5-9.4-10.8c-0.5,0.3-1.1,0.6-1.6,0.8
		c-1.5,5.3-3,10.6-4.7,16.7c-6.4-3.7-12.5-7.2-19.2-11.1c3.7-6.5,7.3-12.7,11.7-20.3c4.3,4.8,8,8.9,12.2,13.6
		c1.4-4.9,2.6-9.2,4.1-14.4c2.3,3.7,4.1,6.7,6.6,10.8c0.2-3.6,0.3-6,0.4-8.3c0.3-0.1,0.5-0.1,0.8-0.2c1.6,5.8,3.2,11.6,4.8,17.4
		c-0.2,0.1-0.4,0.2-0.7,0.3c-1.3-2.1-2.7-4.2-4-6.4C155.9,278.7,155.5,278.8,155.1,278.9z"/>
	<path class="st0" d="M250.9,361.5c-4.7-2.7-8.5-4.9-13.2-7.7c4.5-1.3,7.9-2.3,12.5-3.6c-3.3-1.1-5.5-1.8-7.7-2.5c0-0.2,0-0.3,0-0.5
		c5.6,0,11.2,0,16.8,0c0.1,0.2,0.1,0.3,0.2,0.5c-2.2,0.7-4.4,1.3-6.5,2c0,0.3-0.1,0.6-0.1,0.9c3.4,1,6.9,1.9,11.3,3.2
		c-4.6,2.8-8.4,5.1-13,7.8c5.3,3.1,10,5.9,14.1,8.3c-5,5-10,10-14.9,14.9c-4.1-4.1-9.1-9.2-14.3-14.5
		C240.5,367.6,245.3,364.8,250.9,361.5z"/>
	<path class="st0" d="M250.8,140.4c-5.3-3.1-10-5.9-14.1-8.3c5-5,10.1-10,15.1-15c4.1,4.1,9,9.2,14.2,14.6
		c-4.6,2.7-9.3,5.5-14.9,8.7c4.5,2.6,8.4,4.9,13.1,7.7c-4.4,1.3-7.8,2.3-12.5,3.6c3.3,1.1,5.5,1.8,7.7,2.5c0,0.2,0,0.3,0,0.5
		c-5.6,0-11.2,0-16.8,0c-0.1-0.2-0.1-0.3-0.2-0.5c2.2-0.6,4.4-1.3,8-2.4c-4.7-1.4-8.1-2.4-12.4-3.6
		C242.4,145.6,246.2,143.3,250.8,140.4z"/>
	<path class="st0" d="M237.1,148.3c-3.7,2.3-6.6,4.1-10.6,6.6c3.5,0.2,5.8,0.4,8.1,0.5c0.1,0.3,0.1,0.5,0.2,0.8
		c-5.7,1.6-11.5,3.1-17.2,4.7c-0.1-0.2-0.3-0.5-0.4-0.7c2.1-1.3,4.2-2.6,7.7-4.7c-4.9,0-8.4,0-11.9,0c-0.3-0.5-0.6-1-1-1.5
		c3.6-2.8,7.2-5.5,10.9-8.3c-0.4-0.5-0.8-1-1.2-1.5c-5.4-1.5-10.8-3-16.7-4.7c3.8-6.5,7.3-12.6,11.1-19.2
		c6.6,3.8,12.7,7.3,19.9,11.5c-4.7,4.1-9,7.7-14.1,12.2C227.5,145.6,231.9,146.8,237.1,148.3z"/>
	<path class="st0" d="M286,120.2c3.8,6.6,7.4,12.7,11.1,19.2c-5.9,1.7-11.3,3.2-18.1,5.1c4.2,3.5,7.6,6.3,11,9.1
		c-0.2,0.5-0.5,0.9-0.7,1.4c-3.5,0-7,0-10.5,0c-0.1,0.4-0.2,0.7-0.3,1.1c2.1,1.4,4.2,2.7,6.4,4.1c-0.1,0.2-0.2,0.4-0.3,0.6
		c-5.8-1.5-11.5-3.1-17.3-4.6c0-0.3,0.1-0.6,0.1-0.9c2.3-0.1,4.6-0.3,8.1-0.5c-3.9-2.5-6.9-4.4-10.5-6.7c5-1.4,9.2-2.6,14.2-4.1
		c-4.6-4-8.8-7.6-13.9-12C273.2,127.7,279.3,124.1,286,120.2z"/>
	<path class="st0" d="M353.8,237.7c2.8,4.8,5.1,8.6,7.7,13.1c3.2-5.3,6-10,8.5-14.2c5,4.9,10,9.9,14.6,14.6
		c-4.2,4.2-9.3,9.3-14.6,14.5c-2.5-4.2-5.3-9-8.5-14.5c-2.7,4.5-4.9,8.4-7.8,13.2c-1.3-4.5-2.2-7.9-3.6-12.7
		c-1.1,3.4-1.8,5.7-2.5,7.9c-0.2,0-0.4,0-0.6-0.1c0-5.6,0-11.3,0-18.4c1.2,3.5,1.9,5.7,3.1,9.2C351.5,245.7,352.5,242.3,353.8,237.7
		z"/>
	<path class="st0" d="M131.5,266.4c-5.2-5.4-10-10.4-14.4-15c4.6-4.6,9.7-9.7,14.9-14.9c2.4,4.1,5.2,8.9,8.4,14.4
		c2.7-4.5,5-8.4,7.8-13.2c1.3,4.5,2.3,7.9,3.6,12.6c1.1-3.4,1.8-5.6,2.5-7.8c0.2,0,0.4,0,0.6,0.1c0,5.6,0,11.3,0,18.2
		c-1.1-3.3-1.9-5.5-3-9c-1.3,4.5-2.3,7.9-3.5,12.3c-2.7-4.5-5.1-8.3-7.8-12.8C137.4,256.5,134.5,261.2,131.5,266.4z"/>
	<path class="st0" d="M358,280.1c4.4-5,8.1-9.1,12.3-13.8c4,7,7.6,13.1,11.5,19.8c-6.3,3.7-12.4,7.2-19.2,11.1
		c-1.6-5.8-3.1-11.1-4.8-17.2c-3.6,3.4-6.9,6.5-10.7,10.1c0-4.3,0-7.7,0-11.1c-0.4-0.2-0.7-0.3-1.1-0.5c-1.4,2.2-2.9,4.3-4.3,6.5
		c-0.2-0.1-0.4-0.2-0.6-0.3c1.6-5.8,3.1-11.6,4.7-17.4c0.3,0,0.6,0.1,0.8,0.1c0.1,2.3,0.3,4.6,0.4,8.2c2.4-4,4.2-6.9,6.6-10.7
		C355.1,270,356.4,274.3,358,280.1z"/>
	<path class="st0" d="M278.6,357.4c7.3,2,12.7,3.6,18.5,5.2c-3.8,6.5-7.3,12.7-11.1,19.2c-6.6-3.8-12.7-7.4-20.1-11.6
		c4.8-4.1,9-7.8,14.1-12.1c-5.6-1.6-10-2.8-15.2-4.3c3.7-2.3,6.6-4.1,10.7-6.6c-3.5-0.2-5.8-0.3-8.2-0.5c-0.1-0.3-0.1-0.5-0.2-0.8
		c5.8-1.6,11.5-3.2,17.3-4.7c0.1,0.2,0.3,0.5,0.4,0.7c-2.1,1.3-4.2,2.6-7.7,4.8c4.9,0,8.4,0,11.9,0c0.3,0.5,0.5,0.9,0.8,1.4
		C286.4,350.8,282.9,353.7,278.6,357.4z"/>
	<path class="st0" d="M222.4,356.5c-3.3-2.9-6.7-5.8-10.9-9.5c4.8,0,8.2,0,11.6,0c0.2-0.3,0.3-0.7,0.5-1c-2.1-1.4-4.3-2.9-6.4-4.3
		c0.1-0.2,0.2-0.4,0.3-0.6c5.8,1.6,11.6,3.1,17.4,4.7c-0.1,0.3-0.1,0.6-0.2,0.8c-2.3,0.1-4.6,0.2-8.2,0.4c4,2.5,6.9,4.3,10.6,6.6
		c-5,1.5-9.3,2.8-14.6,4.3c4.8,4.1,9,7.7,14,12c-7.6,4.4-13.7,7.9-20.4,11.8c-3.7-6.4-7.2-12.5-11.1-19.2c5.8-1.6,11.1-3.1,16.5-4.6
		C221.7,357.5,222,357,222.4,356.5z"/>
	<path class="st0" d="M367.6,182.6c-1.6,7.2-3.1,14.4-4.8,22.3c-5.6-3.2-10.3-5.8-15.8-9c0,5.1,0,9.6,0,14c-0.6,0.4-1.2,0.7-1.8,1.1
		c-2.2-3-4.3-6-6.5-9c-0.4,0.4-0.9,0.8-1.3,1.1c0.5,2.3,1.1,4.7,1.6,7c-0.2,0.1-0.5,0.2-0.7,0.3c-3-5.1-5.9-10.1-8.9-15.2
		c0.2-0.2,0.3-0.4,0.5-0.5c1.8,1.7,3.7,3.3,6.5,5.8c-1.1-4.6-1.9-8-2.9-12.5c4.8,2.7,8.6,4.8,13.2,7.4c0-6.3,0-11.7,0-17.8
		c7.4,1.7,14.2,3.3,21.1,4.9C367.7,182.8,367.6,182.6,367.6,182.6z"/>
	<path class="st0" d="M319.4,367.6c-7.2-1.6-14.4-3.1-22.3-4.8c3.2-5.6,5.8-10.3,9-15.8c-5.1,0-9.5,0-14,0c-0.3-0.6-0.7-1.1-1-1.7
		c3-2.2,5.9-4.4,8.9-6.6c-0.4-0.4-0.8-0.9-1.1-1.3c-2.3,0.5-4.7,1.1-7,1.6c-0.1-0.3-0.2-0.5-0.3-0.8c5.1-2.9,10.1-5.9,15.2-8.8
		c0.2,0.2,0.4,0.3,0.5,0.5c-1.7,1.8-3.3,3.7-5.8,6.4c4.5-1,8-1.8,12.3-2.8c-2.6,4.7-4.8,8.5-7.3,13.1c6.3,0,11.7,0,17.7,0
		c-1.7,7.4-3.3,14.3-4.9,21.1C319.2,367.8,319.4,367.6,319.4,367.6z"/>
	<path class="st0" d="M182.8,367.8c-1.6-6.7-3.2-13.5-4.9-20.9c5.8,0,11.3,0,17.8,0c-2.6-4.7-4.8-8.5-7.4-13.2
		c4.4,1,7.8,1.7,12.3,2.7c-2.5-2.7-4.1-4.5-5.7-6.3c0.1-0.2,0.3-0.4,0.4-0.7c5,2.9,10.1,5.8,15.1,8.7c-0.1,0.3-0.1,0.6-0.2,0.9
		c-2.3-0.5-4.7-1.1-8.4-1.9c3.7,3.2,6.4,5.5,9.1,7.9c-0.3,0.5-0.6,1-0.8,1.5c-4.4,0-8.9,0-14.4,0c3.3,5.8,6,10.6,9.2,16.3
		c-7.9,1.7-15.1,3.3-22.3,4.9C182.6,367.6,182.8,367.8,182.8,367.8z"/>
	<path class="st0" d="M182.6,134.4c7.2,1.6,14.4,3.1,22.3,4.8c-3.2,5.6-5.8,10.3-9,15.8c5.1,0,9.5,0,14,0c0.3,0.6,0.7,1.1,1,1.7
		c-3,2.2-5.9,4.4-8.9,6.6c0.4,0.4,0.8,0.9,1.2,1.3c2.3-0.5,4.7-1.1,7-1.6c0.1,0.2,0.2,0.5,0.3,0.7c-5,2.9-10.1,5.9-15.1,8.8
		c-0.2-0.2-0.4-0.3-0.5-0.5c1.7-1.8,3.3-3.7,5.7-6.4c-4.5,1-7.9,1.8-12.3,2.7c2.6-4.7,4.7-8.5,7.3-13.1c-6.3,0-11.7,0-17.7,0
		c1.7-7.4,3.3-14.2,4.9-21.1C182.8,134.2,182.6,134.4,182.6,134.4z"/>
	<path class="st0" d="M319.2,134.2c1.6,6.7,3.2,13.5,4.9,20.9c-5.8,0-11.3,0-17.8,0c2.6,4.7,4.8,8.5,7.4,13.3
		c-4.4-1-7.8-1.7-12.4-2.8c2.5,2.7,4.1,4.5,5.8,6.3c-0.1,0.2-0.3,0.4-0.4,0.7c-5-2.9-10.1-5.8-15.1-8.7c0.1-0.3,0.1-0.6,0.2-0.9
		c2.3,0.5,4.7,1.1,8.1,1.9c-3.5-3.1-6.1-5.5-8.7-7.9c0.2-0.5,0.5-1,0.7-1.4c4.4,0,8.9,0,14.4,0c-3.3-5.8-6-10.6-9.2-16.3
		c7.9-1.7,15.1-3.3,22.3-4.8C319.4,134.4,319.2,134.2,319.2,134.2z"/>
	<path class="st0" d="M367.7,319.2c-6.7,1.6-13.5,3.2-20.7,4.9c0-5.7,0-11.1,0-17.6c-4.7,2.5-8.7,4.6-13.5,7.1
		c1-4.1,1.7-7.5,2.9-12.3c-2.8,2.6-4.6,4.3-6.4,5.9c-0.2-0.1-0.4-0.3-0.6-0.4c2.9-5,5.8-10.1,8.7-15.1c0.3,0.1,0.6,0.1,0.9,0.2
		c-0.5,2.3-1.1,4.7-1.6,7c0.4,0.4,0.9,0.8,1.3,1.1c2.2-3,4.3-6,6.5-9c0.5,0.4,1,0.7,1.6,1.1c0,4.4,0,8.8,0,14.1
		c5.6-3.2,10.4-5.9,16.1-9.1c1.7,7.9,3.3,15.1,4.8,22.3C367.6,319.4,367.7,319.2,367.7,319.2z"/>
	<path class="st0" d="M134.4,319.4c1.6-7.2,3.1-14.4,4.8-22.3c5.6,3.1,10.3,5.8,15.8,8.9c0-5,0-9.5,0-14c0.6-0.4,1.2-0.7,1.8-1.1
		c2.2,3,4.3,6,6.5,9c0.4-0.4,0.9-0.8,1.3-1.2c-0.5-2.3-1.1-4.7-1.6-7c0.2-0.1,0.5-0.2,0.7-0.3c2.9,5,5.9,10.1,8.8,15.1
		c-0.2,0.2-0.3,0.4-0.5,0.5c-1.8-1.7-3.7-3.3-6.5-5.8c1.1,4.6,1.8,8,2.9,12.4c-4.8-2.7-8.6-4.8-13.1-7.4c0,6.3,0,11.7,0,17.8
		c-7.4-1.7-14.2-3.3-21.1-4.9C134.3,319.2,134.4,319.4,134.4,319.4z"/>
	<path class="st0" d="M134.3,182.8c6.7-1.6,13.5-3.2,20.9-4.9c0,5.8,0,11.3,0,17.8c4.7-2.6,8.5-4.8,13.3-7.5
		c-1,4.4-1.8,7.8-2.9,12.5c2.8-2.5,4.6-4.2,6.3-5.8c0.2,0.1,0.4,0.3,0.6,0.4c-2.9,5-5.8,10.1-8.7,15.1c-0.3-0.1-0.6-0.1-0.9-0.2
		c0.5-2.3,1.1-4.7,1.6-7c-0.4-0.3-0.8-0.7-1.2-1c-2.3,2.8-4.7,5.7-7,8.5c-0.4-0.3-0.8-0.5-1.2-0.8c0-4.4,0-8.8,0-14.1
		c-5.6,3.2-10.4,5.9-16.1,9.1c-1.7-7.9-3.3-15.1-4.8-22.3C134.4,182.6,134.3,182.8,134.3,182.8z"/>
	<path class="st0" d="M417.8,83.9c-4.7-8.9-9.4-17.9-14.2-27.1c18.2,9.5,32,23.3,41.6,41.6c-9.2-4.8-18.1-9.5-27.1-14.2
		C418.1,84.2,417.8,83.9,417.8,83.9z"/>
	<path class="st0" d="M84.2,418.1c4.7,8.9,9.4,17.9,14.2,27.1c-18.2-9.5-32-23.3-41.6-41.6c9.2,4.8,18.1,9.5,27.1,14.2
		C83.9,417.8,84.2,418.1,84.2,418.1z"/>
	<path class="st0" d="M418.1,417.8c8.9-4.7,17.9-9.4,27.1-14.2c-9.5,18.2-23.3,32-41.6,41.6c4.8-9.2,9.5-18.1,14.2-27.1
		C417.8,418.1,418.1,417.8,418.1,417.8z"/>
	<path class="st0" d="M83.9,84.2c-8.9,4.7-17.9,9.4-27.1,14.2c9.5-18.2,23.3-32,41.6-41.6c-4.8,9.2-9.5,18.1-14.2,27.1
		C84.2,83.9,83.9,84.2,83.9,84.2z"/>
	<path class="st0" d="M328.9,329c5.8-1.4,11.5-2.8,18-4.4c0,8,0,15.2,0,22.5c0,0,0.1-0.1,0.1-0.1c-7.3,0-14.5,0-22.4,0
		c1.6-6.6,3-12.4,4.4-18.1C329,328.9,328.9,329,328.9,329z"/>
	<path class="st0" d="M173,328.9c1.4,5.8,2.8,11.5,4.4,18c-7.9,0-15.2,0-22.5,0c0,0,0.1,0.1,0.1,0.1c0-7.3,0-14.5,0-22.5
		c6.6,1.6,12.4,3,18.1,4.4L173,328.9z"/>
	<path class="st0" d="M329,173.1c-1.4-5.8-2.8-11.5-4.4-18c7.9,0,15.2,0,22.5,0c0,0-0.1-0.1-0.1-0.1c0,7.3,0,14.5,0,22.5
		c-6.6-1.6-12.4-3-18.1-4.4L329,173.1z"/>
	<path class="st0" d="M154.9,155c7.3,0,14.5,0,22.5,0c-1.6,6.6-3,12.3-4.4,18.1l0.1-0.1c-5.8,1.4-11.5,2.8-18.1,4.4
		c0-7.9,0-15.2,0-22.5C155,154.9,154.9,155,154.9,155z"/>
	<path class="st0" d="M173,173.1c4.6-1.3,9.1-2.7,14.9-4.4c-2.4,4.2-4.1,7.3-6.4,11.5c2.9-1.4,4.9-2.3,6.8-3.3
		c-0.2-0.2-0.4-0.4-0.6-0.5c-3.7,3.8-7.5,7.6-11.2,11.4c0.1,0.2,0.3,0.5,0.4,0.7c1-2,1.9-4,3.4-7.1c-4.1,2.3-7.3,4.1-11.6,6.5
		c1.7-5.8,3-10.3,4.4-14.9C173.1,173,173,173.1,173,173.1z"/>
	<path class="st0" d="M328.9,173c1.3,4.6,2.7,9.1,4.4,14.9c-4.2-2.4-7.3-4.1-11.4-6.4c1.4,3,2.3,5.1,3.9,8.4
		c-4.9-4.9-8.6-8.7-13.5-13.5c3.2,1.6,5.2,2.5,8.4,4c-2.3-4.1-4.1-7.3-6.5-11.6c5.8,1.7,10.3,3,14.9,4.4
		C329,173.1,328.9,173,328.9,173z"/>
	<path class="st0" d="M329,328.9c-4.6,1.3-9.1,2.7-14.9,4.4c2.4-4.2,4.1-7.3,6.5-11.5c-2.9,1.4-4.9,2.3-6.8,3.3
		c0.2,0.2,0.4,0.4,0.6,0.6c3.7-3.8,7.5-7.6,11.2-11.4c-0.2-0.2-0.3-0.5-0.5-0.7c-0.9,2-1.9,4-3.4,7.1c4.1-2.3,7.3-4.1,11.6-6.5
		c-1.7,5.8-3,10.3-4.4,14.9C328.9,329,329,328.9,329,328.9z"/>
	<path class="st0" d="M173.1,329c-1.3-4.6-2.7-9.1-4.4-14.9c4.2,2.4,7.3,4.1,11.4,6.4c-1.4-3-2.3-5-3.9-8.4
		c4.9,4.9,8.6,8.7,13.4,13.5c-3.2-1.5-5.2-2.5-8.3-4c2.3,4.1,4.1,7.3,6.5,11.6c-5.8-1.7-10.3-3-14.9-4.3
		C173,328.9,173.1,329,173.1,329z"/>
</g>
</svg>
