<?xml version="1.0" encoding="utf-8"?>
<!-- Generator: Adobe Illustrator 24.0.0, SVG Export Plug-In . SVG Version: 6.00 Build 0)  -->
<svg version="1.1"
	 id="svg2" xmlns:cc="http://creativecommons.org/ns#" xmlns:dc="http://purl.org/dc/elements/1.1/" xmlns:inkscape="http://www.inkscape.org/namespaces/inkscape" xmlns:rdf="http://www.w3.org/1999/02/22-rdf-syntax-ns#" xmlns:sodipodi="http://sodipodi.sourceforge.net/DTD/sodipodi-0.dtd" xmlns:svg="http://www.w3.org/2000/svg"
	 xmlns="http://www.w3.org/2000/svg" xmlns:xlink="http://www.w3.org/1999/xlink" x="0px" y="0px" viewBox="0 0 960 960"
	 style="enable-background:new 0 0 960 960;" xml:space="preserve">
<style type="text/css">
	.st0{fill:#E3212A;}
</style>
<sodipodi:namedview  bordercolor="#666666" borderopacity="1.0" fit-margin-bottom="0" fit-margin-left="0" fit-margin-right="0" fit-margin-top="0" id="base" inkscape:bbox-nodes="true" inkscape:bbox-paths="true" inkscape:current-layer="layer1" inkscape:cx="1533.7636" inkscape:cy="465.65702" inkscape:document-units="px" inkscape:pageopacity="0.0" inkscape:pageshadow="2" inkscape:snap-bbox="true" inkscape:snap-bbox-edge-midpoints="true" inkscape:window-height="740" inkscape:window-maximized="1" inkscape:window-width="1280" inkscape:window-x="0" inkscape:window-y="25" inkscape:zoom="0.12374369" pagecolor="#ffffff" showgrid="false">
	</sodipodi:namedview>
<g id="layer1" transform="translate(-1142.8571,21.923501)" inkscape:groupmode="layer" inkscape:label="Layer 1">
	<g id="g3447" transform="translate(0,-600.00009)">
		<path id="path3414" inkscape:connector-curvature="0" class="st0" d="M1142.9,578.1h160v160h-160V578.1z"/>
		<path id="path3418" inkscape:connector-curvature="0" class="st0" d="M1302.9,738.1h160v160h-160V738.1z"/>
		<path id="path3420" inkscape:connector-curvature="0" class="st0" d="M1462.9,898.1h160v160h-160V898.1z"/>
		<path id="path3422" inkscape:connector-curvature="0" class="st0" d="M1462.9,578.1h160v160h-160V578.1z"/>
		<path id="path3424" inkscape:connector-curvature="0" class="st0" d="M1142.9,898.1h160v160h-160V898.1z"/>
	</g>
	<path id="path3458" inkscape:connector-curvature="0" class="st0" d="M1782.9,298.1h160v160h-160V298.1z"/>
	<path id="path3460" inkscape:connector-curvature="0" class="st0" d="M1942.9,458.1h160v160h-160V458.1z"/>
	<path id="path3462" inkscape:connector-curvature="0" class="st0" d="M1942.9,138.1h160v160h-160V138.1z"/>
	<path id="path3464" inkscape:connector-curvature="0" class="st0" d="M1622.9,458.1h160v160h-160V458.1z"/>
	<path id="path3470" inkscape:connector-curvature="0" class="st0" d="M1302.9,778.1h160v160h-160V778.1z"/>
	<path id="path3472" inkscape:connector-curvature="0" class="st0" d="M1782.9,618.1h160v160h-160V618.1z"/>
	<path id="path3474" inkscape:connector-curvature="0" class="st0" d="M1462.9,618.1h160v160h-160V618.1z"/>
	<path id="path3476" inkscape:connector-curvature="0" class="st0" d="M1622.9,778.1h160v160h-160V778.1z"/>
	<path id="path3492" inkscape:connector-curvature="0" class="st0" d="M1942.9,778.1h160v160h-160V778.1z"/>
</g>
</svg>
