<?xml version="1.0" encoding="utf-8"?>
<!-- Generator: Adobe Illustrator 25.3.1, SVG Export Plug-In . SVG Version: 6.00 Build 0)  -->
<svg version="1.1" xmlns="http://www.w3.org/2000/svg" xmlns:xlink="http://www.w3.org/1999/xlink" x="0px" y="0px"
	 viewBox="0 0 300 350" style="enable-background:new 0 0 300 350;" xml:space="preserve">
<style type="text/css">
	.st0{display:none;}
	.st1{display:inline;fill:none;stroke:#7F47DD;stroke-width:16;stroke-miterlimit:10;}
	.st2{display:inline;fill:#7F47DD;}
	.st3{fill:#BD4242;}
</style>
<g id="Layer_1" class="st0">
	<polygon class="st1" points="16.5,207.5 16.5,33.1 167.6,120.3 318.6,207.5 167.6,294.7 16.5,381.9 	"/>
	<path class="st2" d="M25.4,181.6c6.4,0.5,13.1,2.1,19.2,4.2c2.8,0.9,5.6,2,7.6,4.1c2.6,2.6,3.6,6.5,3.5,10.2
		c-0.1,3.7-1.1,7.3-2.1,10.8c-3.2,11.6-5.8,23.2-8,35c-0.3,1.6,20.2,11.1,20.2,10.9c1.1-51.6-8.9-103-10.3-154.8
		C55,83.7,52,58.9,66.5,46c13.3-11.9,42-11.1,59.5-13.1c9.2-1,19-1.1,27.3,3c9.4,4.7,15.7,14.3,18.8,24.3s3.3,20.8,3.6,31.3
		c0.9,35.1,3,61.3,3.8,96.4l24.6-0.8c2.7-1,5.5-2.1,7.4-4.2c4.5-5,2.2-12.8-0.4-19c-6.3-15.3-12.5-30.7-18.8-46
		c-2.2-5.4-4.4-11.3-2.8-16.8c1.3-4.4,4.9-7.8,8.5-10.7c7.9-6.3,16.7-11.5,26.1-15.1c13-5.1,29.1-6.9,39.7,2.2
		c9.1,7.9,11,21.1,11.6,33.2c1,21.5,0,43-3.2,64.3c-0.2,1.2-0.4,2.4-0.5,3.5c-0.9,5.4-2,11.1-5.7,15.2c-3.9,4.3-9.9,6-15.5,7.4
		c-23.8,6-47.8,11.2-71.9,15.8l-0.8,160.1l-105.5,4.8c-0.7-12.1-1.4-24.2-2.1-36.2c-0.3-5-1.5-57.6-0.6-57.5l-53.4-26.2
		c-9.6-6.4-19.8-13.4-24.2-24.1c-1.9-4.6-2.6-9.6-3.3-14.5c-1.7-11.7-6.3-26,2.2-35.8c1.6-1.9,3.4-3.9,5.9-4.4
		C5.8,181.1,15.8,180.8,25.4,181.6z"/>
</g>
<g id="Layer_2">
	<path class="st3" d="M268.3,111.4c0.8,17.5-0.1,35.2-2.7,52.5c-0.1,1-0.3,1.9-0.5,2.9c-0.7,4.5-1.7,9.2-4.7,12.5
		c-3.2,3.6-8.1,4.9-12.8,6.1c-19.7,4.9-39.5,9.3-59.4,13.1L182.5,326c0,0,47,5,74,24l-204,0.4c0,0,33.3-18.1,78-24.4l-17.3-74.5
		l-58.9-15.9c-8-5.3-16.3-11.1-20-19.9c-1.4-3.3-2-6.8-2.5-10.3l-16-7.2l13.7-7.3c-0.6-6-0.2-11.9,3.8-16.6c1.3-1.6,2.8-3.2,4.8-3.6
		c7.6-1.7,15.8-1.9,23.8-1.3c5.3,0.4,10.8,1.8,15.9,3.4c2.3,0.8,4.6,1.7,6.3,3.4c2.1,2.2,2.9,5.4,2.9,8.4c-0.1,3-0.9,6-1.7,8.9
		c-2.6,9.5-4.8,19.2-6.6,28.9c-0.2,1.3,32.1,4.3,32.1,4.3c-0.7-8.5-11.2-74-16.7-108.3l-23.2-10l19.8-11.1
		c-0.1-1.9-0.9-16.5-1.1-24.1c-0.2-10,8.2-13.7,11-14.6c1.5-0.5,3.1-0.9,4.6-1.3l-0.5,0.1l9.9-24l11.3,19.5
		c9.5-1.5,19.1-2.2,28.7-2.2l15.3-16.9l3.4,18.7c5.2,1.5,9.8,4.2,12.1,9c1.8,3.8,1.9,8.1,1.9,12.3c-0.1,33.7,1.1,67.2,1.9,101
		l20.3-0.6c2.2-0.8,4.5-1.7,6.1-3.5c3.7-4.1,1.8-10.6-0.3-15.7c-5.2-12.7-10.4-25.3-15.5-38c-1.8-4.4-3.7-9.3-2.3-13.9
		c1.1-3.7,4-6.5,7-8.9c6.5-5.2,13.8-9.5,21.5-12.5c10.7-4.2,24-5.7,32.8,1.8c1.7,1.4,3,3.1,4.2,4.9l21.4-1.8L268.3,111.4z"/>
</g>
</svg>
